<?xml version="1.0" encoding="iso-8859-1"?>
<!-- Generator: Adobe Illustrator 19.0.0, SVG Export Plug-In . SVG Version: 6.00 Build 0)  -->
<svg version="1.1" id="Capa_1" xmlns="http://www.w3.org/2000/svg" xmlns:xlink="http://www.w3.org/1999/xlink" x="0px" y="0px"
	 viewBox="0 0 512 512" style="enable-background:new 0 0 512 512;" xml:space="preserve">
<path style="fill:#FFDA68;" d="M202.563,507.528L4.569,309.534c-3.093-3.092-4.711-7.364-4.444-11.731
	c0.268-4.366,2.395-8.407,5.842-11.1L174.68,154.931c6.078-4.749,14.743-4.217,20.196,1.237l161.054,161.053
	c5.453,5.453,5.984,14.118,1.237,20.196L225.392,506.129c-2.692,3.447-6.734,5.574-11.1,5.842
	C209.927,512.239,205.656,510.62,202.563,507.528z"/>
<path style="fill:#FFA918;" d="M357.166,337.416c4.749-6.078,4.217-14.743-1.237-20.196l-80.883-80.883L103.21,408.175
	l99.352,99.352c3.093,3.092,7.364,4.711,11.731,4.444c4.366-0.268,8.407-2.395,11.1-5.842L357.166,337.416z"/>
<path style="fill:#2D69AD;" d="M326.968,235.938l-51.004-51.004c-5.963-5.963-5.963-15.63,0-21.594l148.33-148.329
	c20.015-20.015,52.583-20.015,72.598,0c20.015,20.015,20.016,52.583,0,72.598L348.562,235.938
	C342.599,241.901,332.931,241.901,326.968,235.938z"/>
<path style="fill:#FF5957;" d="M334.336,338.814L173.282,177.762c-3.092-3.092-4.711-7.364-4.444-11.731
	c0.268-4.366,2.395-8.407,5.842-11.1l14.266-11.142c28.509-22.266,69.297-19.769,94.873,5.807l78.681,78.681
	c25.577,25.577,28.074,66.363,5.807,94.872l-11.143,14.267c-2.692,3.447-6.734,5.574-11.1,5.842
	C341.699,343.525,337.428,341.908,334.336,338.814z"/>
<path style="fill:#FC7718;" d="M135.545,440.505c-5.727-5.727-6-15.001-0.494-21.057l64.52-70.993
	c5.672-6.241,15.328-6.702,21.569-1.031c6.231,5.721,6.702,15.328,1.03,21.569l-64.52,70.993
	c-5.672,6.241-15.328,6.702-21.569,1.031C135.897,440.848,135.718,440.678,135.545,440.505z"/>
<path style="fill:#FFA918;" d="M71.594,376.554c-0.174-0.174-0.344-0.352-0.512-0.535c-5.671-6.241-5.21-15.897,1.031-21.569
	l70.993-64.52c6.239-5.671,15.863-5.216,21.569,1.03c5.671,6.241,5.21,15.897-1.031,21.569l-70.993,64.52
	C86.596,382.553,77.32,382.28,71.594,376.554z"/>
<path style="fill:#1B3359;" d="M496.892,15.011c-0.087-0.087-0.178-0.166-0.265-0.252L301.208,210.178l25.761,25.761
	c5.963,5.963,15.63,5.963,21.594,0l148.329-148.33C516.906,67.594,516.906,35.026,496.892,15.011z"/>
<path style="fill:#FC1B5B;" d="M368.309,323.149c22.265-28.509,19.769-69.295-5.807-94.872l-39.697-39.697l-69.351,69.351
	l80.883,80.883c3.092,3.092,7.364,4.711,11.731,4.444c4.366-0.268,8.407-2.395,11.1-5.842L368.309,323.149z"/>
<g>
</g>
<g>
</g>
<g>
</g>
<g>
</g>
<g>
</g>
<g>
</g>
<g>
</g>
<g>
</g>
<g>
</g>
<g>
</g>
<g>
</g>
<g>
</g>
<g>
</g>
<g>
</g>
<g>
</g>
</svg>
