<?xml version="1.0" encoding="UTF-8" standalone="no"?>
<!-- Generator: Adobe Illustrator 19.0.0, SVG Export Plug-In . SVG Version: 6.00 Build 0)  -->

<svg
   xmlns:dc="http://purl.org/dc/elements/1.1/"
   xmlns:cc="http://creativecommons.org/ns#"
   xmlns:rdf="http://www.w3.org/1999/02/22-rdf-syntax-ns#"
   xmlns:svg="http://www.w3.org/2000/svg"
   xmlns="http://www.w3.org/2000/svg"
   xmlns:sodipodi="http://sodipodi.sourceforge.net/DTD/sodipodi-0.dtd"
   xmlns:inkscape="http://www.inkscape.org/namespaces/inkscape"
   version="1.1"
   id="Capa_1"
   x="0px"
   y="0px"
   viewBox="0 0 36 36"
   style="enable-background:new 0 0 36 36;"
   xml:space="preserve"
   width="512px"
   height="512px"
   sodipodi:docname="forward_to.svg"
   inkscape:version="0.92.3 (2405546, 2018-03-11)"><metadata
     id="metadata39"><rdf:RDF><cc:Work
         rdf:about=""><dc:format>image/svg+xml</dc:format><dc:type
           rdf:resource="http://purl.org/dc/dcmitype/StillImage" /><dc:title></dc:title></cc:Work></rdf:RDF></metadata><defs
     id="defs37" /><sodipodi:namedview
     pagecolor="#ffffff"
     bordercolor="#666666"
     borderopacity="1"
     objecttolerance="10"
     gridtolerance="10"
     guidetolerance="10"
     inkscape:pageopacity="0"
     inkscape:pageshadow="2"
     inkscape:window-width="1920"
     inkscape:window-height="1137"
     id="namedview35"
     showgrid="false"
     inkscape:zoom="0.92187499"
     inkscape:cx="416.12802"
     inkscape:cy="149.61668"
     inkscape:window-x="1272"
     inkscape:window-y="-8"
     inkscape:window-maximized="1"
     inkscape:current-layer="skip-next" /><g
     id="g4" /><g
     id="g6" /><g
     id="g8" /><g
     id="g10" /><g
     id="g12" /><g
     id="g14" /><g
     id="g16" /><g
     id="g18" /><g
     id="g20" /><g
     id="g22" /><g
     id="g24" /><g
     id="g26" /><g
     id="g28" /><g
     id="g30" /><g
     id="g32" /><g
     id="skip-next"
     transform="matrix(0.08379547,0,0,0.08379547,5.1681916,5.1549695)"><g
       id="g107"
       transform="matrix(0.87506969,0,0,0.87506969,-43.668122,19.150601)"><path
         sodipodi:nodetypes="cccc"
         inkscape:connector-curvature="0"
         d="m 0,306.29027 216.75,-153 L 0,0.29027333 Z"
         id="path2-0" /><path
         sodipodi:nodetypes="ccccc"
         inkscape:connector-curvature="0"
         d="M 398.79413,0.29027343 V 306.29027 h 51 V 0.29027343 Z"
         id="path2-0-3"
         style="stroke-width:1" /><path
         sodipodi:nodetypes="cccc"
         inkscape:connector-curvature="0"
         d="M 198.04755,306.29028 414.79754,153.29027 198.04755,0.29026723 Z"
         id="path2-0-5"
         style="stroke-width:1" /></g></g><g
     id="g7"
     transform="matrix(0.08379547,0,0,0.08379547,5.1681916,5.1549695)" /><g
     id="g9"
     transform="matrix(0.08379547,0,0,0.08379547,5.1681916,5.1549695)" /><g
     id="g11"
     transform="matrix(0.08379547,0,0,0.08379547,5.1681916,5.1549695)" /><g
     id="g13"
     transform="matrix(0.08379547,0,0,0.08379547,5.1681916,5.1549695)" /><g
     id="g15"
     transform="matrix(0.08379547,0,0,0.08379547,5.1681916,5.1549695)" /><g
     id="g17"
     transform="matrix(0.08379547,0,0,0.08379547,5.1681916,5.1549695)" /><g
     id="g19"
     transform="matrix(0.08379547,0,0,0.08379547,5.1681916,5.1549695)" /><g
     id="g21"
     transform="matrix(0.08379547,0,0,0.08379547,5.1681916,5.1549695)" /><g
     id="g23"
     transform="matrix(0.08379547,0,0,0.08379547,5.1681916,5.1549695)" /><g
     id="g25"
     transform="matrix(0.08379547,0,0,0.08379547,5.1681916,5.1549695)" /><g
     id="g27"
     transform="matrix(0.08379547,0,0,0.08379547,5.1681916,5.1549695)" /><g
     id="g29"
     transform="matrix(0.08379547,0,0,0.08379547,5.1681916,5.1549695)" /><g
     id="g31"
     transform="matrix(0.08379547,0,0,0.08379547,5.1681916,5.1549695)" /><g
     id="g33"
     transform="matrix(0.08379547,0,0,0.08379547,5.1681916,5.1549695)" /><g
     id="g35"
     transform="matrix(0.08379547,0,0,0.08379547,5.1681916,5.1549695)" /></svg>