<?xml version="1.0" encoding="UTF-8" standalone="no"?>
<!-- Generator: Adobe Illustrator 19.0.0, SVG Export Plug-In . SVG Version: 6.00 Build 0)  -->

<svg
   xmlns:dc="http://purl.org/dc/elements/1.1/"
   xmlns:cc="http://creativecommons.org/ns#"
   xmlns:rdf="http://www.w3.org/1999/02/22-rdf-syntax-ns#"
   xmlns:svg="http://www.w3.org/2000/svg"
   xmlns="http://www.w3.org/2000/svg"
   xmlns:sodipodi="http://sodipodi.sourceforge.net/DTD/sodipodi-0.dtd"
   xmlns:inkscape="http://www.inkscape.org/namespaces/inkscape"
   version="1.1"
   id="Capa_1"
   x="0px"
   y="0px"
   viewBox="0 0 36 36"
   style="enable-background:new 0 0 36 36;"
   xml:space="preserve"
   width="512px"
   height="512px"
   sodipodi:docname="play_previous.svg"
   inkscape:version="0.92.3 (2405546, 2018-03-11)"><metadata
     id="metadata39"><rdf:RDF><cc:Work
         rdf:about=""><dc:format>image/svg+xml</dc:format><dc:type
           rdf:resource="http://purl.org/dc/dcmitype/StillImage" /><dc:title></dc:title></cc:Work></rdf:RDF></metadata><defs
     id="defs37" /><sodipodi:namedview
     pagecolor="#ffffff"
     bordercolor="#666666"
     borderopacity="1"
     objecttolerance="10"
     gridtolerance="10"
     guidetolerance="10"
     inkscape:pageopacity="0"
     inkscape:pageshadow="2"
     inkscape:window-width="1920"
     inkscape:window-height="1137"
     id="namedview35"
     showgrid="false"
     inkscape:zoom="0.65186406"
     inkscape:cx="-87.879191"
     inkscape:cy="7.5119137"
     inkscape:window-x="1272"
     inkscape:window-y="-8"
     inkscape:window-maximized="1"
     inkscape:current-layer="Capa_1" /><g
     id="g4"
     transform="rotate(-180,17.988899,17.975676)" /><g
     id="g6"
     transform="rotate(-180,17.988899,17.975676)" /><g
     id="g8"
     transform="rotate(-180,17.988899,17.975676)" /><g
     id="g10"
     transform="rotate(-180,17.988899,17.975676)" /><g
     id="g12"
     transform="rotate(-180,17.988899,17.975676)" /><g
     id="g14"
     transform="rotate(-180,17.988899,17.975676)" /><g
     id="g16"
     transform="rotate(-180,17.988899,17.975676)" /><g
     id="g18"
     transform="rotate(-180,17.988899,17.975676)" /><g
     id="g20"
     transform="rotate(-180,17.988899,17.975676)" /><g
     id="g22"
     transform="rotate(-180,17.988899,17.975676)" /><g
     id="g24"
     transform="rotate(-180,17.988899,17.975676)" /><g
     id="g26"
     transform="rotate(-180,17.988899,17.975676)" /><g
     id="g28"
     transform="rotate(-180,17.988899,17.975676)" /><g
     id="g30"
     transform="rotate(-180,17.988899,17.975676)" /><g
     id="g32"
     transform="rotate(-180,17.988899,17.975676)" /><g
     id="g5"
     transform="matrix(-0.08379547,0,0,-0.08379547,30.809605,30.796383)"><g
       id="skip-next"><path
         inkscape:connector-curvature="0"
         d="M 0,306 216.75,153 0,0 Z M 255,0 v 306 h 51 V 0 Z"
         id="path2-0" /></g></g><g
     id="g7"
     transform="matrix(-0.08379547,0,0,-0.08379547,30.809605,30.796383)" /><g
     id="g9"
     transform="matrix(-0.08379547,0,0,-0.08379547,30.809605,30.796383)" /><g
     id="g11"
     transform="matrix(-0.08379547,0,0,-0.08379547,30.809605,30.796383)" /><g
     id="g13"
     transform="matrix(-0.08379547,0,0,-0.08379547,30.809605,30.796383)" /><g
     id="g15"
     transform="matrix(-0.08379547,0,0,-0.08379547,30.809605,30.796383)" /><g
     id="g17"
     transform="matrix(-0.08379547,0,0,-0.08379547,30.809605,30.796383)" /><g
     id="g19"
     transform="matrix(-0.08379547,0,0,-0.08379547,30.809605,30.796383)" /><g
     id="g21"
     transform="matrix(-0.08379547,0,0,-0.08379547,30.809605,30.796383)" /><g
     id="g23"
     transform="matrix(-0.08379547,0,0,-0.08379547,30.809605,30.796383)" /><g
     id="g25"
     transform="matrix(-0.08379547,0,0,-0.08379547,30.809605,30.796383)" /><g
     id="g27"
     transform="matrix(-0.08379547,0,0,-0.08379547,30.809605,30.796383)" /><g
     id="g29"
     transform="matrix(-0.08379547,0,0,-0.08379547,30.809605,30.796383)" /><g
     id="g31"
     transform="matrix(-0.08379547,0,0,-0.08379547,30.809605,30.796383)" /><g
     id="g33"
     transform="matrix(-0.08379547,0,0,-0.08379547,30.809605,30.796383)" /><g
     id="g35"
     transform="matrix(-0.08379547,0,0,-0.08379547,30.809605,30.796383)" /></svg>