<?xml version="1.0" encoding="iso-8859-1"?>
<!-- Generator: Adobe Illustrator 16.0.0, SVG Export Plug-In . SVG Version: 6.00 Build 0)  -->
<!DOCTYPE svg PUBLIC "-//W3C//DTD SVG 1.1//EN" "http://www.w3.org/Graphics/SVG/1.1/DTD/svg11.dtd">
<svg version="1.1" id="Capa_1" xmlns="http://www.w3.org/2000/svg" xmlns:xlink="http://www.w3.org/1999/xlink" x="0px" y="0px"
	 width="854.801px" height="854.801px" viewBox="0 0 854.801 854.801" style="enable-background:new 0 0 854.801 854.801;"
	 xml:space="preserve">
<g>
	<path d="M50.65,306.8V548c0,11,9,20,20,20h61.3V286.8h-61.3C59.65,286.8,50.65,295.7,50.65,306.8z"/>
	<path d="M323.45,568h460.7c11,0,20-9,20-20V306.8c0-11-9-20-20-20h-460.7V568z"/>
	<path d="M338.351,0c-38.5,0-75.601,14.2-104.3,40l-6.3,5.7l-6.3-5.7c-28.7-25.8-65.8-40-104.3-40c-25.1,0-45.5,20.7-45.1,45.9
		c0.4,24.7,21.2,44,45.9,44.3c32.2,0.4,59.2,23.6,64.3,55.5v563.4c-5.1,31.9-32.1,55.1-64.3,55.5c-24.7,0.301-45.5,19.6-45.9,44.301
		c-0.4,25.199,20,45.9,45.1,45.9c38.5,0,75.6-14.201,104.3-40l6.3-5.701l6.3,5.701c28.7,25.799,65.8,40,104.3,40
		c25.1,0,45.5-20.701,45.1-45.9c-0.4-24.701-21.2-44-45.9-44.301c-32.199-0.4-59.199-23.6-64.3-55.5V145.7
		c5.101-31.9,32.101-55.1,64.3-55.5c24.7-0.3,45.5-19.6,45.9-44.3C383.851,20.6,363.45,0,338.351,0z"/>
</g>
<g>
</g>
<g>
</g>
<g>
</g>
<g>
</g>
<g>
</g>
<g>
</g>
<g>
</g>
<g>
</g>
<g>
</g>
<g>
</g>
<g>
</g>
<g>
</g>
<g>
</g>
<g>
</g>
<g>
</g>
</svg>
