<?xml version="1.0" encoding="UTF-8" standalone="no"?>
<!-- Created with Inkscape (http://www.inkscape.org/) -->

<svg
   xmlns:dc="http://purl.org/dc/elements/1.1/"
   xmlns:cc="http://creativecommons.org/ns#"
   xmlns:rdf="http://www.w3.org/1999/02/22-rdf-syntax-ns#"
   xmlns:svg="http://www.w3.org/2000/svg"
   xmlns="http://www.w3.org/2000/svg"
   xmlns:sodipodi="http://sodipodi.sourceforge.net/DTD/sodipodi-0.dtd"
   xmlns:inkscape="http://www.inkscape.org/namespaces/inkscape"
   width="512"
   height="512"
   viewBox="0 0 135.46666 135.46666"
   version="1.1"
   id="svg8"
   sodipodi:docname="update_from_cloud.svg"
   inkscape:version="0.92.3 (2405546, 2018-03-11)">
  <defs
     id="defs2">
    <clipPath
       id="clipEmfPath1"
       clipPathUnits="userSpaceOnUse">
      <path
         inkscape:connector-curvature="0"
         id="path5723"
         d="M -89.199339,-108.0792 H 704.55478 V 1014.4725 H -89.199339" />
    </clipPath>
  </defs>
  <sodipodi:namedview
     id="base"
     pagecolor="#ffffff"
     bordercolor="#666666"
     borderopacity="1.0"
     inkscape:pageopacity="0.0"
     inkscape:pageshadow="2"
     inkscape:zoom="0.25"
     inkscape:cx="-1321.4238"
     inkscape:cy="176.92476"
     inkscape:document-units="mm"
     inkscape:current-layer="layer1"
     showgrid="true"
     units="px"
     inkscape:window-width="1920"
     inkscape:window-height="1137"
     inkscape:window-x="-8"
     inkscape:window-y="-8"
     inkscape:window-maximized="1">
    <inkscape:grid
       type="xygrid"
       id="grid4518"
       spacingx="2.1166666"
       spacingy="2.1166666"
       empspacing="4" />
  </sodipodi:namedview>
  <metadata
     id="metadata5">
    <rdf:RDF>
      <cc:Work
         rdf:about="">
        <dc:format>image/svg+xml</dc:format>
        <dc:type
           rdf:resource="http://purl.org/dc/dcmitype/StillImage" />
        <dc:title />
      </cc:Work>
    </rdf:RDF>
  </metadata>
  <g
     inkscape:label="Ebene 1"
     inkscape:groupmode="layer"
     id="layer1"
     transform="translate(0,-161.53336)">
    <path
       style="opacity:1;fill:#2189ff;fill-opacity:1;stroke:#005ac0;stroke-width:7.93599701;stroke-linecap:butt;stroke-linejoin:round;stroke-miterlimit:10;stroke-dasharray:none;stroke-opacity:1;paint-order:normal"
       d="m 80.472098,165.50136 a 34.764921,34.764921 0 0 0 -31.092608,19.30591 19.926667,19.926667 0 0 0 -10.539826,-3.04446 19.926667,19.926667 0 0 0 -19.926667,19.92667 19.926667,19.926667 0 0 0 0.799305,5.5494 c -9.201516,3.32376 -15.7443056,12.11466 -15.7443056,22.49048 0,13.24724 10.6647536,23.912 23.9120006,23.912 h 79.706663 c 13.24726,0 23.91201,-10.66476 23.91201,-23.912 0,-10.80759 -7.09862,-19.8952 -16.90653,-22.87627 a 34.764921,34.764921 0 0 0 0.64508,-6.58659 34.764921,34.764921 0 0 0 -34.765122,-34.76514 z"
       id="rect819"
       inkscape:connector-curvature="0" />
    <circle
       style="fill:#adf3e7;fill-opacity:1;stroke:#0c5447;stroke-width:4.23333311;stroke-miterlimit:4;stroke-dasharray:none;stroke-opacity:1"
       id="path833"
       cx="67.73333"
       cy="250.43336"
       r="44.449997" />
    <path
       transform="matrix(0.12033898,0,0,0.12033898,36.801565,220.08576)"
       inkscape:connector-curvature="0"
       style="fill:#c00000;fill-opacity:1;stroke:none;stroke-width:31.33939362;stroke-linecap:butt;stroke-linejoin:round;stroke-miterlimit:4;stroke-dasharray:none;stroke-opacity:1"
       clip-path="url(#clipEmfPath1)"
       d="M 255.4707,26.703125 C 211.30873,26.210908 166.52922,38.448336 126.86914,64.619141 21.108936,134.40795 -7.9704518,276.78667 61.818359,382.54688 131.60717,488.09168 273.77107,517.38452 379.53125,447.5957 l -54.71094,-83.14258 c -1.93859,1.2924 -3.66297,2.36832 -5.60156,3.44532 -61.8191,36.40219 -141.30094,15.94019 -177.70313,-45.87891 -36.61758,-61.6037 -15.93963,-141.30092 45.66407,-177.70312 52.13034,-30.69697 116.97375,-20.95559 157.84765,19.92187 l -56.82617,56.75977 202.04297,20.67773 -20.67773,-201.828124 -54.13282,54.06836 C 372.3207,50.722381 314.4466,27.360454 255.4707,26.703125 Z"
       id="path5735" />
  </g>
</svg>
