<?xml version="1.0" encoding="UTF-8" standalone="no"?>
<!-- Generator: Adobe Illustrator 19.0.0, SVG Export Plug-In . SVG Version: 6.00 Build 0)  -->

<svg
   xmlns:dc="http://purl.org/dc/elements/1.1/"
   xmlns:cc="http://creativecommons.org/ns#"
   xmlns:rdf="http://www.w3.org/1999/02/22-rdf-syntax-ns#"
   xmlns:svg="http://www.w3.org/2000/svg"
   xmlns="http://www.w3.org/2000/svg"
   xmlns:sodipodi="http://sodipodi.sourceforge.net/DTD/sodipodi-0.dtd"
   xmlns:inkscape="http://www.inkscape.org/namespaces/inkscape"
   version="1.1"
   id="Layer_1"
   x="0px"
   y="0px"
   viewBox="0 0 512 512"
   style="enable-background:new 0 0 512 512;"
   xml:space="preserve"
   sodipodi:docname="add_original.svg"
   inkscape:version="0.92.2 (5c3e80d, 2017-08-06)"><metadata
     id="metadata41"><rdf:RDF><cc:Work
         rdf:about=""><dc:format>image/svg+xml</dc:format><dc:type
           rdf:resource="http://purl.org/dc/dcmitype/StillImage" /></cc:Work></rdf:RDF></metadata><defs
     id="defs39" /><sodipodi:namedview
     pagecolor="#ffffff"
     bordercolor="#666666"
     borderopacity="1"
     objecttolerance="10"
     gridtolerance="10"
     guidetolerance="10"
     inkscape:pageopacity="0"
     inkscape:pageshadow="2"
     inkscape:window-width="1920"
     inkscape:window-height="1138"
     id="namedview37"
     showgrid="false"
     inkscape:zoom="0.4609375"
     inkscape:cx="226.71186"
     inkscape:cy="256"
     inkscape:window-x="-6"
     inkscape:window-y="-6"
     inkscape:window-maximized="1"
     inkscape:current-layer="Layer_1" /><path
     style="fill:#18702e;fill-opacity:1"
     d="M488.727,186.182H325.818V23.273C325.818,10.418,315.398,0,302.545,0H256h-46.545  c-12.853,0-23.273,10.418-23.273,23.273v162.909H23.273C10.42,186.182,0,196.6,0,209.455v93.091  c0,12.853,10.42,23.273,23.273,23.273h162.909v162.909c0,12.853,10.42,23.273,23.273,23.273H256h46.545  c12.853,0,23.273-10.42,23.273-23.273V325.818h162.909c12.853,0,23.273-10.42,23.273-23.273v-93.091  C512,196.6,501.58,186.182,488.727,186.182z"
     id="path2" /><path
     style="fill:#38914f;fill-opacity:1"
     d="M209.455,0c-12.853,0-23.273,10.418-23.273,23.273v162.909H23.273C10.42,186.182,0,196.6,0,209.455  v93.091c0,12.853,10.42,23.273,23.273,23.273h162.909v162.909c0,12.853,10.42,23.273,23.273,23.273H256V0H209.455z"
     id="path4" /><g
     id="g6" /><g
     id="g8" /><g
     id="g10" /><g
     id="g12" /><g
     id="g14" /><g
     id="g16" /><g
     id="g18" /><g
     id="g20" /><g
     id="g22" /><g
     id="g24" /><g
     id="g26" /><g
     id="g28" /><g
     id="g30" /><g
     id="g32" /><g
     id="g34" /></svg>