<?xml version="1.0" encoding="iso-8859-1"?>
<!-- Generator: Adobe Illustrator 18.1.1, SVG Export Plug-In . SVG Version: 6.00 Build 0)  -->
<svg version="1.1" id="Capa_1" xmlns="http://www.w3.org/2000/svg" xmlns:xlink="http://www.w3.org/1999/xlink" x="0px" y="0px"
	 viewBox="0 0 55.699 55.699" style="enable-background:new 0 0 55.699 55.699;" xml:space="preserve">
<g>
	<path style="fill:#010002;" d="M51.51,18.001c-0.006-0.085-0.022-0.167-0.05-0.248c-0.012-0.034-0.02-0.067-0.035-0.1
		c-0.049-0.106-0.109-0.206-0.194-0.291v-0.001l0,0c0,0-0.001-0.001-0.001-0.002L34.161,0.293c-0.086-0.087-0.188-0.148-0.295-0.197
		c-0.027-0.013-0.057-0.02-0.086-0.03c-0.086-0.029-0.174-0.048-0.265-0.053C33.494,0.011,33.475,0,33.453,0H22.177
		c-3.678,0-6.669,2.992-6.669,6.67v1.674h-4.663c-3.678,0-6.67,2.992-6.67,6.67V49.03c0,3.678,2.992,6.669,6.67,6.669h22.677
		c3.677,0,6.669-2.991,6.669-6.669v-1.675h4.664c3.678,0,6.669-2.991,6.669-6.669V18.069C51.524,18.045,51.512,18.025,51.51,18.001z
		 M34.454,3.414l13.655,13.655h-8.985c-2.575,0-4.67-2.095-4.67-4.67V3.414z M38.191,49.029c0,2.574-2.095,4.669-4.669,4.669H10.845
		c-2.575,0-4.67-2.095-4.67-4.669V15.014c0-2.575,2.095-4.67,4.67-4.67h5.663h4.614v10.399c0,3.678,2.991,6.669,6.668,6.669h10.4
		v18.942L38.191,49.029L38.191,49.029z M36.777,25.412h-8.986c-2.574,0-4.668-2.094-4.668-4.669v-8.985L36.777,25.412z
		 M44.855,45.355h-4.664V26.412c0-0.023-0.012-0.044-0.014-0.067c-0.006-0.085-0.021-0.167-0.049-0.249
		c-0.012-0.033-0.021-0.066-0.036-0.1c-0.048-0.105-0.109-0.205-0.194-0.29l0,0l0,0c0-0.001-0.001-0.002-0.001-0.002L22.829,8.637
		c-0.087-0.086-0.188-0.147-0.295-0.196c-0.029-0.013-0.058-0.021-0.088-0.031c-0.086-0.03-0.172-0.048-0.263-0.053
		c-0.021-0.002-0.04-0.013-0.062-0.013h-4.614V6.67c0-2.575,2.095-4.67,4.669-4.67h10.277v10.4c0,3.678,2.992,6.67,6.67,6.67h10.399
		v21.616C49.524,43.26,47.429,45.355,44.855,45.355z"/>
</g>
<g>
</g>
<g>
</g>
<g>
</g>
<g>
</g>
<g>
</g>
<g>
</g>
<g>
</g>
<g>
</g>
<g>
</g>
<g>
</g>
<g>
</g>
<g>
</g>
<g>
</g>
<g>
</g>
<g>
</g>
</svg>
