<?xml version="1.0" encoding="UTF-8" standalone="no"?>
<!-- Generator: Adobe Illustrator 19.0.0, SVG Export Plug-In . SVG Version: 6.00 Build 0)  -->

<svg
   xmlns:dc="http://purl.org/dc/elements/1.1/"
   xmlns:cc="http://creativecommons.org/ns#"
   xmlns:rdf="http://www.w3.org/1999/02/22-rdf-syntax-ns#"
   xmlns:svg="http://www.w3.org/2000/svg"
   xmlns="http://www.w3.org/2000/svg"
   xmlns:sodipodi="http://sodipodi.sourceforge.net/DTD/sodipodi-0.dtd"
   xmlns:inkscape="http://www.inkscape.org/namespaces/inkscape"
   version="1.1"
   id="Layer_1"
   x="0px"
   y="0px"
   viewBox="0 0 512 512"
   style="enable-background:new 0 0 512 512;"
   xml:space="preserve"
   sodipodi:docname="error.svg"
   inkscape:version="0.92.3 (2405546, 2018-03-11)"><metadata
   id="metadata57"><rdf:RDF><cc:Work
       rdf:about=""><dc:format>image/svg+xml</dc:format><dc:type
         rdf:resource="http://purl.org/dc/dcmitype/StillImage" /></cc:Work></rdf:RDF></metadata><defs
   id="defs55" /><sodipodi:namedview
   pagecolor="#ffffff"
   bordercolor="#666666"
   borderopacity="1"
   objecttolerance="10"
   gridtolerance="10"
   guidetolerance="10"
   inkscape:pageopacity="0"
   inkscape:pageshadow="2"
   inkscape:window-width="1920"
   inkscape:window-height="1137"
   id="namedview53"
   showgrid="false"
   inkscape:zoom="0.65186406"
   inkscape:cx="195.19507"
   inkscape:cy="473.94601"
   inkscape:window-x="1912"
   inkscape:window-y="-8"
   inkscape:window-maximized="1"
   inkscape:current-layer="Layer_1" />
<path
   style="fill:#333333"
   d="M501.461,383.799L320.501,51.401C306.7,28.6,282.7,14.8,256,14.8s-50.7,13.8-64.501,36.601  L10.539,383.799C-3.259,407.501-3.56,435.701,9.941,459.4c13.499,23.699,37.798,37.8,65.099,37.8h361.92  c27.301,0,51.601-14.101,65.099-37.8C515.56,435.701,515.259,407.501,501.461,383.799z"
   id="path2" />
<path
   style="fill:#000000"
   d="M502.059,459.4c-13.499,23.699-37.798,37.8-65.099,37.8H256V14.8c26.7,0,50.7,13.801,64.501,36.601  L501.461,383.8C515.259,407.501,515.56,435.701,502.059,459.4z"
   id="path4" />
<path
   style="fill:#d40000"
   d="M475.661,399.1L294.699,66.699C286.601,52.9,271.901,44.8,256,44.8s-30.601,8.101-38.699,21.899  L36.339,399.1c-8.399,14.101-8.399,31.199-0.298,45.3c8.099,14.399,22.798,22.8,39,22.8h361.92c16.201,0,30.901-8.401,39-22.8  C484.06,430.299,484.06,413.201,475.661,399.1z"
   id="path6" />
<path
   style="fill:#aa0000"
   d="M475.96,444.4c-8.099,14.399-22.798,22.8-39,22.8H256V44.8c15.901,0,30.601,8.101,38.699,21.899  L475.661,399.1C484.06,413.201,484.06,430.299,475.96,444.4z"
   id="path8" />
<g
   id="g14"
   style="fill:#ececec">
	<path
   style="fill:#ececec"
   d="M256,437.2c-16.538,0-30-13.462-30-30s13.462-30,30-30s30,13.462,30,30S272.538,437.2,256,437.2z"
   id="path10" />
	<path
   style="fill:#ececec"
   d="M286,317.2c0,16.538-13.462,30-30,30s-30-13.462-30-30v-150c0-16.538,13.462-30,30-30   s30,13.462,30,30V317.2z"
   id="path12" />
</g>
<g
   id="g20"
   style="fill:#cccccc">
	<path
   style="fill:#cccccc"
   d="M286,407.2c0-16.538-13.462-30-30-30v60C272.538,437.2,286,423.738,286,407.2z"
   id="path16" />
	<path
   style="fill:#cccccc"
   d="M286,317.2v-150c0-16.538-13.462-30-30-30v210C272.538,347.2,286,333.738,286,317.2z"
   id="path18" />
</g>
<g
   id="g22">
</g>
<g
   id="g24">
</g>
<g
   id="g26">
</g>
<g
   id="g28">
</g>
<g
   id="g30">
</g>
<g
   id="g32">
</g>
<g
   id="g34">
</g>
<g
   id="g36">
</g>
<g
   id="g38">
</g>
<g
   id="g40">
</g>
<g
   id="g42">
</g>
<g
   id="g44">
</g>
<g
   id="g46">
</g>
<g
   id="g48">
</g>
<g
   id="g50">
</g>
</svg>