<?xml version="1.0" encoding="UTF-8" standalone="no"?>
<!-- Generator: Adobe Illustrator 19.0.0, SVG Export Plug-In . SVG Version: 6.00 Build 0)  -->

<svg
   xmlns:dc="http://purl.org/dc/elements/1.1/"
   xmlns:cc="http://creativecommons.org/ns#"
   xmlns:rdf="http://www.w3.org/1999/02/22-rdf-syntax-ns#"
   xmlns:svg="http://www.w3.org/2000/svg"
   xmlns="http://www.w3.org/2000/svg"
   xmlns:sodipodi="http://sodipodi.sourceforge.net/DTD/sodipodi-0.dtd"
   xmlns:inkscape="http://www.inkscape.org/namespaces/inkscape"
   version="1.1"
   id="Capa_1"
   x="0px"
   y="0px"
   viewBox="0 0 512 512"
   style="enable-background:new 0 0 512 512;"
   xml:space="preserve"
   sodipodi:docname="import_from_cloud.svg"
   inkscape:version="0.92.3 (2405546, 2018-03-11)"><metadata
   id="metadata55"><rdf:RDF><cc:Work
       rdf:about=""><dc:format>image/svg+xml</dc:format><dc:type
         rdf:resource="http://purl.org/dc/dcmitype/StillImage" /><dc:title></dc:title></cc:Work></rdf:RDF></metadata><defs
   id="defs53" /><sodipodi:namedview
   pagecolor="#ffffff"
   bordercolor="#666666"
   borderopacity="1"
   objecttolerance="10"
   gridtolerance="10"
   guidetolerance="10"
   inkscape:pageopacity="0"
   inkscape:pageshadow="2"
   inkscape:window-width="1463"
   inkscape:window-height="839"
   id="namedview51"
   showgrid="false"
   inkscape:zoom="0.65186406"
   inkscape:cx="342.60469"
   inkscape:cy="324.774"
   inkscape:window-x="2043"
   inkscape:window-y="180"
   inkscape:window-maximized="0"
   inkscape:current-layer="Capa_1" />

<path
   inkscape:connector-curvature="0"
   style="fill:#0581b3;fill-opacity:1"
   d="m 432.079,108.45578 c -1.097,-43.628005 -43.746,-74.434005 -85.721,-61.263005 -43.883,-62.865 -136.789,-62.926 -180.712,0 -41.965,-13.166 -84.622,17.621 -85.722,61.261005 C 33.793,121.59677 0,164.01977 0,214.36577 c 0,60.827 49.313,110.141 110.144,110.141 11.492,0 275.213,0 291.713,0 60.83,0 110.143,-49.314 110.143,-110.141 0,-50.346 -33.792,-92.769 -79.921,-105.90999 z"
   id="path2" /><path
   inkscape:connector-curvature="0"
   style="fill:#04597e;fill-opacity:1"
   d="m 165.646,47.192775 c -41.965,-13.166 -84.622,17.621 -85.722,61.261005 C 33.793,121.59677 0,164.01977 0,214.36577 c 0,44.41701 26.298,82.69101 64.172,100.112 -69.512,-52.775 -53.004,-162.177 29.611,-191.51399 4.672,-2.131 6.732,-5.869 7.514,-10.854 0.006,-0.082 0.008,-0.134 0.008,-0.134 l 0.013,-0.002 c 5.567,-34.753005 37.951,-59.754005 74.048,-54.849005 7.569,0 13.333,-1.391 18.107,-6.88 0.016,-0.023 0.037,-0.054 0.037,-0.054 l 0.005,0.005 c 32.223,-37.001 84.733,-48.162 128.936,-27.856 -49.619,-37.637 -120.865,-26.636 -156.805,24.853 z"
   id="path4" />






<path
   inkscape:connector-curvature="0"
   style="fill:#848a8a;stroke-width:1.32494295;fill-opacity:1"
   d="m 422.93171,377.8608 -34.39685,-34.39685 c -11.34548,18.31336 -26.53065,33.58201 -45.06793,45.06794 l 34.39684,34.39684 z"
   id="path6" /><path
   inkscape:connector-curvature="0"
   style="fill:#636363;stroke-width:1.32494295;fill-opacity:1"
   d="m 365.38414,371.75943 c -6.85393,6.41935 -14.20869,11.99604 -21.91721,16.77246 l 34.39684,34.39684 19.3455,-19.34549 z"
   id="path8" /><path
   inkscape:connector-curvature="0"
   style="fill:#ea473b;stroke-width:1.32494295"
   d="m 375.13969,420.20597 82.45915,82.45915 c 12.44519,12.44651 32.62274,12.44651 45.06528,0 12.44784,-12.44519 12.44784,-32.62142 0,-45.06926 L 420.2063,375.13671 Z"
   id="path10" /><path
   inkscape:connector-curvature="0"
   style="fill:#d32622;stroke-width:1.32494295"
   d="m 473.94731,479.95825 -79.28061,-79.28061 -19.52701,19.52701 82.45915,82.45914 c 12.44519,12.44652 32.62274,12.44652 45.06528,0 4.84797,-4.84664 7.78139,-10.86851 8.85327,-17.14608 -12.05831,6.46174 -27.39584,4.6161 -37.57008,-5.55946 z"
   id="path12" /><circle
   style="fill:#acdfe7;stroke-width:1.32494295;fill-opacity:1"
   cx="271.84317"
   cy="271.84283"
   r="138.80103"
   id="circle14" /><path
   inkscape:connector-curvature="0"
   style="fill:#80c9d6;stroke-width:1.32494295;fill-opacity:1"
   d="m 212.81166,173.69239 c 22.11462,-22.11462 49.83508,-35.20373 78.58767,-39.27263 -41.72113,-5.90527 -85.61384,7.18252 -117.70396,39.27263 -54.20606,54.20607 -54.20606,142.09218 0,196.29692 32.09012,32.09144 75.98415,45.18055 117.70661,39.27396 C 179.07994,393.36395 131.60989,254.89417 212.81166,173.69239 Z"
   id="path16" /><path
   inkscape:connector-curvature="0"
   style="fill:#4e4e4e;stroke-width:1.32494295;fill-opacity:1"
   d="m 271.84317,420.86182 c -133.20711,0 -198.473798,-161.2959 -105.37271,-254.39434 58.23786,-58.24051 152.49828,-58.24316 210.74674,-0.001 58.1014,58.10404 58.1014,152.64402 0,210.74674 -28.14708,28.14841 -65.56877,43.64892 -105.37403,43.64892 z M 180.92029,180.91731 c -81.063985,81.06398 -22.82082,219.50859 90.92288,219.50859 114.11468,0 171.7126,-138.71887 90.9242,-219.50859 -50.25508,-50.25111 -131.59067,-50.25906 -181.84708,0 z"
   id="path18" />
<g
   id="g20">
</g>
<g
   id="g22">
</g>
<g
   id="g24">
</g>
<g
   id="g26">
</g>
<g
   id="g28">
</g>
<g
   id="g30">
</g>
<g
   id="g32">
</g>
<g
   id="g34">
</g>
<g
   id="g36">
</g>
<g
   id="g38">
</g>
<g
   id="g40">
</g>
<g
   id="g42">
</g>
<g
   id="g44">
</g>
<g
   id="g46">
</g>
<g
   id="g48">
</g>
</svg>