<?xml version="1.0" encoding="UTF-8" standalone="no"?>
<!-- Generator: Adobe Illustrator 19.0.0, SVG Export Plug-In . SVG Version: 6.00 Build 0)  -->

<svg
   xmlns:dc="http://purl.org/dc/elements/1.1/"
   xmlns:cc="http://creativecommons.org/ns#"
   xmlns:rdf="http://www.w3.org/1999/02/22-rdf-syntax-ns#"
   xmlns:svg="http://www.w3.org/2000/svg"
   xmlns="http://www.w3.org/2000/svg"
   xmlns:sodipodi="http://sodipodi.sourceforge.net/DTD/sodipodi-0.dtd"
   xmlns:inkscape="http://www.inkscape.org/namespaces/inkscape"
   version="1.1"
   id="Capa_1"
   x="0px"
   y="0px"
   viewBox="0 0 480 480"
   style="enable-background:new 0 0 480 480;"
   xml:space="preserve"
   sodipodi:docname="info.svg"
   inkscape:version="0.92.3 (2405546, 2018-03-11)"><metadata
   id="metadata57"><rdf:RDF><cc:Work
       rdf:about=""><dc:format>image/svg+xml</dc:format><dc:type
         rdf:resource="http://purl.org/dc/dcmitype/StillImage" /></cc:Work></rdf:RDF></metadata><defs
   id="defs55">
	
	
	
	
</defs><sodipodi:namedview
   pagecolor="#ffffff"
   bordercolor="#666666"
   borderopacity="1"
   objecttolerance="10"
   gridtolerance="10"
   guidetolerance="10"
   inkscape:pageopacity="0"
   inkscape:pageshadow="2"
   inkscape:window-width="1920"
   inkscape:window-height="1137"
   id="namedview53"
   showgrid="false"
   inkscape:zoom="0.98333333"
   inkscape:cx="-28.466701"
   inkscape:cy="186.43131"
   inkscape:window-x="1912"
   inkscape:window-y="-8"
   inkscape:window-maximized="1"
   inkscape:current-layer="Capa_1" />
<rect
   style="opacity:1;fill:#ffffff;fill-opacity:1;stroke:none;stroke-width:2;stroke-miterlimit:4;stroke-dasharray:none;stroke-opacity:1"
   id="rect835"
   width="178.98305"
   height="354.91525"
   x="157.62712"
   y="61.016949"
   ry="2.54176" /><g
   id="g4"
   style="fill:#2d2d9c;fill-opacity:1">
		<path
   inkscape:connector-curvature="0"
   id="path2"
   d="M 240,18 C 117.393,18 18,117.393 18,240 18,362.607 117.393,462 240,462 362.607,462 462,362.607 462,240 462,117.393 362.607,18 240,18 Z m 35.445,174.57 -31.468,172.73 c -0.633,3.206 0.352,6.392 2.68,8.815 2.328,2.43 5.734,3.824 9.344,3.824 4.422,0 8,3.144 8,7.03 0,3.886 -3.578,7.03 -8,7.03 h -35.852 c -9.383,0 -18.258,-3.598 -24.352,-9.873 -6.086,-6.282 -8.727,-14.555 -7.242,-22.697 l 31.469,-172.73 c 0.633,-3.206 -0.352,-6.392 -2.68,-8.815 -2.328,-2.43 -5.734,-3.824 -9.344,-3.824 -4.422,0 -8,-3.144 -8,-7.03 0,-3.886 3.578,-7.03 8,-7.03 h 35.852 c 9.383,0 18.258,3.598 24.352,9.873 6.085,6.282 8.726,14.555 7.241,22.697 z M 260,136 c -15.438,0 -28,-12.563 -28,-28 0,-15.437 12.563,-28 28,-28 15.437,0 28,12.563 28,28 0,15.437 -12.562,28 -28,28 z"
   style="fill:#2d2d9c;fill-opacity:1" />
	</g><g
   id="g8"
   style="fill:#121286;fill-opacity:1">
		<path
   inkscape:connector-curvature="0"
   id="path6"
   d="m 240,480 c 66.274,0 126.274,-26.863 169.706,-70.294 L 262.673,262.673 243.977,365.3 c -0.633,3.206 0.352,6.392 2.68,8.815 2.328,2.43 5.734,3.824 9.344,3.824 4.422,0 8,3.144 8,7.03 0,3.886 -3.578,7.03 -8,7.03 h -35.852 c -9.383,0 -18.258,-3.598 -24.352,-9.873 -6.086,-6.282 -8.727,-14.555 -7.242,-22.698 L 214.888,214.886 70.294,70.294 C 26.863,113.726 0,173.726 0,240 0,372.548 107.452,480 240,480 Z"
   style="fill:#121286;fill-opacity:1" />
	</g><g
   id="g14">
		<g
   id="g12">
			<path
   inkscape:connector-curvature="0"
   id="path10"
   d="M 240,480 C 107.664,480 0,372.336 0,240 0,107.664 107.664,0 240,0 372.336,0 480,107.664 480,240 480,372.336 372.336,480 240,480 Z M 240,32 C 125.305,32 32,125.305 32,240 32,354.695 125.305,448 240,448 354.695,448 448,354.695 448,240 448,125.305 354.695,32 240,32 Z"
   style="fill:#d7dbe0" />
		</g>
	</g><g
   id="g18">
		<path
   inkscape:connector-curvature="0"
   id="path16"
   d="m 240,480 c 66.168,0 126.168,-26.916 169.626,-70.374 L 387.011,387.011 C 349.348,424.674 297.348,448 240,448 125.305,448 32,354.695 32,240 32,182.652 55.326,130.652 92.989,92.989 L 70.374,70.374 C 26.916,113.832 0,173.832 0,240 0,372.336 107.664,480 240,480 Z"
   style="fill:#b8bac0" />
	</g>
<g
   id="g22">
</g>
<g
   id="g24">
</g>
<g
   id="g26">
</g>
<g
   id="g28">
</g>
<g
   id="g30">
</g>
<g
   id="g32">
</g>
<g
   id="g34">
</g>
<g
   id="g36">
</g>
<g
   id="g38">
</g>
<g
   id="g40">
</g>
<g
   id="g42">
</g>
<g
   id="g44">
</g>
<g
   id="g46">
</g>
<g
   id="g48">
</g>
<g
   id="g50">
</g>
</svg>