<?xml version="1.0" encoding="iso-8859-1"?>
<!-- Generator: Adobe Illustrator 19.0.0, SVG Export Plug-In . SVG Version: 6.00 Build 0)  -->
<svg version="1.1" id="Capa_1" xmlns="http://www.w3.org/2000/svg" xmlns:xlink="http://www.w3.org/1999/xlink" x="0px" y="0px"
	 viewBox="0 0 480 480" style="enable-background:new 0 0 480 480;" xml:space="preserve">
<g>
	<g>
		<path style="fill:#FF4F19;" d="M240,18C117.393,18,18,117.393,18,240s99.393,222,222,222s222-99.393,222-222S362.607,18,240,18z
			 M275.445,192.57L243.977,365.3c-0.633,3.206,0.352,6.392,2.68,8.815c2.328,2.43,5.734,3.824,9.344,3.824c4.422,0,8,3.144,8,7.03
			s-3.578,7.03-8,7.03h-35.852c-9.383,0-18.258-3.598-24.352-9.873c-6.086-6.282-8.727-14.555-7.242-22.697l31.469-172.73
			c0.633-3.206-0.352-6.392-2.68-8.815c-2.328-2.43-5.734-3.824-9.344-3.824c-4.422,0-8-3.144-8-7.03s3.578-7.03,8-7.03h35.852
			c9.383,0,18.258,3.598,24.352,9.873C274.289,176.155,276.93,184.428,275.445,192.57z M260,136c-15.438,0-28-12.563-28-28
			s12.563-28,28-28s28,12.563,28,28S275.438,136,260,136z"/>
	</g>
	<g>
		<path style="fill:#E7001E;" d="M240,480c66.274,0,126.274-26.863,169.706-70.294L262.673,262.673L243.977,365.3
			c-0.633,3.206,0.352,6.392,2.68,8.815c2.328,2.43,5.734,3.824,9.344,3.824c4.422,0,8,3.144,8,7.03c0,3.886-3.578,7.03-8,7.03
			h-35.852c-9.383,0-18.258-3.598-24.352-9.873c-6.086-6.282-8.727-14.555-7.242-22.698l26.333-144.542L70.294,70.294
			C26.863,113.726,0,173.726,0,240C0,372.548,107.452,480,240,480z"/>
	</g>
	<g>
		<g>
			<path style="fill:#D7DBE0;" d="M240,480C107.664,480,0,372.336,0,240S107.664,0,240,0s240,107.664,240,240S372.336,480,240,480z
				 M240,32C125.305,32,32,125.305,32,240s93.305,208,208,208s208-93.305,208-208S354.695,32,240,32z"/>
		</g>
	</g>
	<g>
		<path style="fill:#B8BAC0;" d="M240,480c66.168,0,126.168-26.916,169.626-70.374l-22.615-22.615
			C349.348,424.674,297.348,448,240,448c-114.695,0-208-93.305-208-208c0-57.348,23.326-109.348,60.989-147.011L70.374,70.374
			C26.916,113.832,0,173.832,0,240C0,372.336,107.664,480,240,480z"/>
	</g>
</g>
<g>
</g>
<g>
</g>
<g>
</g>
<g>
</g>
<g>
</g>
<g>
</g>
<g>
</g>
<g>
</g>
<g>
</g>
<g>
</g>
<g>
</g>
<g>
</g>
<g>
</g>
<g>
</g>
<g>
</g>
</svg>
