<?xml version="1.0" encoding="iso-8859-1"?>
<!-- Generator: Adobe Illustrator 19.0.0, SVG Export Plug-In . SVG Version: 6.00 Build 0)  -->
<svg version="1.1" id="Capa_1" xmlns="http://www.w3.org/2000/svg" xmlns:xlink="http://www.w3.org/1999/xlink" x="0px" y="0px"
	 viewBox="0 0 512 512" style="enable-background:new 0 0 512 512;" xml:space="preserve">
<path style="fill:#F01519;" d="M457.194,173.856l-58.777-20.906l-60.269-98.142l34.324-34.324c27.308-27.308,71.584-27.308,98.892,0
	l20.156,20.156c27.308,27.308,27.308,71.584,0,98.892L457.194,173.856z"/>
<path style="fill:#C60E17;" d="M497.433,47.548c-1.966-2.607-4.122-5.116-6.496-7.491l-18.991-18.991
	c-27.63-27.63-72.426-27.63-100.056,0l-33.742,33.742l32.979,32.979l33.742-33.742C430.123,28.79,469.712,26.635,497.433,47.548z"/>
<polygon style="fill:#F8C300;" points="175.533,455.517 109.963,424.641 56.485,336.469 294.006,98.949 396.321,172.505 
	413.053,217.997 "/>
<rect x="165.07" y="74.341" transform="matrix(-0.7071 -0.7071 0.7071 -0.7071 169.8057 554.9222)" style="fill:#D8A505;" width="69.521" height="335.905"/>
<rect x="200.005" y="109.277" transform="matrix(-0.7071 -0.7071 0.7071 -0.7071 204.7389 639.2658)" style="fill:#FCD351;" width="69.522" height="335.905"/>
<path style="fill:#D0DBDD;" d="M414.726,219.67L292.332,97.276c-5.356-5.356-5.356-14.037,0-19.393l24.749-24.749
	c5.356-5.356,14.037-5.356,19.393,0l122.394,122.394c5.356,5.356,5.356,14.037,0,19.393L434.12,219.67
	C428.764,225.025,420.082,225.025,414.726,219.67z"/>
<path style="fill:#FFCEB5;" d="M175.528,455.518l-61.633,22.433l-90.573,32.964c-8.005,2.908-15.859-0.345-20.095-6.289
	c-3.103-4.332-4.272-10.104-2.143-15.949l32.964-90.573l22.433-61.633L175.528,455.518z"/>
<path style="fill:#DBA189;" d="M3.227,504.628c-3.103-4.332-4.272-10.104-2.143-15.949l32.964-90.573l22.433-61.633l34.95,34.942
	L3.227,504.628z"/>
<path style="fill:#3E3D4C;" d="M113.894,477.951l-90.573,32.964c-8.597,3.125-17.03-0.855-20.987-7.645
	c-2.421-4.145-3.163-9.339-1.252-14.593l32.964-90.573L113.894,477.951z"/>
<path style="fill:#909899;" d="M331.577,116.9l24.52-24.52c5.418-5.418,14.203-5.418,19.621,0l-39.131-39.131
	c-5.418-5.418-14.203-5.418-19.621,0l-24.52,24.52c-5.418,5.418-5.418,14.203,0,19.621l39.131,39.131
	C326.16,131.102,326.159,122.319,331.577,116.9z"/>
<path style="fill:#2C3033;" d="M2.335,503.271c-2.421-4.145-3.163-9.339-1.252-14.593l32.964-90.573l23.892,23.892L2.335,503.271z"
	/>
<g>
</g>
<g>
</g>
<g>
</g>
<g>
</g>
<g>
</g>
<g>
</g>
<g>
</g>
<g>
</g>
<g>
</g>
<g>
</g>
<g>
</g>
<g>
</g>
<g>
</g>
<g>
</g>
<g>
</g>
</svg>
