<?xml version="1.0" encoding="iso-8859-1"?>
<!-- Generator: Adobe Illustrator 19.0.0, SVG Export Plug-In . SVG Version: 6.00 Build 0)  -->
<svg version="1.1" id="Capa_1" xmlns="http://www.w3.org/2000/svg" xmlns:xlink="http://www.w3.org/1999/xlink" x="0px" y="0px"
	 viewBox="0 0 512 512" style="enable-background:new 0 0 512 512;" xml:space="preserve">
<path style="fill:#AEADB3;" d="M301,0h-90c-24.901,0-45,20.099-45,45v30c0,8.399,6.599,15,15,15h150c8.401,0,15-6.601,15-15V45
	C346,20.099,325.901,0,301,0z M316,60H196V45c0-8.401,6.599-15,15-15h90c8.401,0,15,6.599,15,15V60z"/>
<path style="fill:#8B8892;" d="M346,45v30c0,8.399-6.599,15-15,15h-75V60h60V45c0-8.401-6.599-15-15-15h-45V0h45
	C325.901,0,346,20.099,346,45z"/>
<path style="fill:#C8C6CD;" d="M436,120H76c-8.699,0-15.601,7.5-15,16.199L88.599,470.9c1.8,23.101,21.301,41.1,44.7,41.1h245.402
	c23.399,0,42.9-17.999,44.7-41.1L451,136.199C451.601,127.5,444.699,120,436,120z"/>
<path style="fill:#AEADB3;" d="M451,136.199L423.401,470.9c-1.8,23.101-21.301,41.1-44.7,41.1H256V120h180
	C444.699,120,451.601,127.5,451,136.199z"/>
<path style="fill:#E5E5E5;" d="M436,60H76c-24.901,0-45,20.099-45,45v30c0,8.401,6.599,15,15,15h420c8.401,0,15-6.599,15-15v-30
	C481,80.099,460.901,60,436,60z"/>
<path style="fill:#AEADB3;" d="M271,195v212c0,9.901-7.5,15-15,15s-15-5.099-15-15V195c0-9.901,7.5-15,15-15S271,185.099,271,195z"
	/>
<path style="fill:#8B8892;" d="M331,407V195c0-19.773,30-19.854,30,0v212C361,426.773,331,426.854,331,407z"/>
<path style="fill:#AEADB3;" d="M151,407V195c0-19.773,30-19.854,30,0v212C181,426.773,151,426.854,151,407z"/>
<path style="fill:#8B8892;" d="M271,195v212c0,9.901-7.5,15-15,15V180C263.5,180,271,185.099,271,195z"/>
<path style="fill:#D9D9D9;" d="M481,105v30c0,8.401-6.599,15-15,15H256V60h180C460.901,60,481,80.099,481,105z"/>
<g>
</g>
<g>
</g>
<g>
</g>
<g>
</g>
<g>
</g>
<g>
</g>
<g>
</g>
<g>
</g>
<g>
</g>
<g>
</g>
<g>
</g>
<g>
</g>
<g>
</g>
<g>
</g>
<g>
</g>
</svg>
