<?xml version="1.0" encoding="UTF-8" standalone="no"?>
<!-- Generator: Adobe Illustrator 19.0.0, SVG Export Plug-In . SVG Version: 6.00 Build 0)  -->

<svg
   xmlns:dc="http://purl.org/dc/elements/1.1/"
   xmlns:cc="http://creativecommons.org/ns#"
   xmlns:rdf="http://www.w3.org/1999/02/22-rdf-syntax-ns#"
   xmlns:svg="http://www.w3.org/2000/svg"
   xmlns="http://www.w3.org/2000/svg"
   xmlns:sodipodi="http://sodipodi.sourceforge.net/DTD/sodipodi-0.dtd"
   xmlns:inkscape="http://www.inkscape.org/namespaces/inkscape"
   version="1.1"
   id="Capa_1"
   x="0px"
   y="0px"
   viewBox="0 0 512 512"
   style="enable-background:new 0 0 512 512;"
   xml:space="preserve"
   sodipodi:docname="save_as.svg"
   inkscape:version="0.92.2 (5c3e80d, 2017-08-06)"><metadata
     id="metadata57"><rdf:RDF><cc:Work
         rdf:about=""><dc:format>image/svg+xml</dc:format><dc:type
           rdf:resource="http://purl.org/dc/dcmitype/StillImage" /></cc:Work></rdf:RDF></metadata><defs
     id="defs55" /><sodipodi:namedview
     pagecolor="#ffffff"
     bordercolor="#666666"
     borderopacity="1"
     objecttolerance="10"
     gridtolerance="10"
     guidetolerance="10"
     inkscape:pageopacity="0"
     inkscape:pageshadow="2"
     inkscape:window-width="1920"
     inkscape:window-height="1138"
     id="namedview53"
     showgrid="false"
     inkscape:zoom="0.4609375"
     inkscape:cx="256"
     inkscape:cy="256"
     inkscape:window-x="1274"
     inkscape:window-y="-6"
     inkscape:window-maximized="1"
     inkscape:current-layer="Capa_1" /><polygon
     style="fill:#525263;"
     points="445.774,0.001 0.001,0.001 0.001,512 511.999,512 511.999,66.228 "
     id="polygon2" /><path
     style="fill:#C0C2D0;"
     d="M426.186,0v169.43c0,9.111-7.377,16.488-16.488,16.488H148.066c-9.101,0-16.488-7.377-16.488-16.488  V0H426.186z"
     id="path4" /><path
     style="fill:#DADBE0;"
     d="M426.186,0v169.43c0,9.111-7.377,16.488-16.488,16.488H229.976L303.275,0H426.186z"
     id="path6" /><path
     style="fill:#FFF4F5;"
     d="M407.738,251.71H102.833c-10.191,0-18.453,8.261-18.453,18.453V512h341.809V270.163  C426.191,259.971,417.929,251.71,407.738,251.71z"
     id="path8" /><rect
     x="84.376"
     y="444.781"
     style="fill:#EA1225;"
     width="341.806"
     height="67.218"
     id="rect10" /><g
     id="g20"><path
       style="fill:#35333F;"
       d="M393.296,305.312H121.565c-4.328,0-7.837-3.509-7.837-7.837s3.509-7.837,7.837-7.837h271.731   c4.329,0,7.837,3.509,7.837,7.837S397.625,305.312,393.296,305.312z"
       id="path12" /><path
       style="fill:#35333F;"
       d="M393.296,356.797H121.565c-4.328,0-7.837-3.509-7.837-7.837c0-4.328,3.509-7.837,7.837-7.837   h271.731c4.329,0,7.837,3.509,7.837,7.837C401.133,353.289,397.625,356.797,393.296,356.797z"
       id="path14" /><path
       style="fill:#35333F;"
       d="M393.296,408.284H121.565c-4.328,0-7.837-3.509-7.837-7.837c0-4.328,3.509-7.837,7.837-7.837   h271.731c4.329,0,7.837,3.509,7.837,7.837C401.133,404.775,397.625,408.284,393.296,408.284z"
       id="path16" /><rect
       x="287.462"
       y="31.462"
       style="fill:#35333F;"
       width="88.67"
       height="122.556"
       id="rect18" /></g><g
     id="g22" /><g
     id="g24" /><g
     id="g26" /><g
     id="g28" /><g
     id="g30" /><g
     id="g32" /><g
     id="g34" /><g
     id="g36" /><g
     id="g38" /><g
     id="g40" /><g
     id="g42" /><g
     id="g44" /><g
     id="g46" /><g
     id="g48" /><g
     id="g50" /><g
     id="g949"
     transform="matrix(0.77118739,0,0,0.77118739,128.38494,29.559582)"><path
       id="path864"
       d="M 457.194,173.856 398.417,152.95 338.148,54.808 372.472,20.484 c 27.308,-27.308 71.584,-27.308 98.892,0 L 491.52,40.64 c 27.308,27.308 27.308,71.584 0,98.892 z"
       style="fill:#f01519"
       inkscape:connector-curvature="0" /><path
       id="path866"
       d="m 497.433,47.548 c -1.966,-2.607 -4.122,-5.116 -6.496,-7.491 L 471.946,21.066 c -27.63,-27.63 -72.426,-27.63 -100.056,0 l -33.742,33.742 32.979,32.979 33.742,-33.742 c 25.254,-25.255 64.843,-27.41 92.564,-6.497 z"
       style="fill:#c60e17"
       inkscape:connector-curvature="0" /><polygon
       id="polygon868"
       points="413.053,217.997 175.533,455.517 109.963,424.641 56.485,336.469 294.006,98.949 396.321,172.505 "
       style="fill:#f8c300" /><rect
       id="rect870"
       height="335.905"
       width="69.521004"
       style="fill:#d8a505"
       transform="matrix(-0.7071,-0.7071,0.7071,-0.7071,169.8057,554.9222)"
       y="74.341003"
       x="165.07001" /><rect
       id="rect872"
       height="335.905"
       width="69.522003"
       style="fill:#fcd351"
       transform="matrix(-0.7071,-0.7071,0.7071,-0.7071,204.7389,639.2658)"
       y="109.277"
       x="200.005" /><path
       id="path874"
       d="M 414.726,219.67 292.332,97.276 c -5.356,-5.356 -5.356,-14.037 0,-19.393 l 24.749,-24.749 c 5.356,-5.356 14.037,-5.356 19.393,0 l 122.394,122.394 c 5.356,5.356 5.356,14.037 0,19.393 L 434.12,219.67 c -5.356,5.355 -14.038,5.355 -19.394,0 z"
       style="fill:#d0dbdd"
       inkscape:connector-curvature="0" /><path
       id="path876"
       d="m 175.528,455.518 -61.633,22.433 -90.573,32.964 C 15.317,513.823 7.463,510.57 3.227,504.626 0.124,500.294 -1.045,494.522 1.084,488.677 l 32.964,-90.573 22.433,-61.633 z"
       style="fill:#ffceb5"
       inkscape:connector-curvature="0" /><path
       id="path878"
       d="M 3.227,504.628 C 0.124,500.296 -1.045,494.524 1.084,488.679 l 32.964,-90.573 22.433,-61.633 34.95,34.942 z"
       style="fill:#dba189"
       inkscape:connector-curvature="0" /><path
       id="path880"
       d="M 113.894,477.951 23.321,510.915 C 14.724,514.04 6.291,510.06 2.334,503.27 -0.087,499.125 -0.829,493.931 1.082,488.677 l 32.964,-90.573 z"
       style="fill:#3e3d4c"
       inkscape:connector-curvature="0" /><path
       id="path882"
       d="m 331.577,116.9 24.52,-24.52 c 5.418,-5.418 14.203,-5.418 19.621,0 L 336.587,53.249 c -5.418,-5.418 -14.203,-5.418 -19.621,0 l -24.52,24.52 c -5.418,5.418 -5.418,14.203 0,19.621 l 39.131,39.131 c -5.417,-5.419 -5.418,-14.202 0,-19.621 z"
       style="fill:#909899"
       inkscape:connector-curvature="0" /><path
       id="path884"
       d="m 2.335,503.271 c -2.421,-4.145 -3.163,-9.339 -1.252,-14.593 l 32.964,-90.573 23.892,23.892 z"
       style="fill:#2c3033"
       inkscape:connector-curvature="0" /><g
       id="g886" /><g
       id="g888" /><g
       id="g890" /><g
       id="g892" /><g
       id="g894" /><g
       id="g896" /><g
       id="g898" /><g
       id="g900" /><g
       id="g902" /><g
       id="g904" /><g
       id="g906" /><g
       id="g908" /><g
       id="g910" /><g
       id="g912" /><g
       id="g914" /></g></svg>