<?xml version="1.0" encoding="UTF-8" standalone="no"?>
<!-- Generator: Adobe Illustrator 19.0.0, SVG Export Plug-In . SVG Version: 6.00 Build 0)  -->

<svg
   xmlns:dc="http://purl.org/dc/elements/1.1/"
   xmlns:cc="http://creativecommons.org/ns#"
   xmlns:rdf="http://www.w3.org/1999/02/22-rdf-syntax-ns#"
   xmlns:svg="http://www.w3.org/2000/svg"
   xmlns="http://www.w3.org/2000/svg"
   xmlns:sodipodi="http://sodipodi.sourceforge.net/DTD/sodipodi-0.dtd"
   xmlns:inkscape="http://www.inkscape.org/namespaces/inkscape"
   version="1.1"
   id="Capa_1"
   x="0px"
   y="0px"
   viewBox="0 0 512 512"
   style="enable-background:new 0 0 512 512;"
   xml:space="preserve"
   sodipodi:docname="update_from_cloud.svg"
   inkscape:version="0.92.3 (2405546, 2018-03-11)"><metadata
   id="metadata47"><rdf:RDF><cc:Work
       rdf:about=""><dc:format>image/svg+xml</dc:format><dc:type
         rdf:resource="http://purl.org/dc/dcmitype/StillImage" /></cc:Work></rdf:RDF></metadata><defs
   id="defs45" /><sodipodi:namedview
   pagecolor="#ffffff"
   bordercolor="#666666"
   borderopacity="1"
   objecttolerance="10"
   gridtolerance="10"
   guidetolerance="10"
   inkscape:pageopacity="0"
   inkscape:pageshadow="2"
   inkscape:window-width="1246"
   inkscape:window-height="805"
   id="namedview43"
   showgrid="false"
   inkscape:zoom="0.081483008"
   inkscape:cx="905.33299"
   inkscape:cy="-656.62206"
   inkscape:window-x="2029"
   inkscape:window-y="288"
   inkscape:window-maximized="0"
   inkscape:current-layer="Capa_1" />





<g
   id="g12">
</g>
<g
   id="g14">
</g>
<g
   id="g16">
</g>
<g
   id="g18">
</g>
<g
   id="g20">
</g>
<g
   id="g22">
</g>
<g
   id="g24">
</g>
<g
   id="g26">
</g>
<g
   id="g28">
</g>
<g
   id="g30">
</g>
<g
   id="g32">
</g>
<g
   id="g34">
</g>
<g
   id="g36">
</g>
<g
   id="g38">
</g>
<g
   id="g40">
</g>
<g
   id="g864"
   transform="translate(-6.5084713,-19.983902)"><path
     id="path2"
     d="m 438.58747,128.43969 c -1.097,-43.628012 -43.746,-74.434012 -85.721,-61.263012 -43.883,-62.8650004 -136.789,-62.9260004 -180.712,0 -41.965,-13.166 -84.621997,17.621 -85.721997,61.261012 -46.131,13.14299 -79.9240003,55.56598 -79.9240003,105.91198 0,60.827 49.3130003,110.141 110.1439973,110.141 11.492,0 275.213,0 291.713,0 60.83,0 110.143,-49.314 110.143,-110.141 0,-50.346 -33.792,-92.76899 -79.921,-105.90998 z"
     style="fill:#0581b3;fill-opacity:1"
     inkscape:connector-curvature="0" /><path
     id="path4"
     d="m 172.15447,67.176678 c -41.965,-13.166 -84.621997,17.621 -85.721997,61.261012 -46.131,13.14299 -79.9240003,55.56598 -79.9240003,105.91198 0,44.41701 26.2980003,82.69101 64.1720003,100.112 -69.5120003,-52.775 -53.004,-162.177 29.610997,-191.51398 4.672,-2.131 6.732,-5.869 7.514,-10.854 0.006,-0.082 0.008,-0.134 0.008,-0.134 l 0.013,-0.002 c 5.567,-34.753012 37.951,-59.754012 74.048,-54.849012 7.569,0 13.333,-1.391 18.107,-6.88 0.016,-0.023 0.037,-0.054 0.037,-0.054 l 0.005,0.005 c 32.223,-37.001 84.733,-48.162 128.936,-27.856 -49.619,-37.6370004 -120.865,-26.636 -156.805,24.853 z"
     style="fill:#04597e;fill-opacity:1"
     inkscape:connector-curvature="0" /></g><circle
   style="fill:#ade0e7;stroke-width:1.54989851;fill-opacity:1"
   cx="256"
   cy="322.43814"
   r="189.5526"
   id="circle6" /><path
   inkscape:connector-curvature="0"
   style="fill:#7fc9d7;stroke-width:1.54989851;fill-opacity:1"
   d="m 97.574028,322.44431 c 0,-99.44768 76.583582,-180.99869 173.990052,-188.91558 C 160.48286,124.50368 66.448967,212.13804 66.448967,322.44431 66.448967,427.13221 151.31366,512 256.00155,512 c 5.24176,0 10.42927,-0.22319 15.56253,-0.64011 C 174.15761,503.44301 97.574028,421.89045 97.574028,322.44431 Z"
   id="path8" /><path
   inkscape:connector-curvature="0"
   style="fill:#d22622;fill-opacity:1;stroke:#d22622;stroke-width:11.4933691;stroke-miterlimit:4;stroke-dasharray:none;stroke-opacity:1"
   d="m 416.35582,280.1174 c -5.9426,-4.71525 -14.58396,-3.72481 -19.30099,2.2178 l -17.09389,21.53124 C 370.9348,242.15672 317.67228,194.6159 253.49716,194.6159 c -70.4829,0 -127.82474,57.34362 -127.82474,127.82829 0,70.48469 57.34184,127.83009 127.82474,127.83009 7.58679,0 13.73781,-6.15102 13.73781,-13.73782 0,-7.5868 -6.15102,-13.73782 -13.73781,-13.73782 -55.33247,0 -100.35089,-45.01841 -100.35089,-100.35445 0,-55.33424 45.01664,-100.35266 100.35089,-100.35266 51.84813,0 94.63451,39.52115 99.82361,90.0208 l -26.71856,-21.87326 c -5.87134,-4.8061 -14.52695,-3.94214 -19.33127,1.92921 -4.80609,5.87134 -3.94392,14.52695 1.92742,19.33305 53.47631,43.77681 52.23648,44.52677 59.85712,43.70378 7.62064,-0.81765 6.2009,-1.22201 49.51812,-55.78316 4.71525,-5.94438 3.72482,-14.58395 -2.21778,-19.30455 z"
   id="path10" /></svg>