<?xml version="1.0" encoding="UTF-8" standalone="no"?>
<!-- Created with Inkscape (http://www.inkscape.org/) -->

<svg
   xmlns:dc="http://purl.org/dc/elements/1.1/"
   xmlns:cc="http://creativecommons.org/ns#"
   xmlns:rdf="http://www.w3.org/1999/02/22-rdf-syntax-ns#"
   xmlns:svg="http://www.w3.org/2000/svg"
   xmlns="http://www.w3.org/2000/svg"
   xmlns:sodipodi="http://sodipodi.sourceforge.net/DTD/sodipodi-0.dtd"
   xmlns:inkscape="http://www.inkscape.org/namespaces/inkscape"
   width="512"
   height="512"
   viewBox="0 0 135.46666 135.46666"
   version="1.1"
   id="svg8"
   inkscape:version="0.92.3 (2405546, 2018-03-11)"
   sodipodi:docname="connected.svg">
  <defs
     id="defs2">
    <clipPath
       id="clipPath4534"
       clipPathUnits="userSpaceOnUse">
      <path
         style="clip-rule:evenodd"
         inkscape:connector-curvature="0"
         id="path4532"
         d="M 8.869e-6,0 H 595.20001 V 841.92 H 8.869e-6 Z" />
    </clipPath>
    <clipPath
       id="clipPath4542"
       clipPathUnits="userSpaceOnUse">
      <path
         style="clip-rule:evenodd"
         inkscape:connector-curvature="0"
         id="path4540"
         d="M 8.869e-6,0 H 595.20001 V 841.92 H 8.869e-6 Z" />
    </clipPath>
    <clipPath
       id="clipPath4550"
       clipPathUnits="userSpaceOnUse">
      <path
         style="clip-rule:evenodd"
         inkscape:connector-curvature="0"
         id="path4548"
         d="M 8.869e-6,0 H 595.20001 V 841.92 H 8.869e-6 Z" />
    </clipPath>
    <clipPath
       id="clipPath4566"
       clipPathUnits="userSpaceOnUse">
      <path
         style="clip-rule:evenodd"
         inkscape:connector-curvature="0"
         id="path4564"
         d="M -1.868e-6,841.92 H 595.2 V 0 H -1.171e-5" />
    </clipPath>
  </defs>
  <sodipodi:namedview
     id="base"
     pagecolor="#ffffff"
     bordercolor="#666666"
     borderopacity="1.0"
     inkscape:pageopacity="0.0"
     inkscape:pageshadow="2"
     inkscape:zoom="0.98994949"
     inkscape:cx="156.50065"
     inkscape:cy="197.27995"
     inkscape:document-units="mm"
     inkscape:current-layer="layer1"
     showgrid="false"
     units="px"
     inkscape:window-width="1280"
     inkscape:window-height="961"
     inkscape:window-x="-8"
     inkscape:window-y="35"
     inkscape:window-maximized="1" />
  <metadata
     id="metadata5">
    <rdf:RDF>
      <cc:Work
         rdf:about="">
        <dc:format>image/svg+xml</dc:format>
        <dc:type
           rdf:resource="http://purl.org/dc/dcmitype/StillImage" />
        <dc:title />
      </cc:Work>
    </rdf:RDF>
  </metadata>
  <g
     inkscape:label="Ebene 1"
     inkscape:groupmode="layer"
     id="layer1"
     transform="translate(0,-161.53336)">
    <g
       id="g4528"
       transform="matrix(0.9540578,0,0,-0.9540578,-87.962221,876.8048)">
      <g
         id="g4530"
         clip-path="url(#clipPath4534)" />
    </g>
    <g
       id="g4536"
       transform="matrix(0.9540578,0,0,-0.9540578,-87.962221,876.8048)">
      <g
         id="g4538"
         clip-path="url(#clipPath4542)" />
    </g>
    <g
       id="g4544"
       transform="matrix(0.9540578,0,0,-0.9540578,-87.962221,876.8048)">
      <g
         id="g4546"
         clip-path="url(#clipPath4550)" />
    </g>
    <path
       d="m 98.336646,262.00995 c 0,-3.11022 2.528254,-5.62894 5.638484,-5.62894 h 22.53484 c 3.11023,0 5.63848,2.51872 5.63848,5.62894 v 22.53485 c 0,3.11977 -2.52825,5.63848 -5.63848,5.63848 h -22.53484 c -3.11023,0 -5.638484,-2.51871 -5.638484,-5.63848 z"
       style="fill:#16b800;fill-opacity:1;fill-rule:evenodd;stroke:none;stroke-width:0.95405781"
       id="path4554"
       inkscape:connector-curvature="0" />
    <path
       d="m 98.336646,262.00995 c 0,-3.11022 2.528254,-5.62894 5.638484,-5.62894 h 22.53484 c 3.11023,0 5.63848,2.51872 5.63848,5.62894 v 22.53485 c 0,3.11977 -2.52825,5.63848 -5.63848,5.63848 h -22.53484 c -3.11023,0 -5.638484,-2.51871 -5.638484,-5.63848 z"
       style="fill:none;stroke:#0f8000;stroke-width:5.72434664;stroke-linecap:square;stroke-linejoin:round;stroke-miterlimit:10;stroke-dasharray:none;stroke-opacity:1"
       id="path4556"
       inkscape:connector-curvature="0" />
    <path
       d="m 67.778174,208.99296 -0.03816,40.61424"
       style="fill:none;stroke:#0f8000;stroke-width:9.54057789;stroke-linecap:butt;stroke-linejoin:round;stroke-miterlimit:10;stroke-dasharray:none;stroke-opacity:1"
       id="path4558"
       inkscape:connector-curvature="0" />
    <g
       id="g4560"
       transform="matrix(0.9540578,0,0,-0.9540578,-87.962221,876.8048)"
       style="stroke:#0f8000;stroke-opacity:1">
      <g
         id="g4562"
         clip-path="url(#clipPath4566)"
         style="stroke:#0f8000;stroke-opacity:1">
        <path
           d="m 113.35,657.4 c 0,11.75 0,21.27 0,21.27 h 99.4 c 0,0 0,-9.52 0,-21.27"
           style="fill:none;stroke:#0f8000;stroke-width:10;stroke-linecap:butt;stroke-linejoin:round;stroke-miterlimit:10;stroke-dasharray:none;stroke-opacity:1"
           id="path4568"
           inkscape:connector-curvature="0" />
      </g>
    </g>
    <path
       d="m 50.929514,262.00995 c 0,-3.11022 2.518712,-5.62894 5.628941,-5.62894 H 79.10284 c 3.110229,0 5.628941,2.51872 5.628941,5.62894 v 22.53485 c 0,3.11977 -2.518712,5.63848 -5.628941,5.63848 H 56.558455 c -3.110229,0 -5.628941,-2.51871 -5.628941,-5.63848 z"
       style="fill:#16b800;fill-opacity:1;fill-rule:evenodd;stroke:none;stroke-width:0.95405781"
       id="path4570"
       inkscape:connector-curvature="0" />
    <path
       d="m 50.929514,262.00995 c 0,-3.11022 2.518712,-5.62894 5.628941,-5.62894 H 79.10284 c 3.110229,0 5.628941,2.51872 5.628941,5.62894 v 22.53485 c 0,3.11977 -2.518712,5.63848 -5.628941,5.63848 H 56.558455 c -3.110229,0 -5.628941,-2.51871 -5.628941,-5.63848 z"
       style="fill:none;stroke:#0f8000;stroke-width:5.72434664;stroke-linecap:square;stroke-linejoin:round;stroke-miterlimit:10;stroke-dasharray:none;stroke-opacity:1"
       id="path4572"
       inkscape:connector-curvature="0" />
    <path
       d="m 3.5166571,262.00995 c 0,-3.11022 2.5225288,-5.62894 5.6346654,-5.62894 H 31.686168 c 3.110228,0 5.638481,2.51872 5.638481,5.62894 v 22.53485 c 0,3.11977 -2.528253,5.63848 -5.638481,5.63848 H 9.1513225 c -3.1121366,0 -5.6346654,-2.51871 -5.6346654,-5.63848 z"
       style="fill:#16b800;fill-opacity:1;fill-rule:evenodd;stroke:none;stroke-width:0.95405781"
       id="path4574"
       inkscape:connector-curvature="0" />
    <path
       d="m 3.5166571,262.00995 c 0,-3.11022 2.5225288,-5.62894 5.6346654,-5.62894 H 31.686168 c 3.110228,0 5.638481,2.51872 5.638481,5.62894 v 22.53485 c 0,3.11977 -2.528253,5.63848 -5.638481,5.63848 H 9.1513225 c -3.1121366,0 -5.6346654,-2.51871 -5.6346654,-5.63848 z"
       style="fill:none;stroke:#0f8000;stroke-width:5.72434664;stroke-linecap:square;stroke-linejoin:round;stroke-miterlimit:10;stroke-dasharray:none;stroke-opacity:1"
       id="path4576"
       inkscape:connector-curvature="0" />
    <path
       d="m 50.929514,173.80731 c 0,-3.11023 2.518712,-5.62894 5.628941,-5.62894 H 79.0933 c 3.119769,0 5.638481,2.51871 5.638481,5.62894 v 22.53485 c 0,3.11976 -2.518712,5.63848 -5.638481,5.63848 H 56.558455 c -3.110229,0 -5.628941,-2.51872 -5.628941,-5.63848 z"
       style="fill:#16b800;fill-opacity:1;fill-rule:evenodd;stroke:none;stroke-width:0.95405781"
       id="path4578"
       inkscape:connector-curvature="0" />
    <path
       d="m 50.929514,173.80731 c 0,-3.11023 2.518712,-5.62894 5.628941,-5.62894 H 79.0933 c 3.119769,0 5.638481,2.51871 5.638481,5.62894 v 22.53485 c 0,3.11976 -2.518712,5.63848 -5.638481,5.63848 H 56.558455 c -3.110229,0 -5.628941,-2.51872 -5.628941,-5.63848 z"
       style="fill:none;stroke:#0f8000;stroke-width:5.72434664;stroke-linecap:square;stroke-linejoin:round;stroke-miterlimit:10;stroke-dasharray:none;stroke-opacity:1"
       id="path4580"
       inkscape:connector-curvature="0" />
  </g>
</svg>
