<?xml version="1.0" encoding="UTF-8" standalone="no"?>
<!-- Created with Inkscape (http://www.inkscape.org/) -->

<svg
   xmlns:dc="http://purl.org/dc/elements/1.1/"
   xmlns:cc="http://creativecommons.org/ns#"
   xmlns:rdf="http://www.w3.org/1999/02/22-rdf-syntax-ns#"
   xmlns:svg="http://www.w3.org/2000/svg"
   xmlns="http://www.w3.org/2000/svg"
   xmlns:sodipodi="http://sodipodi.sourceforge.net/DTD/sodipodi-0.dtd"
   xmlns:inkscape="http://www.inkscape.org/namespaces/inkscape"
   width="512"
   height="512"
   viewBox="0 0 135.46666 135.46666"
   version="1.1"
   id="svg8"
   sodipodi:docname="pencil.svg"
   inkscape:version="0.92.4 (5da689c313, 2019-01-14)">
  <defs
     id="defs2">
    <clipPath
       id="clipEmfPath1"
       clipPathUnits="userSpaceOnUse">
      <path
         inkscape:connector-curvature="0"
         id="path5723"
         d="M -89.199339,-108.0792 H 704.55478 V 1014.4725 H -89.199339" />
    </clipPath>
  </defs>
  <sodipodi:namedview
     id="base"
     pagecolor="#ffffff"
     bordercolor="#666666"
     borderopacity="1.0"
     inkscape:pageopacity="0.0"
     inkscape:pageshadow="2"
     inkscape:zoom="0.90509668"
     inkscape:cx="147.91691"
     inkscape:cy="91.244236"
     inkscape:document-units="mm"
     inkscape:current-layer="g859"
     showgrid="true"
     units="px"
     inkscape:window-width="1920"
     inkscape:window-height="1137"
     inkscape:window-x="1912"
     inkscape:window-y="-8"
     inkscape:window-maximized="1">
    <inkscape:grid
       type="xygrid"
       id="grid4518"
       spacingx="2.1166666"
       spacingy="2.1166666"
       empspacing="4" />
  </sodipodi:namedview>
  <metadata
     id="metadata5">
    <rdf:RDF>
      <cc:Work
         rdf:about="">
        <dc:format>image/svg+xml</dc:format>
        <dc:type
           rdf:resource="http://purl.org/dc/dcmitype/StillImage" />
        <dc:title></dc:title>
      </cc:Work>
    </rdf:RDF>
  </metadata>
  <g
     inkscape:label="Ebene 1"
     inkscape:groupmode="layer"
     id="layer1"
     transform="translate(0,-161.53336)">
    <g
       id="g859">
      <polygon
         transform="matrix(0.26458333,0,0,0.26458333,-144.03705,156.24593)"
         style="fill:#ffd15c"
         points="39.706,303.02 129.567,213.159 288.392,371.984 198.531,461.845 78.367,485.878 0,501.551 15.673,423.184 "
         id="polygon2" />
      <polygon
         transform="matrix(0.26458333,0,0,0.26458333,-144.03705,156.24593)"
         style="fill:#ff7058"
         points="213.159,367.804 119.118,382.433 133.747,288.392 333.322,88.816 412.735,168.229 "
         id="polygon4" />
      <g
         transform="matrix(0.26458333,0,0,0.26458333,-144.03705,156.24593)"
         id="g10">
        <polygon
           style="fill:#f1543f"
           points="198.531,461.845 213.159,367.804 412.735,168.229 452.441,207.935 "
           id="polygon6" />
        <polygon
           style="fill:#f1543f"
           points="133.747,288.392 39.706,303.02 293.616,49.11 333.322,88.816 "
           id="polygon8" />
      </g>
      <polygon
         transform="matrix(0.26458333,0,0,0.26458333,-144.03705,156.24593)"
         style="fill:#334a5e"
         points="15.673,423.184 78.367,485.878 0,501.551 "
         id="polygon12" />
      <path
         inkscape:connector-curvature="0"
         style="fill:#40596b;stroke-width:0.26458332"
         d="m -12.993687,192.18613 -34.28154,-34.28153 c -2.21165,-2.21165 -5.52926,-2.21165 -7.74091,0 l -11.33501,11.33501 42.02218,42.02219 11.33502,-11.33502 c 2.21191,-2.21139 2.21191,-5.529 2.6e-4,-7.74065 z"
         id="path14" />
      <rect
         x="160.82649"
         y="-132.18719"
         transform="rotate(135)"
         style="fill:#f2f2f2;stroke-width:0.26458079"
         width="5.805697"
         height="59.438343"
         id="rect16" />
      <g
         transform="matrix(0.26458333,0,0,0.26458333,-144.03705,156.24593)"
         id="g18" />
      <g
         transform="matrix(0.26458333,0,0,0.26458333,-144.03705,156.24593)"
         id="g20" />
      <g
         transform="matrix(0.26458333,0,0,0.26458333,-144.03705,156.24593)"
         id="g22" />
      <g
         transform="matrix(0.26458333,0,0,0.26458333,-144.03705,156.24593)"
         id="g24" />
      <g
         transform="matrix(0.26458333,0,0,0.26458333,-144.03705,156.24593)"
         id="g26" />
      <g
         transform="matrix(0.26458333,0,0,0.26458333,-144.03705,156.24593)"
         id="g28" />
      <g
         transform="matrix(0.26458333,0,0,0.26458333,-144.03705,156.24593)"
         id="g30" />
      <g
         transform="matrix(0.26458333,0,0,0.26458333,-144.03705,156.24593)"
         id="g32" />
      <g
         transform="matrix(0.26458333,0,0,0.26458333,-144.03705,156.24593)"
         id="g34" />
      <g
         transform="matrix(0.26458333,0,0,0.26458333,-144.03705,156.24593)"
         id="g36" />
      <g
         transform="matrix(0.26458333,0,0,0.26458333,-144.03705,156.24593)"
         id="g38" />
      <g
         transform="matrix(0.26458333,0,0,0.26458333,-144.03705,156.24593)"
         id="g40" />
      <g
         transform="matrix(0.26458333,0,0,0.26458333,-144.03705,156.24593)"
         id="g42" />
      <g
         transform="matrix(0.26458333,0,0,0.26458333,-144.03705,156.24593)"
         id="g44" />
      <g
         transform="matrix(0.26458333,0,0,0.26458333,-144.03705,156.24593)"
         id="g46" />
    </g>
  </g>
</svg>
