<?xml version="1.0" encoding="UTF-8" standalone="no"?>
<!-- Created with Inkscape (http://www.inkscape.org/) -->

<svg
   xmlns:dc="http://purl.org/dc/elements/1.1/"
   xmlns:cc="http://creativecommons.org/ns#"
   xmlns:rdf="http://www.w3.org/1999/02/22-rdf-syntax-ns#"
   xmlns:svg="http://www.w3.org/2000/svg"
   xmlns="http://www.w3.org/2000/svg"
   xmlns:sodipodi="http://sodipodi.sourceforge.net/DTD/sodipodi-0.dtd"
   xmlns:inkscape="http://www.inkscape.org/namespaces/inkscape"
   width="512"
   height="512"
   viewBox="0 0 135.46666 135.46666"
   version="1.1"
   id="svg8"
   inkscape:version="0.92.3 (2405546, 2018-03-11)"
   sodipodi:docname="table_width.svg">
  <defs
     id="defs2" />
  <sodipodi:namedview
     id="base"
     pagecolor="#ffffff"
     bordercolor="#666666"
     borderopacity="1.0"
     inkscape:pageopacity="0.0"
     inkscape:pageshadow="2"
     inkscape:zoom="0.35"
     inkscape:cx="-467.11761"
     inkscape:cy="582.09833"
     inkscape:document-units="mm"
     inkscape:current-layer="layer1"
     showgrid="false"
     units="px"
     inkscape:window-width="1920"
     inkscape:window-height="1137"
     inkscape:window-x="1272"
     inkscape:window-y="-8"
     inkscape:window-maximized="1" />
  <metadata
     id="metadata5">
    <rdf:RDF>
      <cc:Work
         rdf:about="">
        <dc:format>image/svg+xml</dc:format>
        <dc:type
           rdf:resource="http://purl.org/dc/dcmitype/StillImage" />
        <dc:title></dc:title>
      </cc:Work>
    </rdf:RDF>
  </metadata>
  <g
     inkscape:label="Ebene 1"
     inkscape:groupmode="layer"
     id="layer1"
     transform="translate(0,-161.53336)">
    <g
       transform="matrix(2.6264689,0,0,-2.6264689,-547.24117,2038.118)"
       inkscape:label="table width"
       id="g834">
      <path
         inkscape:connector-curvature="0"
         id="path836"
         style="fill:#000000;fill-opacity:1;fill-rule:nonzero;stroke:none"
         d="m 215.1,708.7 38.04,-0.01 v -3 l -38.04,0.01 z m 5.02,-7.88 -7.29,6.38 7.29,6.37 c 0.62,0.55 1.57,0.49 2.11,-0.14 0.55,-0.62 0.49,-1.57 -0.14,-2.11 l -6,-5.25 v 2.25 l 6,-5.25 c 0.63,-0.54 0.69,-1.49 0.14,-2.11 -0.54,-0.63 -1.49,-0.69 -2.11,-0.14 z m 28.01,12.75 7.29,-6.38 -7.29,-6.37 c -0.62,-0.55 -1.57,-0.49 -2.11,0.14 -0.55,0.62 -0.49,1.57 0.14,2.11 l 6,5.25 v -2.25 l -6,5.25 c -0.63,0.54 -0.69,1.49 -0.14,2.11 0.54,0.63 1.49,0.69 2.11,0.14 z" />
      <path
         inkscape:connector-curvature="0"
         id="path838"
         style="fill:none;stroke:#000000;stroke-width:3;stroke-linecap:butt;stroke-linejoin:round;stroke-miterlimit:10;stroke-dasharray:none;stroke-opacity:1"
         d="m 212.75,714.29 0.08,-14.2" />
      <path
         inkscape:connector-curvature="0"
         id="path840"
         style="fill:none;stroke:#000000;stroke-width:3;stroke-linecap:butt;stroke-linejoin:round;stroke-miterlimit:10;stroke-dasharray:none;stroke-opacity:1"
         d="m 255.54,714.29 -0.11,-14.2" />
      <path
         inkscape:connector-curvature="0"
         id="path842"
         style="fill:#ffffff;fill-opacity:1;fill-rule:evenodd;stroke:none"
         d="m 212.75,664.6 h 42.695 v 28.37 H 212.75 Z" />
      <path
         inkscape:connector-curvature="0"
         id="path844"
         style="fill:none;stroke:#000000;stroke-width:3;stroke-linecap:butt;stroke-linejoin:round;stroke-miterlimit:10;stroke-dasharray:none;stroke-opacity:1"
         d="m 212.75,664.6 h 42.695 v 28.37 H 212.75 Z" />
      <path
         inkscape:connector-curvature="0"
         id="path846"
         style="fill:none;stroke:#000000;stroke-width:3;stroke-linecap:butt;stroke-linejoin:round;stroke-miterlimit:10;stroke-dasharray:none;stroke-opacity:1"
         d="M 234.1,692.97 V 664.6" />
      <path
         inkscape:connector-curvature="0"
         id="path848"
         style="fill:none;stroke:#000000;stroke-width:3;stroke-linecap:butt;stroke-linejoin:round;stroke-miterlimit:10;stroke-dasharray:none;stroke-opacity:1"
         d="m 212.82,685.9 h 42.6" />
    </g>
  </g>
</svg>
