<?xml version="1.0" encoding="UTF-8" standalone="no"?>
<svg
   xmlns:dc="http://purl.org/dc/elements/1.1/"
   xmlns:cc="http://creativecommons.org/ns#"
   xmlns:rdf="http://www.w3.org/1999/02/22-rdf-syntax-ns#"
   xmlns:svg="http://www.w3.org/2000/svg"
   xmlns="http://www.w3.org/2000/svg"
   xmlns:sodipodi="http://sodipodi.sourceforge.net/DTD/sodipodi-0.dtd"
   xmlns:inkscape="http://www.inkscape.org/namespaces/inkscape"
   width="220mm"
   height="220mm"
   viewBox="0 0 220.00001 220"
   version="1.1"
   id="svg8"
   inkscape:version="1.0.1 (3bc2e813f5, 2020-09-07)"
   sodipodi:docname="ecal_below_logo.svg"
   inkscape:export-filename="C:\Users\uid38621\Desktop\eCAL Logos\ecal_square.png"
   inkscape:export-xdpi="23.09091"
   inkscape:export-ydpi="23.09091">
  <defs
     id="defs2" />
  <sodipodi:namedview
     id="base"
     pagecolor="#ffffff"
     bordercolor="#666666"
     borderopacity="1.0"
     inkscape:pageopacity="0.0"
     inkscape:pageshadow="2"
     inkscape:zoom="0.49497475"
     inkscape:cx="311.41082"
     inkscape:cy="281.85765"
     inkscape:document-units="mm"
     inkscape:current-layer="g50"
     inkscape:document-rotation="0"
     showgrid="true"
     fit-margin-top="0"
     fit-margin-left="0"
     fit-margin-right="0"
     fit-margin-bottom="0"
     inkscape:window-width="1920"
     inkscape:window-height="1137"
     inkscape:window-x="1272"
     inkscape:window-y="-8"
     inkscape:window-maximized="1">
    <inkscape:grid
       type="xygrid"
       id="grid917"
       units="cm"
       spacingx="9.9999997"
       spacingy="9.9999997"
       empspacing="8"
       originx="2.0265583e-05"
       originy="2.3841858e-06" />
  </sodipodi:namedview>
  <metadata
     id="metadata5">
    <rdf:RDF>
      <cc:Work
         rdf:about="">
        <dc:format>image/svg+xml</dc:format>
        <dc:type
           rdf:resource="http://purl.org/dc/dcmitype/StillImage" />
        <dc:title />
      </cc:Work>
    </rdf:RDF>
  </metadata>
  <g
     inkscape:label="Ebene 1"
     inkscape:groupmode="layer"
     id="layer1"
     transform="translate(2.0265579e-5)">
    <g
       id="g50"
       transform="translate(29.998842,8.1591562)">
      <ellipse
         style="fill:none;fill-opacity:1;stroke:#ffa500;stroke-width:4.41565;stroke-linejoin:miter;stroke-dasharray:none;stroke-opacity:1;paint-order:normal"
         id="path65-9"
         cx="57.921753"
         cy="13.76528"
         rx="11.557458"
         ry="11.557456" />
      <ellipse
         style="fill:none;fill-opacity:1;stroke:#ffa500;stroke-width:4.41565;stroke-linejoin:miter;stroke-dasharray:none;stroke-opacity:1;paint-order:normal"
         id="path65-9-8"
         cx="102.11187"
         cy="68.994514"
         rx="11.557458"
         ry="11.557456" />
      <ellipse
         style="fill:none;fill-opacity:1;stroke:#ffa500;stroke-width:4.41565;stroke-linejoin:miter;stroke-dasharray:none;stroke-opacity:1;paint-order:normal"
         id="path65-9-8-6"
         cx="102.07824"
         cy="146.23473"
         rx="11.557458"
         ry="11.557456" />
      <ellipse
         style="fill:none;fill-opacity:1;stroke:#ffa500;stroke-width:4.41565;stroke-linejoin:miter;stroke-dasharray:none;stroke-opacity:1;paint-order:normal"
         id="path65"
         cx="13.793492"
         cy="46.910862"
         rx="11.585688"
         ry="11.585686" />
      <circle
         style="fill:#ffa500;fill-opacity:1;stroke:none;stroke-width:0;stroke-linejoin:miter;stroke-dasharray:none;stroke-opacity:1;paint-order:normal"
         id="path3625"
         cx="13.798878"
         cy="46.916271"
         r="6.0715175" />
      <ellipse
         style="fill:none;fill-opacity:1;stroke:#ffa500;stroke-width:4.41565;stroke-linejoin:miter;stroke-dasharray:none;stroke-opacity:1;paint-order:normal"
         id="path65-97"
         cx="146.23474"
         cy="46.882633"
         rx="11.557458"
         ry="11.557456" />
      <circle
         style="fill:#ffa500;fill-opacity:1;stroke:none;stroke-width:0;stroke-linejoin:miter;stroke-dasharray:none;stroke-opacity:1;paint-order:normal"
         id="path3625-3"
         cx="146.26836"
         cy="46.916271"
         r="6.0715175" />
      <ellipse
         style="fill:none;fill-opacity:1;stroke:#ffa500;stroke-width:4.41565;stroke-linejoin:miter;stroke-dasharray:none;stroke-opacity:1;paint-order:normal"
         id="path65-97-8"
         cx="57.921753"
         cy="91.039139"
         rx="11.557458"
         ry="11.557456" />
      <circle
         style="fill:#ffa500;fill-opacity:1;stroke:none;stroke-width:0;stroke-linejoin:miter;stroke-dasharray:none;stroke-opacity:1;paint-order:normal"
         id="path3625-3-7"
         cx="57.955376"
         cy="91.072762"
         r="6.0715175" />
      <ellipse
         style="fill:none;fill-opacity:1;stroke:#ffa500;stroke-width:4.41565;stroke-linejoin:miter;stroke-dasharray:none;stroke-opacity:1;paint-order:normal"
         id="path65-97-8-3"
         cx="146.23474"
         cy="124.15648"
         rx="11.557458"
         ry="11.557456" />
      <circle
         style="fill:#ffa500;fill-opacity:1;stroke:none;stroke-width:0;stroke-linejoin:miter;stroke-dasharray:none;stroke-opacity:1;paint-order:normal"
         id="path3625-3-7-7"
         cx="146.26836"
         cy="124.19009"
         r="6.0715175" />
      <path
         style="fill:#000000;fill-opacity:1;stroke:#ffa500;stroke-width:4.41565;stroke-linejoin:miter;stroke-dasharray:none;stroke-opacity:1;paint-order:normal"
         d="M 23.039696,39.883261 48.500898,20.689439"
         id="path7177"
         sodipodi:nodetypes="cc" />
      <path
         style="fill:#000000;fill-opacity:1;stroke:#ffa500;stroke-width:4.41565;stroke-linejoin:miter;stroke-dasharray:none;stroke-opacity:1;paint-order:normal"
         d="M 24.998248,50.459448 90.022237,67.694731"
         id="path7179"
         sodipodi:nodetypes="cc" />
      <path
         style="fill:#000000;fill-opacity:1;stroke:#ffa500;stroke-width:4.416;stroke-linejoin:miter;stroke-miterlimit:4;stroke-dasharray:none;stroke-opacity:1;paint-order:normal"
         d="M 69.261571,15.597191 135.4607,41.841822"
         id="path7181"
         sodipodi:nodetypes="cc" />
      <path
         style="fill:#000000;fill-opacity:1;stroke:#ffa500;stroke-width:4.41565;stroke-linejoin:miter;stroke-dasharray:none;stroke-opacity:1;paint-order:normal"
         d="M 135.85241,51.634584 112.74147,63.77762"
         id="path7183"
         sodipodi:nodetypes="cc" />
      <path
         style="fill:#000000;fill-opacity:1;stroke:#ffa500;stroke-width:4.41565;stroke-linejoin:miter;stroke-dasharray:none;stroke-opacity:1;paint-order:normal"
         d="M 68.478148,85.713428 91.589086,73.962105"
         id="path7185"
         sodipodi:nodetypes="cc" />
      <path
         style="fill:#000000;fill-opacity:1;stroke:#ffa500;stroke-width:4.41565;stroke-linejoin:miter;stroke-dasharray:none;stroke-opacity:1;paint-order:normal"
         d="M 138.59438,115.48345 109.21607,77.487504"
         id="path7189" />
      <path
         style="fill:none;fill-opacity:1;stroke:#ffa500;stroke-width:4.41565;stroke-linecap:round;stroke-linejoin:round;stroke-dasharray:none;stroke-opacity:1;paint-order:normal"
         d="m 64.917141,100.56284 28.986606,37.21252"
         id="path7217"
         sodipodi:nodetypes="cc" />
      <path
         style="display:inline;fill:none;fill-opacity:1;stroke:#ffa500;stroke-width:4.41565;stroke-linecap:round;stroke-linejoin:round;stroke-dasharray:none;stroke-opacity:1;paint-order:normal"
         d="m 113.48928,141.30075 21.93581,-10.57619"
         id="path7219"
         sodipodi:nodetypes="cc" />
      <g
         aria-label="eCAL"
         id="text921"
         style="font-size:48.3238px;line-height:1.25;font-family:sans-serif;-inkscape-font-specification:sans-serif;fill:#ffa500;fill-opacity:1;stroke-width:0.354691">
        <path
           d="m 7.2026951,193.24375 v 1.20809 q 0,1.2081 0.1932952,1.93295 0.1932952,0.72486 0.6765332,1.15977 0.5315618,0.38659 1.3530664,0.53157 0.8698281,0.14497 2.1262471,0.14497 h 8.504989 v 5.46059 h -8.504989 q -6.2337701,0 -8.891579,-2.36787 -2.65780896,-2.36787 -2.65780896,-7.58684 v -6.04047 q 0,-2.85111 0.53156179,-4.78406 0.57988557,-1.98127 1.93295197,-3.14104 1.4013902,-1.2081 3.6726087,-1.73966 2.2712186,-0.53156 5.7505325,-0.53156 h 12.660835 q 2.80278,0 4.639085,0.53156 1.884628,0.53156 2.947751,1.49804 1.111448,0.91815 1.546362,2.27122 0.434914,1.30474 0.434914,2.8511 v 8.60164 z M 26.918805,185.222 q 0,-1.30475 -0.676533,-1.73966 -0.628209,-0.43492 -2.271219,-0.43492 H 11.986751 q -1.353066,0 -2.2712183,0.14498 -0.9181522,0.0966 -1.4980378,0.53156 -0.5315618,0.43491 -0.7731808,1.25642 -0.241619,0.8215 -0.241619,2.22289 v 1.40139 H 26.918805 Z"
           style="font-style:normal;font-variant:normal;font-weight:normal;font-stretch:normal;font-size:48.3238px;font-family:Neuropolitical;-inkscape-font-specification:Neuropolitical;fill:#ffa500;fill-opacity:1;stroke-width:0.354691"
           id="path853" />
        <path
           d="m 51.660497,203.68169 q -3.624284,0 -6.040474,-0.57989 -2.41619,-0.62821 -3.865904,-1.93295 -1.449714,-1.35307 -2.077924,-3.47931 -0.579885,-2.17458 -0.579885,-5.31562 v -10.3413 q 0,-3.09272 0.579885,-5.26729 0.62821,-2.17457 2.077924,-3.47931 1.449714,-1.35307 3.865904,-1.93296 2.41619,-0.6282 6.040474,-0.6282 h 22.857157 v 6.33041 h -22.51889 q -1.691333,0 -2.80278,0.28995 -1.063124,0.24161 -1.691333,0.86982 -0.62821,0.62821 -0.869829,1.69134 -0.241619,1.0148 -0.241619,2.51283 v 9.66476 q 0,1.54637 0.241619,2.56117 0.241619,1.0148 0.869829,1.64301 0.628209,0.6282 1.739656,0.86982 1.111448,0.24162 2.802781,0.24162 h 22.470566 v 6.2821 z"
           style="font-style:normal;font-variant:normal;font-weight:normal;font-stretch:normal;font-size:48.3238px;font-family:Neuropolitical;-inkscape-font-specification:Neuropolitical;fill:#ffa500;fill-opacity:1;stroke-width:0.354691"
           id="path855" />
        <path
           d="M 112.74169,196.09485 H 89.932859 l -4.687408,7.58684 h -8.456665 l 19.136224,-30.444 q 0.869829,-1.40139 2.077924,-2.31954 Q 99.211029,170 101.48225,170 q 2.22289,0 3.43099,0.91815 1.20809,0.91815 2.07792,2.31954 l 19.03958,30.444 h -8.50499 z M 93.363849,190.44097 H 109.3107 l -7.97342,-12.99911 z"
           style="font-style:normal;font-variant:normal;font-weight:normal;font-stretch:normal;font-size:48.3238px;font-family:Neuropolitical;-inkscape-font-specification:Neuropolitical;fill:#ffa500;fill-opacity:1;stroke-width:0.354691"
           id="path857" />
        <path
           d="m 139.80295,203.68169 q -3.62429,0 -6.04048,-0.57989 -2.41619,-0.62821 -3.8659,-1.93295 -1.44971,-1.35307 -2.07792,-3.47931 -0.57989,-2.17458 -0.57989,-5.31562 v -21.64906 h 7.29689 v 21.35911 q 0,1.44972 0.24162,2.46452 0.28995,0.96647 0.96648,1.64301 0.67653,0.62821 1.78798,0.91815 1.15977,0.28994 2.89943,0.28994 h 19.57114 v 6.2821 z"
           style="font-style:normal;font-variant:normal;font-weight:normal;font-stretch:normal;font-size:48.3238px;font-family:Neuropolitical;-inkscape-font-specification:Neuropolitical;fill:#ffa500;fill-opacity:1;stroke-width:0.354691"
           id="path859" />
      </g>
    </g>
  </g>
</svg>
