<?xml version="1.0" encoding="UTF-8" standalone="no"?>
<svg
   xmlns:dc="http://purl.org/dc/elements/1.1/"
   xmlns:cc="http://creativecommons.org/ns#"
   xmlns:rdf="http://www.w3.org/1999/02/22-rdf-syntax-ns#"
   xmlns:svg="http://www.w3.org/2000/svg"
   xmlns="http://www.w3.org/2000/svg"
   xmlns:sodipodi="http://sodipodi.sourceforge.net/DTD/sodipodi-0.dtd"
   xmlns:inkscape="http://www.inkscape.org/namespaces/inkscape"
   width="160.00005mm"
   height="200mm"
   viewBox="0 0 160.00005 200"
   version="1.1"
   id="svg8"
   inkscape:version="1.0.1 (3bc2e813f5, 2020-09-07)"
   sodipodi:docname="ecal-io_below_logo.svg">
  <defs
     id="defs2" />
  <sodipodi:namedview
     id="base"
     pagecolor="#ffffff"
     bordercolor="#666666"
     borderopacity="1.0"
     inkscape:pageopacity="0.0"
     inkscape:pageshadow="2"
     inkscape:zoom="0.35"
     inkscape:cx="-139.01942"
     inkscape:cy="54.656251"
     inkscape:document-units="mm"
     inkscape:current-layer="layer1"
     inkscape:document-rotation="0"
     showgrid="true"
     fit-margin-top="0"
     fit-margin-left="0"
     fit-margin-right="0"
     fit-margin-bottom="0"
     inkscape:window-width="1920"
     inkscape:window-height="1137"
     inkscape:window-x="1272"
     inkscape:window-y="-8"
     inkscape:window-maximized="1">
    <inkscape:grid
       type="xygrid"
       id="grid917"
       units="cm"
       spacingx="9.9999997"
       spacingy="9.9999997"
       empspacing="8"
       originx="2.0265579e-05"
       originy="1.1920929e-06" />
  </sodipodi:namedview>
  <metadata
     id="metadata5">
    <rdf:RDF>
      <cc:Work
         rdf:about="">
        <dc:format>image/svg+xml</dc:format>
        <dc:type
           rdf:resource="http://purl.org/dc/dcmitype/StillImage" />
        <dc:title></dc:title>
      </cc:Work>
    </rdf:RDF>
  </metadata>
  <g
     inkscape:label="Ebene 1"
     inkscape:groupmode="layer"
     id="layer1"
     transform="translate(2.0265579e-5)">
    <ellipse
       style="fill:none;fill-opacity:1;stroke:#ffa500;stroke-width:4.41565;stroke-linejoin:miter;stroke-dasharray:none;stroke-opacity:1;paint-order:normal"
       id="path65-9"
       cx="57.921753"
       cy="13.76528"
       rx="11.557458"
       ry="11.557456" />
    <ellipse
       style="fill:none;fill-opacity:1;stroke:#ffa500;stroke-width:4.41565;stroke-linejoin:miter;stroke-dasharray:none;stroke-opacity:1;paint-order:normal"
       id="path65-9-8"
       cx="102.11187"
       cy="68.994514"
       rx="11.557458"
       ry="11.557456" />
    <ellipse
       style="fill:none;fill-opacity:1;stroke:#ffa500;stroke-width:4.41565;stroke-linejoin:miter;stroke-dasharray:none;stroke-opacity:1;paint-order:normal"
       id="path65-9-8-6"
       cx="102.07824"
       cy="146.23473"
       rx="11.557458"
       ry="11.557456" />
    <ellipse
       style="fill:none;fill-opacity:1;stroke:#ffa500;stroke-width:4.41565;stroke-linejoin:miter;stroke-dasharray:none;stroke-opacity:1;paint-order:normal"
       id="path65"
       cx="13.793492"
       cy="46.910862"
       rx="11.585688"
       ry="11.585686" />
    <circle
       style="fill:#ffa500;fill-opacity:1;stroke:none;stroke-width:0;stroke-linejoin:miter;stroke-dasharray:none;stroke-opacity:1;paint-order:normal"
       id="path3625"
       cx="13.798878"
       cy="46.916271"
       r="6.0715175" />
    <ellipse
       style="fill:none;fill-opacity:1;stroke:#ffa500;stroke-width:4.41565;stroke-linejoin:miter;stroke-dasharray:none;stroke-opacity:1;paint-order:normal"
       id="path65-97"
       cx="146.23474"
       cy="46.882633"
       rx="11.557458"
       ry="11.557456" />
    <circle
       style="fill:#ffa500;fill-opacity:1;stroke:none;stroke-width:0;stroke-linejoin:miter;stroke-dasharray:none;stroke-opacity:1;paint-order:normal"
       id="path3625-3"
       cx="146.26836"
       cy="46.916271"
       r="6.0715175" />
    <ellipse
       style="fill:none;fill-opacity:1;stroke:#ffa500;stroke-width:4.41565;stroke-linejoin:miter;stroke-dasharray:none;stroke-opacity:1;paint-order:normal"
       id="path65-97-8"
       cx="57.921753"
       cy="91.039139"
       rx="11.557458"
       ry="11.557456" />
    <circle
       style="fill:#ffa500;fill-opacity:1;stroke:none;stroke-width:0;stroke-linejoin:miter;stroke-dasharray:none;stroke-opacity:1;paint-order:normal"
       id="path3625-3-7"
       cx="57.955376"
       cy="91.072762"
       r="6.0715175" />
    <ellipse
       style="fill:none;fill-opacity:1;stroke:#ffa500;stroke-width:4.41565;stroke-linejoin:miter;stroke-dasharray:none;stroke-opacity:1;paint-order:normal"
       id="path65-97-8-3"
       cx="146.23474"
       cy="124.15648"
       rx="11.557458"
       ry="11.557456" />
    <circle
       style="fill:#ffa500;fill-opacity:1;stroke:none;stroke-width:0;stroke-linejoin:miter;stroke-dasharray:none;stroke-opacity:1;paint-order:normal"
       id="path3625-3-7-7"
       cx="146.26836"
       cy="124.19009"
       r="6.0715175" />
    <path
       style="fill:#000000;fill-opacity:1;stroke:#ffa500;stroke-width:4.41565;stroke-linejoin:miter;stroke-dasharray:none;stroke-opacity:1;paint-order:normal"
       d="M 23.039696,39.883261 48.500898,20.689439"
       id="path7177"
       sodipodi:nodetypes="cc" />
    <path
       style="fill:#000000;fill-opacity:1;stroke:#ffa500;stroke-width:4.41565;stroke-linejoin:miter;stroke-dasharray:none;stroke-opacity:1;paint-order:normal"
       d="M 24.998248,50.459448 90.022237,67.694731"
       id="path7179"
       sodipodi:nodetypes="cc" />
    <path
       style="fill:#000000;fill-opacity:1;stroke:#ffa500;stroke-width:4.416;stroke-linejoin:miter;stroke-miterlimit:4;stroke-dasharray:none;stroke-opacity:1;paint-order:normal"
       d="M 69.261571,15.597191 135.4607,41.841822"
       id="path7181"
       sodipodi:nodetypes="cc" />
    <path
       style="fill:#000000;fill-opacity:1;stroke:#ffa500;stroke-width:4.41565;stroke-linejoin:miter;stroke-dasharray:none;stroke-opacity:1;paint-order:normal"
       d="M 135.85241,51.634584 112.74147,63.77762"
       id="path7183"
       sodipodi:nodetypes="cc" />
    <path
       style="fill:#000000;fill-opacity:1;stroke:#ffa500;stroke-width:4.41565;stroke-linejoin:miter;stroke-dasharray:none;stroke-opacity:1;paint-order:normal"
       d="M 68.478148,85.713428 91.589086,73.962105"
       id="path7185"
       sodipodi:nodetypes="cc" />
    <path
       style="fill:#000000;fill-opacity:1;stroke:#ffa500;stroke-width:4.41565;stroke-linejoin:miter;stroke-dasharray:none;stroke-opacity:1;paint-order:normal"
       d="M 138.59438,115.48345 109.21607,77.487504"
       id="path7189" />
    <path
       style="fill:none;fill-opacity:1;stroke:#ffa500;stroke-width:4.41565;stroke-linecap:round;stroke-linejoin:round;stroke-dasharray:none;stroke-opacity:1;paint-order:normal"
       d="m 64.917141,100.56284 28.986606,37.21252"
       id="path7217"
       sodipodi:nodetypes="cc" />
    <path
       style="display:inline;fill:none;fill-opacity:1;stroke:#ffa500;stroke-width:4.41565;stroke-linecap:round;stroke-linejoin:round;stroke-dasharray:none;stroke-opacity:1;paint-order:normal"
       d="m 113.48928,141.30075 21.93581,-10.57619"
       id="path7219"
       sodipodi:nodetypes="cc" />
    <g
       aria-label="eCAL.io"
       id="text921"
       style="font-size:34.5797px;line-height:1.25;font-family:sans-serif;-inkscape-font-specification:sans-serif;fill:#ffa500;fill-opacity:1;stroke-width:0.254144"
       transform="translate(0,5.03346)">
      <path
         d="m 5.1523753,187.49732 v 0.86449 q 0,0.8645 0.1383188,1.38319 0.1383189,0.5187 0.4841159,0.82992 0.3803767,0.27663 0.9682316,0.38037 0.6224346,0.10374 1.5215068,0.10374 h 6.0860276 v 3.90751 H 8.2645484 q -4.4607814,0 -6.3626649,-1.69441 Q -2.2888184e-8,191.57773 -2.2888184e-8,187.84312 v -4.32246 q 0,-2.04021 0.380376702888184,-3.42339 0.41495641,-1.41777 1.38318802,-2.24768 1.0028113,-0.8645 2.6280572,-1.24487 1.625246,-0.38038 4.1149844,-0.38038 h 9.0598817 q 2.005622,0 3.319651,0.38038 1.348608,0.38037 2.109362,1.07197 0.795333,0.65701 1.10655,1.62524 0.311218,0.93366 0.311218,2.04021 v 6.15518 z m 14.1085177,-5.74023 q 0,-0.93365 -0.484116,-1.24487 -0.449536,-0.31121 -1.625246,-0.31121 H 8.5757657 q -0.9682316,0 -1.6252459,0.10373 -0.6570143,0.0692 -1.0719707,0.38038 -0.3803767,0.31122 -0.5532753,0.89907 -0.1728985,0.58786 -0.1728985,1.59067 v 1.00281 H 19.260893 Z"
         style="font-style:normal;font-variant:normal;font-weight:normal;font-stretch:normal;font-size:34.5797px;font-family:Neuropolitical;-inkscape-font-specification:Neuropolitical;fill:#ffa500;fill-opacity:1;stroke-width:0.254144"
         id="path852" />
      <path
         d="m 36.965635,194.96654 q -2.593478,0 -4.322463,-0.41496 -1.728985,-0.44954 -2.766376,-1.38319 -1.037391,-0.96823 -1.486927,-2.48974 -0.414956,-1.55608 -0.414956,-3.80376 v -7.40006 q 0,-2.2131 0.414956,-3.76919 0.449536,-1.55608 1.486927,-2.48973 1.037391,-0.96824 2.766376,-1.38319 1.728985,-0.44954 4.322463,-0.44954 h 16.356198 v 4.52994 h -16.11414 q -1.21029,0 -2.005623,0.20748 -0.760753,0.1729 -1.210289,0.62244 -0.449537,0.44953 -0.622435,1.21028 -0.172899,0.72618 -0.172899,1.79815 v 6.91594 q 0,1.10655 0.172899,1.83272 0.172898,0.72618 0.622435,1.17571 0.449536,0.44954 1.244869,0.62244 0.795333,0.1729 2.005622,0.1729 h 16.079561 v 4.49536 z"
         style="font-style:normal;font-variant:normal;font-weight:normal;font-stretch:normal;font-size:34.5797px;font-family:Neuropolitical;-inkscape-font-specification:Neuropolitical;fill:#ffa500;fill-opacity:1;stroke-width:0.254144"
         id="path854" />
      <path
         d="M 80.67432,189.53752 H 64.352701 l -3.35423,5.42902 h -6.051448 l 13.693561,-21.78521 q 0.622435,-1.00282 1.486927,-1.65983 0.864493,-0.65701 2.489739,-0.65701 1.590666,0 2.455159,0.65701 0.864492,0.65701 1.486927,1.65983 l 13.624402,21.78521 H 84.09771 Z M 66.80786,185.4917 h 11.411301 l -5.70565,-9.30194 z"
         style="font-style:normal;font-variant:normal;font-weight:normal;font-stretch:normal;font-size:34.5797px;font-family:Neuropolitical;-inkscape-font-specification:Neuropolitical;fill:#ffa500;fill-opacity:1;stroke-width:0.254144"
         id="path856" />
      <path
         d="m 100.03889,194.96654 q -2.593474,0 -4.32246,-0.41496 -1.728985,-0.44954 -2.766376,-1.38319 -1.037391,-0.96823 -1.486927,-2.48974 -0.414956,-1.55608 -0.414956,-3.80376 v -15.49171 h 5.221535 v 15.28423 q 0,1.03739 0.172898,1.76356 0.207478,0.6916 0.691594,1.17571 0.484116,0.44954 1.279449,0.65702 0.829913,0.20748 2.074783,0.20748 h 14.00478 v 4.49536 z"
         style="font-style:normal;font-variant:normal;font-weight:normal;font-stretch:normal;font-size:34.5797px;font-family:Neuropolitical;-inkscape-font-specification:Neuropolitical;fill:#ffa500;fill-opacity:1;stroke-width:0.254144"
         id="path858" />
      <path
         d="m 118.98856,194.96654 q -0.96823,0 -1.38319,-0.3458 -0.38038,-0.38038 -0.38038,-1.21029 v -2.83553 q 0,-0.79534 0.38038,-1.17571 0.41496,-0.38038 1.38319,-0.38038 h 1.6944 q 1.00281,0 1.38319,0.38038 0.41496,0.38037 0.41496,1.17571 v 2.83553 q 0,0.82991 -0.41496,1.21029 -0.38038,0.3458 -1.38319,0.3458 z"
         style="font-style:normal;font-variant:normal;font-weight:normal;font-stretch:normal;font-size:34.5797px;font-family:Neuropolitical;-inkscape-font-specification:Neuropolitical;fill:#ffa500;fill-opacity:1;stroke-width:0.254144"
         id="path860" />
      <path
         d="m 126.56146,194.96654 v -18.25808 h 5.25612 v 18.25808 z m 1.76357,-19.81417 q -0.96823,0 -1.38319,-0.38038 -0.38038,-0.38037 -0.38038,-1.21029 v -2.00562 q 0,-0.82991 0.38038,-1.17571 0.41496,-0.38038 1.38319,-0.38038 h 1.6944 q 1.00281,0 1.38319,0.38038 0.41496,0.3458 0.41496,1.17571 v 2.00562 q 0,0.82992 -0.41496,1.21029 -0.38038,0.38038 -1.38319,0.38038 z"
         style="font-style:normal;font-variant:normal;font-weight:normal;font-stretch:normal;font-size:34.5797px;font-family:Neuropolitical;-inkscape-font-specification:Neuropolitical;fill:#ffa500;fill-opacity:1;stroke-width:0.254144"
         id="path862" />
      <path
         d="m 144.71576,194.96654 q -2.59348,0 -4.32246,-0.41496 -1.72899,-0.44954 -2.76638,-1.38319 -1.03739,-0.96823 -1.48693,-2.48974 -0.41495,-1.55608 -0.41495,-3.80376 v -2.52432 q 0,-2.24768 0.41495,-3.80377 0.44954,-1.55608 1.48693,-2.48974 1.03739,-0.96823 2.76638,-1.38318 1.72898,-0.44954 4.32246,-0.44954 h 6.25892 q 2.62806,0 4.35705,0.44954 1.72898,0.41495 2.76637,1.38318 1.03739,0.96824 1.45235,2.52432 0.44954,1.55609 0.44954,3.80377 v 2.48974 q 0,2.24768 -0.44954,3.80376 -0.41496,1.52151 -1.45235,2.48974 -1.03739,0.93365 -2.76637,1.38319 -1.72899,0.41496 -4.35705,0.41496 z m 10.13185,-10.44307 q 0,-1.17571 -0.20748,-1.93647 -0.1729,-0.76075 -0.69159,-1.17571 -0.48412,-0.44953 -1.38319,-0.58785 -0.89907,-0.1729 -2.28226,-0.1729 h -4.87574 q -1.38319,0 -2.28226,0.1729 -0.86449,0.13832 -1.38319,0.58785 -0.48411,0.41496 -0.69159,1.17571 -0.1729,0.76076 -0.1729,1.93647 v 2.2131 q 0,1.17571 0.1729,1.93646 0.20748,0.72618 0.69159,1.17571 0.5187,0.41496 1.38319,0.58786 0.89907,0.1729 2.28226,0.1729 h 4.87574 q 1.38319,0 2.28226,-0.1729 0.89907,-0.1729 1.38319,-0.58786 0.51869,-0.44953 0.69159,-1.17571 0.20748,-0.76075 0.20748,-1.93646 z"
         style="font-style:normal;font-variant:normal;font-weight:normal;font-stretch:normal;font-size:34.5797px;font-family:Neuropolitical;-inkscape-font-specification:Neuropolitical;fill:#ffa500;fill-opacity:1;stroke-width:0.254144"
         id="path864" />
    </g>
  </g>
</svg>
