<?xml version="1.0" encoding="UTF-8" standalone="no"?>
<!-- Generator: Adobe Illustrator 19.0.0, SVG Export Plug-In . SVG Version: 6.00 Build 0)  -->

<svg
   xmlns:dc="http://purl.org/dc/elements/1.1/"
   xmlns:cc="http://creativecommons.org/ns#"
   xmlns:rdf="http://www.w3.org/1999/02/22-rdf-syntax-ns#"
   xmlns:svg="http://www.w3.org/2000/svg"
   xmlns="http://www.w3.org/2000/svg"
   xmlns:sodipodi="http://sodipodi.sourceforge.net/DTD/sodipodi-0.dtd"
   xmlns:inkscape="http://www.inkscape.org/namespaces/inkscape"
   version="1.1"
   id="Capa_1"
   x="0px"
   y="0px"
   viewBox="0 0 409.6 409.6"
   style="enable-background:new 0 0 409.6 409.6;"
   xml:space="preserve"
   sodipodi:docname="import_from_cloud.svg"
   inkscape:version="0.92.2 (5c3e80d, 2017-08-06)"><metadata
     id="metadata47"><rdf:RDF><cc:Work
         rdf:about=""><dc:format>image/svg+xml</dc:format><dc:type
           rdf:resource="http://purl.org/dc/dcmitype/StillImage" /></cc:Work></rdf:RDF></metadata><defs
     id="defs45" /><sodipodi:namedview
     pagecolor="#ffffff"
     bordercolor="#666666"
     borderopacity="1"
     objecttolerance="10"
     gridtolerance="10"
     guidetolerance="10"
     inkscape:pageopacity="0"
     inkscape:pageshadow="2"
     inkscape:window-width="1920"
     inkscape:window-height="1138"
     id="namedview43"
     showgrid="false"
     inkscape:zoom="0.81483007"
     inkscape:cx="305.79508"
     inkscape:cy="278.72564"
     inkscape:window-x="-6"
     inkscape:window-y="-6"
     inkscape:window-maximized="1"
     inkscape:current-layer="Capa_1" /><path
     style="fill:#2d93ba"
     d="M 310.908,17.953 C 215.233,-23.609 177.103,39.483 177.103,39.483 68.352,22.846 63.227,115.218 63.227,115.218 31.942,126.39 0,154.058 0,186.421 c 0,42.242 37.728,76.487 84.268,76.487 h 241.063 c 27.424,-4.142 84.268,-34.244 84.268,-76.487 0,-32.362 -18.439,-70.687 -49.725,-81.859 10e-4,0 2.848,-64.1 -48.966,-86.609 z"
     id="path2"
     inkscape:connector-curvature="0" /><path
     style="fill:#27a2db"
     d="M 84.268,262.907 C 37.728,262.907 0,228.663 0,186.421 0,154.059 31.942,126.39 63.227,115.218 c 0,0 5.124,-92.371 113.876,-75.735 0,0 15.931,-26.361 53.038,-33.779 v 257.203 z"
     id="path4"
     inkscape:connector-curvature="0" /><polygon
     style="fill:#2f4859"
     points="254.579,209.415 254.579,302.993 309.413,302.993 230.142,393.818 150.87,302.993 203.917,302.993 203.917,209.415 "
     id="polygon6"
     transform="matrix(1.7276353,0,0,1.2462446,-167.45907,-82.975551)" /><polygon
     style="fill:#3a556a"
     points="203.917,209.415 203.917,302.993 150.87,302.993 230.142,393.818 230.142,209.415 "
     id="polygon8"
     transform="matrix(1.7276353,0,0,1.2462446,-167.45907,-82.975551)" /><g
     id="g12" /><g
     id="g14" /><g
     id="g16" /><g
     id="g18" /><g
     id="g20" /><g
     id="g22" /><g
     id="g24" /><g
     id="g26" /><g
     id="g28" /><g
     id="g30" /><g
     id="g32" /><g
     id="g34" /><g
     id="g36" /><g
     id="g38" /><g
     id="g40" /></svg>