<?xml version="1.0" encoding="UTF-8" standalone="no"?>
<!-- Generator: Adobe Illustrator 19.0.0, SVG Export Plug-In . SVG Version: 6.00 Build 0)  -->

<svg
   xmlns:dc="http://purl.org/dc/elements/1.1/"
   xmlns:cc="http://creativecommons.org/ns#"
   xmlns:rdf="http://www.w3.org/1999/02/22-rdf-syntax-ns#"
   xmlns:svg="http://www.w3.org/2000/svg"
   xmlns="http://www.w3.org/2000/svg"
   xmlns:sodipodi="http://sodipodi.sourceforge.net/DTD/sodipodi-0.dtd"
   xmlns:inkscape="http://www.inkscape.org/namespaces/inkscape"
   version="1.1"
   id="Capa_1"
   x="0px"
   y="0px"
   viewBox="0 0 384 384"
   style="enable-background:new 0 0 384 384;"
   xml:space="preserve"
   sodipodi:docname="remove.svg"
   inkscape:version="0.92.2 (5c3e80d, 2017-08-06)"><metadata
     id="metadata63"><rdf:RDF><cc:Work
         rdf:about=""><dc:format>image/svg+xml</dc:format><dc:type
           rdf:resource="http://purl.org/dc/dcmitype/StillImage" /></cc:Work></rdf:RDF></metadata><defs
     id="defs61" /><sodipodi:namedview
     pagecolor="#ffffff"
     bordercolor="#666666"
     borderopacity="1"
     objecttolerance="10"
     gridtolerance="10"
     guidetolerance="10"
     inkscape:pageopacity="0"
     inkscape:pageshadow="2"
     inkscape:window-width="1920"
     inkscape:window-height="1138"
     id="namedview59"
     showgrid="false"
     inkscape:zoom="0.61458333"
     inkscape:cx="245.69492"
     inkscape:cy="192"
     inkscape:window-x="-6"
     inkscape:window-y="-6"
     inkscape:window-maximized="1"
     inkscape:current-layer="Capa_1" /><g
     id="g72"
     transform="matrix(1.7145535,0,0,1.7145535,-137.19342,-277.64277)"><path
       id="path14"
       d="m 111.085,211.88 17.13,165.885 c 0.365,3.542 3.35,6.235 6.912,6.235 h 113.748 c 3.561,0 6.546,-2.692 6.912,-6.235 L 272.916,211.88 Z"
       style="fill:#64798a"
       inkscape:connector-curvature="0" /><g
       id="g26"><path
         id="path16"
         d="m 280.031,185.284 h -48.588 v -12.821 c 0,-4.767 -3.88,-8.646 -8.652,-8.646 h -61.582 c -4.773,0 -8.652,3.879 -8.652,8.646 v 12.821 h -48.589 c -1.687,0 -3.053,1.366 -3.053,3.052 v 20.49 c 0,1.687 1.366,3.054 3.053,3.054 h 176.063 c 1.686,0 3.053,-1.367 3.053,-3.054 v -20.49 c 10e-4,-1.686 -1.367,-3.052 -3.053,-3.052 z M 159.538,172.463 c 0,-0.921 0.751,-1.664 1.671,-1.664 h 61.582 c 0.921,0 1.67,0.743 1.67,1.664 v 12.821 h -64.923 z"
         style="fill:#3a556a"
         inkscape:connector-curvature="0" /><path
         id="path18"
         d="m 147.119,232.709 c -2.863,0 -5.184,2.321 -5.184,5.185 v 109.578 c 0,2.863 2.321,5.186 5.184,5.186 2.864,0 5.186,-2.322 5.186,-5.186 V 237.894 c 0,-2.863 -2.321,-5.185 -5.186,-5.185 z"
         style="fill:#3a556a"
         inkscape:connector-curvature="0" /><path
         id="path20"
         d="m 176.847,232.709 c -2.864,0 -5.185,2.321 -5.185,5.185 v 109.578 c 0,2.863 2.321,5.186 5.185,5.186 2.863,0 5.185,-2.322 5.185,-5.186 V 237.894 c 0,-2.863 -2.322,-5.185 -5.185,-5.185 z"
         style="fill:#3a556a"
         inkscape:connector-curvature="0" /><path
         id="path22"
         d="m 206.575,232.709 c -2.864,0 -5.186,2.321 -5.186,5.185 v 109.578 c 0,2.863 2.322,5.186 5.186,5.186 2.863,0 5.184,-2.322 5.184,-5.186 V 237.894 c 0,-2.863 -2.321,-5.185 -5.184,-5.185 z"
         style="fill:#3a556a"
         inkscape:connector-curvature="0" /><path
         id="path24"
         d="m 236.303,232.709 c -2.863,0 -5.185,2.321 -5.185,5.185 v 109.578 c 0,2.863 2.322,5.186 5.185,5.186 2.864,0 5.186,-2.322 5.186,-5.186 V 237.894 c -0.001,-2.863 -2.322,-5.185 -5.186,-5.185 z"
         style="fill:#3a556a"
         inkscape:connector-curvature="0" /></g></g><g
     id="g28" /><g
     id="g30" /><g
     id="g32" /><g
     id="g34" /><g
     id="g36" /><g
     id="g38" /><g
     id="g40" /><g
     id="g42" /><g
     id="g44" /><g
     id="g46" /><g
     id="g48" /><g
     id="g50" /><g
     id="g52" /><g
     id="g54" /><g
     id="g56" /></svg>