<?xml version="1.0" encoding="UTF-8" standalone="no"?>
<!-- Generator: Adobe Illustrator 19.0.0, SVG Export Plug-In . SVG Version: 6.00 Build 0)  -->

<svg
   xmlns:dc="http://purl.org/dc/elements/1.1/"
   xmlns:cc="http://creativecommons.org/ns#"
   xmlns:rdf="http://www.w3.org/1999/02/22-rdf-syntax-ns#"
   xmlns:svg="http://www.w3.org/2000/svg"
   xmlns="http://www.w3.org/2000/svg"
   xmlns:sodipodi="http://sodipodi.sourceforge.net/DTD/sodipodi-0.dtd"
   xmlns:inkscape="http://www.inkscape.org/namespaces/inkscape"
   version="1.1"
   id="Capa_1"
   x="0px"
   y="0px"
   viewBox="0 0 409.6 409.6"
   style="enable-background:new 0 0 409.6 409.6;"
   xml:space="preserve"
   sodipodi:docname="update_from_cloud.svg"
   inkscape:version="0.92.2 (5c3e80d, 2017-08-06)"><metadata
     id="metadata3860"><rdf:RDF><cc:Work
         rdf:about=""><dc:format>image/svg+xml</dc:format><dc:type
           rdf:resource="http://purl.org/dc/dcmitype/StillImage" /></cc:Work></rdf:RDF></metadata><defs
     id="defs3858" /><sodipodi:namedview
     pagecolor="#ffffff"
     bordercolor="#666666"
     borderopacity="1"
     objecttolerance="10"
     gridtolerance="10"
     guidetolerance="10"
     inkscape:pageopacity="0"
     inkscape:pageshadow="2"
     inkscape:window-width="1920"
     inkscape:window-height="1138"
     id="namedview3856"
     showgrid="false"
     inkscape:zoom="1.6296601"
     inkscape:cx="155.92947"
     inkscape:cy="174.33317"
     inkscape:window-x="-6"
     inkscape:window-y="-6"
     inkscape:window-maximized="1"
     inkscape:current-layer="Capa_1" /><path
     style="fill:#2d93ba"
     d="m 310.908,15.320381 c -95.675,-41.562 -133.805,21.53 -133.805,21.53 C 68.352,20.213381 63.227,112.58438 63.227,112.58438 31.942,123.75638 0,151.42438 0,183.78738 c 0,42.242 37.728,76.487 84.268,76.487 h 241.063 c 27.424,-4.142 84.268,-34.244 84.268,-76.487 0,-32.362 -18.439,-70.687 -49.725,-81.859 10e-4,0 2.848,-64.099999 -48.966,-86.607999 z"
     id="path3815"
     inkscape:connector-curvature="0" /><path
     style="fill:#27a2db"
     d="m 84.268,260.27338 c -46.54,0 -84.268,-34.244 -84.268,-76.486 0,-32.362 31.942,-60.031 63.227,-71.203 0,0 5.124,-92.370999 113.876,-75.734999 0,0 15.931,-26.361 53.038,-33.7789997 V 260.27338 Z"
     id="path3817"
     inkscape:connector-curvature="0" /><circle
     style="fill:#ebf0f3;stroke-width:1.28612506"
     cx="204.8"
     cy="257.3555"
     r="146.18613"
     id="circle3819" /><g
     id="g3864"
     transform="matrix(1.2861251,0,0,1.2861251,-66.887485,-73.635858)"><path
       id="path3821"
       d="m 271.153,276.982 c -4.263,17.324 -16.089,32.622 -33.526,40.626 -30.344,13.928 -66.361,0.572 -80.289,-29.77 l 16.515,-7.581 -44.98,-24.343 -13.413,51.147 17.42,-7.997 c 20.119,43.83 72.144,63.12 115.973,43.002 24.209,-11.112 40.932,-31.96 47.662,-55.783"
       style="fill:#dc8744"
       inkscape:connector-curvature="0" /><path
       id="path3823"
       d="m 151.337,238.742 c 4.263,-17.324 16.089,-32.622 33.526,-40.626 30.344,-13.928 66.361,-0.572 80.289,29.77 l -16.515,7.581 44.98,24.343 13.413,-51.147 -17.42,7.997 c -20.119,-43.83 -72.144,-63.12 -115.973,-43.002 -24.21,11.113 -40.932,31.96 -47.662,55.783"
       style="fill:#e56353"
       inkscape:connector-curvature="0" /></g><g
     id="g3825" /><g
     id="g3827" /><g
     id="g3829" /><g
     id="g3831" /><g
     id="g3833" /><g
     id="g3835" /><g
     id="g3837" /><g
     id="g3839" /><g
     id="g3841" /><g
     id="g3843" /><g
     id="g3845" /><g
     id="g3847" /><g
     id="g3849" /><g
     id="g3851" /><g
     id="g3853" /></svg>