<?xml version="1.0" encoding="UTF-8" standalone="no"?>
<svg
   xmlns:dc="http://purl.org/dc/elements/1.1/"
   xmlns:cc="http://creativecommons.org/ns#"
   xmlns:rdf="http://www.w3.org/1999/02/22-rdf-syntax-ns#"
   xmlns:svg="http://www.w3.org/2000/svg"
   xmlns="http://www.w3.org/2000/svg"
   xmlns:sodipodi="http://sodipodi.sourceforge.net/DTD/sodipodi-0.dtd"
   xmlns:inkscape="http://www.inkscape.org/namespaces/inkscape"
   width="3300"
   height="660"
   viewBox="0 0 873.12495 174.62499"
   version="1.1"
   id="svg8"
   sodipodi:docname="rec.svg"
   inkscape:version="1.0.1 (3bc2e813f5, 2020-09-07)">
  <defs
     id="defs2">
    <clipPath
       id="clipEmfPath1"
       clipPathUnits="userSpaceOnUse">
      <path
         inkscape:connector-curvature="0"
         id="path5723"
         d="M -89.199339,-108.0792 H 704.55478 V 1014.4725 H -89.199339" />
    </clipPath>
  </defs>
  <sodipodi:namedview
     id="base"
     pagecolor="#ffffff"
     bordercolor="#666666"
     borderopacity="1.0"
     inkscape:pageopacity="0.0"
     inkscape:pageshadow="2"
     inkscape:zoom="0.32"
     inkscape:cx="1552.7903"
     inkscape:cy="65.606776"
     inkscape:document-units="mm"
     inkscape:current-layer="layer1"
     showgrid="true"
     units="px"
     inkscape:window-width="1920"
     inkscape:window-height="1129"
     inkscape:window-x="1912"
     inkscape:window-y="-8"
     inkscape:window-maximized="1"
     inkscape:document-rotation="0"
     fit-margin-top="0"
     fit-margin-left="0"
     fit-margin-right="0"
     fit-margin-bottom="0">
    <inkscape:grid
       type="xygrid"
       id="grid4518"
       spacingx="2.1166666"
       spacingy="2.1166666"
       empspacing="4"
       originx="1.0791014e-07"
       originy="-2.1350096e-06" />
  </sodipodi:namedview>
  <metadata
     id="metadata5">
    <rdf:RDF>
      <cc:Work
         rdf:about="">
        <dc:format>image/svg+xml</dc:format>
        <dc:type
           rdf:resource="http://purl.org/dc/dcmitype/StillImage" />
        <dc:title />
      </cc:Work>
    </rdf:RDF>
  </metadata>
  <g
     inkscape:label="Ebene 1"
     inkscape:groupmode="layer"
     id="layer1"
     transform="translate(57.618498,-132.72428)">
    <g
       aria-label="rec"
       id="text892"
       style="font-size:180.622px;line-height:1.25;font-family:sans-serif;-inkscape-font-specification:sans-serif;display:inline;stroke-width:0.264583"
       inkscape:label="rec">
      <path
         d="m 207.53415,270.61093 v -56.7153 q 0,-11.01795 2.5287,-18.78469 2.52871,-7.76675 7.94737,-12.64354 5.59928,-5.05742 14.26914,-7.4055 8.66985,-2.34809 21.13277,-2.34809 h 17.52034 v 21.85526 h -16.79785 q -5.59928,0 -9.39234,0.90311 -3.79307,0.90311 -6.14115,3.07058 -2.16747,2.16746 -3.2512,5.96052 -0.90311,3.79306 -0.90311,9.57297 v 56.53468 z"
         style="font-style:normal;font-variant:normal;font-weight:normal;font-stretch:normal;font-size:180.622px;font-family:Neuropolitical;-inkscape-font-specification:Neuropolitical;text-align:center;text-anchor:middle;fill:#ffa500;fill-opacity:1;stroke-width:0.264583"
         id="path876" />
      <path
         d="m 310.30758,231.59658 v 4.51555 q 0,4.51555 0.72248,7.22488 0.72249,2.70933 2.52871,4.33493 1.98684,1.44497 5.05742,1.98684 3.25119,0.54187 7.94736,0.54187 h 31.78948 v 20.41028 h -31.78948 q -23.30023,0 -33.23444,-8.85048 -9.93421,-8.85047 -9.93421,-28.35765 v -22.57775 q 0,-10.6567 1.98684,-17.88158 2.16746,-7.4055 7.22488,-11.74043 5.23804,-4.51555 13.72727,-6.50239 8.48924,-1.98684 21.49402,-1.98684 h 47.32296 q 10.47608,0 17.33971,1.98684 7.04426,1.98684 11.01794,5.59928 4.15431,3.43182 5.77991,8.48924 1.6256,4.87679 1.6256,10.6567 v 32.15071 z m 73.69377,-29.98325 q 0,-4.87679 -2.52871,-6.50239 -2.34808,-1.6256 -8.48923,-1.6256 h -44.79426 q -5.05741,0 -8.48923,0.54187 -3.43182,0.36124 -5.59928,1.98684 -1.98684,1.6256 -2.88995,4.69617 -0.90311,3.07057 -0.90311,8.30861 v 5.23804 h 73.69377 z"
         style="font-style:normal;font-variant:normal;font-weight:normal;font-stretch:normal;font-size:180.622px;font-family:Neuropolitical;-inkscape-font-specification:Neuropolitical;text-align:center;text-anchor:middle;fill:#ffa500;fill-opacity:1;stroke-width:0.264583"
         id="path878" />
      <path
         d="m 476.47947,270.61093 q -13.54665,0 -22.57775,-2.16746 -9.0311,-2.34809 -14.44976,-7.22488 -5.41866,-5.05742 -7.76674,-13.00479 -2.16747,-8.12799 -2.16747,-19.86842 v -13.1854 q 0,-11.74043 2.16747,-19.86842 2.34808,-8.12799 7.76674,-13.00478 5.41866,-5.05742 14.44976,-7.22488 9.0311,-2.34809 22.57775,-2.34809 h 70.80382 v 23.11962 h -69.90071 q -6.32177,0 -10.47607,0.90311 -3.97369,0.90311 -6.32177,3.25119 -2.34809,2.16747 -3.2512,6.14115 -0.90311,3.97368 -0.90311,9.93421 v 11.55981 q 0,5.7799 0.90311,9.75358 0.90311,3.79307 3.2512,6.14115 2.34808,2.34809 6.32177,3.43182 4.1543,0.90311 10.47607,0.90311 h 70.08134 v 22.75837 z"
         style="font-style:normal;font-variant:normal;font-weight:normal;font-stretch:normal;font-size:180.622px;font-family:Neuropolitical;-inkscape-font-specification:Neuropolitical;text-align:center;text-anchor:middle;fill:#ffa500;fill-opacity:1;stroke-width:0.264583"
         id="path880" />
    </g>
  </g>
</svg>
