<?xml version="1.0" encoding="iso-8859-1"?>
<!-- Generator: Adobe Illustrator 16.0.0, SVG Export Plug-In . SVG Version: 6.00 Build 0)  -->
<!DOCTYPE svg PUBLIC "-//W3C//DTD SVG 1.1//EN" "http://www.w3.org/Graphics/SVG/1.1/DTD/svg11.dtd">
<svg version="1.1" id="Capa_1" xmlns="http://www.w3.org/2000/svg" xmlns:xlink="http://www.w3.org/1999/xlink" x="0px" y="0px"
	 width="468.549px" height="468.549px" viewBox="0 0 468.549 468.549" style="enable-background:new 0 0 468.549 468.549;"
	 xml:space="preserve">
<g>
	<g>
		<path d="M463.155,218.764l-0.482-0.611c-2.4-3.037-24.559-30.482-62.927-58.669c-52.435-38.523-109.653-58.886-165.471-58.886
			s-113.037,20.362-165.472,58.885c-38.351,28.175-60.52,55.626-62.922,58.664l-0.492,0.623c-7.187,9.09-7.185,21.928,0.005,31.016
			l0.483,0.611c2.4,3.037,24.559,30.482,62.926,58.669c52.435,38.522,109.653,58.886,165.472,58.886s113.037-20.361,165.471-58.885
			c38.352-28.175,60.521-55.626,62.922-58.664l0.492-0.623C470.347,240.689,470.345,227.852,463.155,218.764z M368.253,267.676
			c-30.151,22.023-77.871,48.275-133.978,48.275s-103.827-26.252-133.979-48.273c-16.321-11.922-29.448-23.926-38.856-33.403
			c9.41-9.478,22.537-21.483,38.855-33.402c30.152-22.023,77.872-48.275,133.979-48.275s103.827,26.252,133.979,48.274
			c16.32,11.921,29.447,23.925,38.855,33.402C397.699,243.752,384.572,255.758,368.253,267.676z"/>
		<path d="M202.308,171.649l16.064,46.723l-46.723-16.066c-13.488,26.415-9.194,59.57,12.91,81.674
			c27.455,27.454,71.966,27.454,99.421,0c27.453-27.455,27.453-71.967,0-99.421C261.877,162.456,228.722,158.161,202.308,171.649z"
			/>
	</g>
</g>
<g>
</g>
<g>
</g>
<g>
</g>
<g>
</g>
<g>
</g>
<g>
</g>
<g>
</g>
<g>
</g>
<g>
</g>
<g>
</g>
<g>
</g>
<g>
</g>
<g>
</g>
<g>
</g>
<g>
</g>
</svg>
