<?xml version="1.0" encoding="UTF-8" standalone="no"?>
<!-- Generator: Adobe Illustrator 19.0.0, SVG Export Plug-In . SVG Version: 6.00 Build 0)  -->

<svg
   xmlns:dc="http://purl.org/dc/elements/1.1/"
   xmlns:cc="http://creativecommons.org/ns#"
   xmlns:rdf="http://www.w3.org/1999/02/22-rdf-syntax-ns#"
   xmlns:svg="http://www.w3.org/2000/svg"
   xmlns="http://www.w3.org/2000/svg"
   xmlns:sodipodi="http://sodipodi.sourceforge.net/DTD/sodipodi-0.dtd"
   xmlns:inkscape="http://www.inkscape.org/namespaces/inkscape"
   version="1.1"
   id="Layer_1"
   x="0px"
   y="0px"
   viewBox="0 0 200.00001 200"
   xml:space="preserve"
   sodipodi:docname="snail.svg"
   inkscape:version="0.92.4 (5da689c313, 2019-01-14)"
   width="200"
   height="200"><metadata
   id="metadata57"><rdf:RDF><cc:Work
       rdf:about=""><dc:format>image/svg+xml</dc:format><dc:type
         rdf:resource="http://purl.org/dc/dcmitype/StillImage" /><dc:title></dc:title></cc:Work></rdf:RDF></metadata><defs
   id="defs55" /><sodipodi:namedview
   pagecolor="#ffffff"
   bordercolor="#666666"
   borderopacity="1"
   objecttolerance="10"
   gridtolerance="10"
   guidetolerance="10"
   inkscape:pageopacity="0"
   inkscape:pageshadow="2"
   inkscape:window-width="1920"
   inkscape:window-height="1137"
   id="namedview53"
   showgrid="false"
   inkscape:zoom="1.8437536"
   inkscape:cx="-16.742966"
   inkscape:cy="148.66204"
   inkscape:window-x="1272"
   inkscape:window-y="-8"
   inkscape:window-maximized="1"
   inkscape:current-layer="Layer_1"
   fit-margin-top="0"
   fit-margin-left="0"
   fit-margin-right="0"
   fit-margin-bottom="0" />









<g
   id="g874"
   transform="translate(4.0857443e-5,-27.029411)"><path
     inkscape:connector-curvature="0"
     id="path2"
     d="m 22.061353,128.26672 c -9.717199,0 -17.5937699,-7.88087 -17.5937699,-17.59807 0,-4.86094 1.9703147,-9.25704 5.1511776,-12.442587 3.1855503,-3.18086 7.5859463,-5.15118 12.4425923,-5.15118 h 3.699222 6.285945 c 4.132426,0 8.028525,1.45196 11.11095,3.97618 1.939064,1.58164 3.560551,3.587497 4.708989,5.919537 4.86524,9.86016 3.292582,24.89377 23.504323,34.61566 0.639064,0.36172 1.308986,0.68359 2.014846,0.96055 l 1.308986,0.51367 0.07148,0.0269 22.860963,8.92657 c 0.911329,13.18869 10.173053,24.8762 23.692213,28.24925 14.89532,3.72149 29.92893,-1.61718 39.28441,-12.52735 27.56097,16.19962 34.92817,31.79652 34.92817,31.79652 H 52.11998 l 8.935557,-18.08948 c 0,0 -29.781674,-11.00821 -36.634807,-49.17583 l -2.359377,-3.9e-4 z"
     style="fill:#f0df9e;stroke-width:0.39062545" /><path
     inkscape:connector-curvature="0"
     id="path4"
     d="m 71.371173,137.58665 c -7.326961,-4.1461 -10.155089,-13.63986 -5.723053,-21.10979 13.447671,-22.686737 40.63794,-34.883627 67.53797,-28.168777 26.26096,6.5586 42.22856,33.163707 35.66996,59.419987 -1.52813,6.11172 -4.40977,11.52657 -8.25197,16.00783 -9.35547,10.91017 -24.38908,16.24884 -39.28441,12.52735 C 107.80051,172.8902 98.538781,161.20269 97.627452,148.014 l -22.860963,-8.92657 -0.07148,-0.0269 c -1.170314,-0.47774 -2.278518,-0.96485 -3.323832,-1.47383 z"
     style="fill:#ffa701;fill-opacity:1;stroke-width:0.39062545" /><path
     style="stroke-width:0.39062545"
     inkscape:connector-curvature="0"
     id="path6"
     d="m 97.627062,152.48315 c -0.540626,0 -1.089845,-0.0988 -1.62383,-0.30742 l -22.860963,-8.92579 c -2.29844,-0.89766 -3.434379,-3.48829 -2.536722,-5.78673 0.897267,-2.29922 3.487895,-3.43281 5.786725,-2.53711 l 22.860963,8.92657 c 2.298445,0.89766 3.434375,3.48829 2.536725,5.78673 -0.68946,1.76445 -2.376959,2.84375 -4.162898,2.84375 z" /><path
     style="stroke-width:0.39062545"
     inkscape:connector-curvature="0"
     id="path8"
     d="m 74.694224,143.53002 c -0.54297,0 -1.094533,-0.0996 -1.630862,-0.30977 l -1.308985,-0.51328 c -0.88633,-0.34805 -1.756252,-0.7625 -2.586331,-1.23321 -4.623052,-2.61602 -8.063291,-7.07422 -9.435558,-12.2297 -1.368751,-5.14219 -0.633204,-10.48595 2.073049,-15.04689 7.062118,-11.91408 18.00627,-21.482447 30.815269,-26.940647 13.242594,-5.64298 27.643784,-6.77931 41.646924,-3.28321 7.54024,1.8832 14.41681,5.28165 20.4383,10.10079 1.92696,1.5418 2.23868,4.35313 0.69688,6.279697 -1.54141,1.92695 -4.35313,2.23867 -6.2797,0.69687 -5.01094,-4.010547 -10.73712,-6.839457 -17.01994,-8.408207 -24.17581,-6.03595 -49.922319,4.70274 -62.612177,26.111747 -1.471096,2.48008 -1.870315,5.38789 -1.12422,8.19063 0.758594,2.84961 2.655472,5.31055 5.203912,6.75274 0.466407,0.26446 0.952345,0.4961 1.447267,0.69024 l 1.308595,0.51289 c 2.296878,0.90156 3.42852,3.49375 2.527347,5.79102 -0.690626,1.76172 -2.376175,2.8375 -4.15977,2.83829 z" /><path
     style="stroke-width:0.39062545"
     inkscape:connector-curvature="0"
     id="path10"
     d="m 159.75994,109.92763 c -1.3207,0 -2.62852,-0.58242 -3.50977,-1.7 -0.10937,-0.13906 -0.21953,-0.27617 -0.33007,-0.41328 -1.55313,-1.91758 -1.25665,-4.73086 0.66093,-6.28321 1.91719,-1.552337 4.73009,-1.25703 6.28321,0.66094 0.13438,0.16562 0.26797,0.33281 0.40039,0.50039 1.52891,1.93711 1.19766,4.74649 -0.73906,6.27501 -0.82109,0.64648 -1.79688,0.96015 -2.76563,0.96015 z" /><path
     style="stroke-width:0.39062545"
     inkscape:connector-curvature="0"
     id="path12"
     d="m 130.93843,181.92107 c -3.55118,0 -7.13985,-0.43398 -10.70158,-1.32344 -15.11525,-3.77109 -25.992605,-16.7422 -27.066043,-32.27581 -0.260938,-3.74258 0.07188,-7.50118 0.989454,-11.16798 1.910939,-7.659 6.691809,-14.11643 13.461729,-18.18049 6.76837,-4.06368 14.71486,-5.24727 22.37581,-3.33282 6.35938,1.58711 11.72033,5.55665 15.09494,11.17619 3.37461,5.61953 4.35821,12.21681 2.76992,18.5758 -1.32851,5.31953 -4.64922,9.80391 -9.35118,12.62696 -4.70196,2.82227 -10.2211,3.6461 -15.54025,2.31759 -9.25782,-2.31485 -14.91134,-11.73166 -12.60314,-20.993 0.59649,-2.39414 3.02266,-3.85039 5.41524,-3.25469 2.39415,0.59649 3.85157,3.0211 3.25469,5.41524 -1.11719,4.48438 1.61875,9.04337 6.09884,10.16408 3.00195,0.74883 6.11954,0.28554 8.7754,-1.30938 2.65547,-1.59414 4.53164,-4.12696 5.28125,-7.13087 1.00977,-4.04336 0.38438,-8.23751 -1.76133,-11.81134 -2.1457,-3.57383 -5.55508,-6.09766 -9.59962,-7.10704 -5.34453,-1.33476 -10.88907,-0.51015 -15.61134,2.325 -4.72266,2.83555 -8.05821,7.34025 -9.39181,12.68596 -0.68984,2.75703 -0.93984,5.57617 -0.74414,8.38321 0.80586,11.66017 8.97032,21.39455 20.31682,24.22542 12.84962,3.20898 26.18675,-1.04415 34.81176,-11.10119 3.52461,-4.11133 5.98399,-8.88321 7.3086,-14.18322 2.54102,-10.17462 1.40508,-20.95744 -3.20079,-30.36097 -1.08554,-2.21602 -0.16875,-4.89219 2.04727,-5.97735 2.2168,-1.08672 4.8918,-0.16836 5.97735,2.04727 5.53126,11.29298 6.89688,24.24065 3.84493,36.45824 -1.66524,6.6586 -4.75821,12.65822 -9.19454,17.83284 -8.45118,9.85352 -20.5051,15.27501 -33.05824,15.27579 z" /><path
     style="stroke-width:0.39062545"
     inkscape:connector-curvature="0"
     id="path14"
     d="M 195.53264,200 H 52.11998 c -1.544533,0 -2.979691,-0.79805 -3.794926,-2.10977 -0.815236,-1.31211 -0.894923,-2.95195 -0.210938,-4.33672 l 6.925789,-14.02189 C 51.81412,177.7988 47.185209,174.89802 42.307469,170.47731 34.696914,163.58082 25.012528,151.54565 20.759398,132.69602 9.1988383,132.01985 0,122.39874 0,110.66865 0,104.77919 2.2933619,99.239343 6.4582103,95.069413 c 4.1742237,-4.16836 9.7140737,-6.46211 15.6035327,-6.46211 h 9.985168 c 5.063286,0 10.014464,1.77148 13.941812,4.98789 2.483987,2.02618 4.467192,4.51876 5.886725,7.403137 1.408205,2.8543 2.281253,5.87305 3.205473,9.06993 2.431643,8.40899 4.946099,17.10471 18.226973,23.4926 0.918751,0.44727 1.901565,0.8836 3.02266,1.34258 l 0.01601,0.006 c 2.307815,0.87227 3.471879,3.45079 2.599222,5.75899 -0.872657,2.30782 -3.450004,3.47266 -5.758991,2.59884 l -0.07148,-0.0274 c -0.03672,-0.0133 -0.07266,-0.0281 -0.108594,-0.0426 -1.326174,-0.5414 -2.501175,-1.06289 -3.592192,-1.59414 -16.861347,-8.10977 -20.219553,-19.72268 -22.917603,-29.05277 -0.810939,-2.80469 -1.576955,-5.4543 -2.636722,-7.60235 -0.851173,-1.72852 -2.036721,-3.21953 -3.526176,-4.43477 C 37.992229,98.595663 35.0516,97.542533 32.04691,97.542533 h -9.985558 c -3.505082,0 -6.802352,1.36563 -9.285167,3.844927 -2.475393,2.47852 -3.8410198,5.77618 -3.8410198,9.28126 0,7.23985 5.8882878,13.13048 13.1261868,13.13048 h 2.358987 c 2.162893,0 4.015238,1.54923 4.397661,3.67774 6.328522,35.24496 33.512537,45.67349 33.786756,45.77505 1.187501,0.43868 2.132815,1.36133 2.601565,2.5379 0.46836,1.17617 0.416017,2.49609 -0.145312,3.63125 L 59.309831,191.0649 H 187.07599 c -4.6254,-5.67578 -13.39806,-14.44884 -28.6516,-23.42776 -1.3664,-0.76445 -2.29062,-2.225 -2.29062,-3.90117 0,-2.46719 1.99844,-4.46759 4.46563,-4.46759 h 0.005 c 0.79609,0 1.57734,0.2125 2.26367,0.61602 28.42152,16.70588 36.37895,33.05199 36.70395,33.73988 0.65351,1.38438 0.55351,3.00626 -0.26602,4.29923 -0.81914,1.29258 -2.24297,2.07617 -3.77344,2.07617 z" /><path
     style="stroke-width:0.39062545"
     inkscape:connector-curvature="0"
     id="path16"
     d="m 43.15786,101.51903 c -2.46758,0 -4.467583,-2.000777 -4.467583,-4.467577 v -38.52504 c 0,-2.46719 2.000003,-4.46759 4.467583,-4.46759 2.467581,0 4.467584,2.00079 4.467584,4.46759 v 38.52465 c 0,2.46758 -2.000003,4.467967 -4.467584,4.467967 z" /><path
     style="stroke-width:0.39062545"
     inkscape:connector-curvature="0"
     id="path18"
     d="m 25.760575,97.542853 c -2.46758,0 -4.467583,-2.00078 -4.467583,-4.46758 v -34.54886 c 0,-2.46719 2.000003,-4.46759 4.467583,-4.46759 2.467581,0 4.467584,2.00079 4.467584,4.46759 v 34.54847 c 0,2.46758 -2.000003,4.46797 -4.467584,4.46797 z" /><path
     style="stroke-width:0.39062545"
     inkscape:connector-curvature="0"
     id="path20"
     d="m 31.92152,114.42608 c -2.467581,0 -4.467583,-2.00079 -4.467583,-4.46759 v -1.67539 c 0,-2.46719 2.000002,-4.46758 4.467583,-4.46758 2.467581,0 4.467583,2.00078 4.467583,4.46758 v 1.67539 c 0,2.46719 -2.000002,4.46759 -4.467583,4.46759 z" /></g>
<g
   id="g22"
   transform="matrix(0.39062543,0,0,0.39062543,0,27.029503)">
</g>
<g
   id="g24"
   transform="matrix(0.39062543,0,0,0.39062543,0,27.029503)">
</g>
<g
   id="g26"
   transform="matrix(0.39062543,0,0,0.39062543,0,27.029503)">
</g>
<g
   id="g28"
   transform="matrix(0.39062543,0,0,0.39062543,0,27.029503)">
</g>
<g
   id="g30"
   transform="matrix(0.39062543,0,0,0.39062543,0,27.029503)">
</g>
<g
   id="g32"
   transform="matrix(0.39062543,0,0,0.39062543,0,27.029503)">
</g>
<g
   id="g34"
   transform="matrix(0.39062543,0,0,0.39062543,0,27.029503)">
</g>
<g
   id="g36"
   transform="matrix(0.39062543,0,0,0.39062543,0,27.029503)">
</g>
<g
   id="g38"
   transform="matrix(0.39062543,0,0,0.39062543,0,27.029503)">
</g>
<g
   id="g40"
   transform="matrix(0.39062543,0,0,0.39062543,0,27.029503)">
</g>
<g
   id="g42"
   transform="matrix(0.39062543,0,0,0.39062543,0,27.029503)">
</g>
<g
   id="g44"
   transform="matrix(0.39062543,0,0,0.39062543,0,27.029503)">
</g>
<g
   id="g46"
   transform="matrix(0.39062543,0,0,0.39062543,0,27.029503)">
</g>
<g
   id="g48"
   transform="matrix(0.39062543,0,0,0.39062543,0,27.029503)">
</g>
<g
   id="g50"
   transform="matrix(0.39062543,0,0,0.39062543,0,27.029503)">
</g>
</svg>