<?xml version="1.0" encoding="UTF-8" standalone="no"?>
<svg
   xmlns:dc="http://purl.org/dc/elements/1.1/"
   xmlns:cc="http://creativecommons.org/ns#"
   xmlns:rdf="http://www.w3.org/1999/02/22-rdf-syntax-ns#"
   xmlns:svg="http://www.w3.org/2000/svg"
   xmlns="http://www.w3.org/2000/svg"
   width="234.60709mm"
   height="35.4076mm"
   viewBox="0 0 234.60709 35.4076"
   version="1.1"
   id="svg8">
  <defs
     id="defs2" />
  <metadata
     id="metadata5">
    <rdf:RDF>
      <cc:Work
         rdf:about="">
        <dc:format>image/svg+xml</dc:format>
        <dc:type
           rdf:resource="http://purl.org/dc/dcmitype/StillImage" />
        <dc:title></dc:title>
      </cc:Work>
    </rdf:RDF>
  </metadata>
  <g
     id="layer1"
     transform="translate(-1.6531017,-42.814317)">
    <g
       id="text817"
       style="font-style:normal;font-variant:normal;font-weight:normal;font-stretch:normal;font-size:10.58333302px;line-height:1.25;font-family:Neuropolitical;-inkscape-font-specification:Neuropolitical;letter-spacing:0px;word-spacing:0px;fill:#ffa700;fill-opacity:1;stroke:none;stroke-width:0.26458332"
       aria-label="eCAL 5">
      <path
         id="path4518"
         style="font-size:50.79999924px;fill:#ffa700;fill-opacity:1;stroke-width:0.26458332"
         d="m 9.2223016,67.249116 v 1.27 q 0,1.27 0.2032,2.032 0.2032,0.762 0.7112004,1.2192 0.5588,0.4064 1.4224,0.5588 0.9144,0.1524 2.2352,0.1524 h 8.940799 v 5.7404 h -8.940799 q -6.5532004,0 -9.3472003,-2.4892 -2.794,-2.4892 -2.794,-7.9756 v -6.35 q 0,-2.9972 0.5588,-5.029199 0.6096,-2.0828 2.032,-3.302 1.4731999,-1.27 3.8607999,-1.8288 2.3876004,-0.5588 6.0452004,-0.5588 h 13.309599 q 2.9464,0 4.8768,0.5588 1.9812,0.5588 3.0988,1.5748 1.1684,0.9652 1.6256,2.3876 0.4572,1.3716 0.4572,2.997199 v 9.0424 z m 20.7263994,-8.4328 q 0,-1.371599 -0.7112,-1.828799 -0.6604,-0.4572 -2.3876,-0.4572 H 14.251502 q -1.4224,0 -2.3876,0.1524 -0.9652,0.1016 -1.5748,0.5588 -0.5588004,0.4572 -0.8128004,1.320799 -0.254,0.8636 -0.254,2.3368 v 1.4732 H 29.948701 Z" />
      <path
         id="path4520"
         style="font-size:50.79999924px;fill:#ffa700;fill-opacity:1;stroke-width:0.26458332"
         d="m 55.937662,78.221916 q -3.809999,0 -6.349999,-0.6096 -2.54,-0.6604 -4.064,-2.032 -1.524,-1.4224 -2.1844,-3.6576 -0.6096,-2.286 -0.6096,-5.588 V 55.463517 q 0,-3.2512 0.6096,-5.5372 0.6604,-2.286 2.1844,-3.6576 1.524,-1.4224 4.064,-2.032 2.54,-0.6604 6.349999,-0.6604 h 24.0284 v 6.6548 h -23.6728 q -1.778,0 -2.946399,0.3048 -1.1176,0.254 -1.778,0.9144 -0.6604,0.6604 -0.9144,1.778 -0.254,1.0668 -0.254,2.6416 v 10.159999 q 0,1.6256 0.254,2.6924 0.254,1.0668 0.9144,1.7272 0.6604,0.6604 1.8288,0.9144 1.168399,0.254 2.946399,0.254 h 23.622 v 6.604 z" />
      <path
         id="path4522"
         style="font-size:50.79999924px;fill:#ffa700;fill-opacity:1;stroke-width:0.26458332"
         d="M 120.1576,70.246316 H 96.179998 l -4.9276,7.9756 H 82.362399 L 102.4792,46.217917 q 0.9144,-1.4732 2.1844,-2.4384 1.27,-0.9652 3.6576,-0.9652 2.3368,0 3.6068,0.9652 1.27,0.9652 2.1844,2.4384 l 20.0152,32.003999 h -8.9408 z m -20.370802,-5.9436 H 116.5508 l -8.382,-13.665199 z" />
      <path
         id="path4524"
         style="font-size:50.79999924px;fill:#ffa700;fill-opacity:1;stroke-width:0.26458332"
         d="m 148.61036,78.221916 q -3.81,0 -6.35,-0.6096 -2.54,-0.6604 -4.064,-2.032 -1.524,-1.4224 -2.1844,-3.6576 -0.6096,-2.286 -0.6096,-5.588 V 43.576317 h 7.6708 v 22.453599 q 0,1.524 0.254,2.5908 0.3048,1.016 1.016,1.7272 0.7112,0.6604 1.8796,0.9652 1.2192,0.3048 3.048,0.3048 h 20.574 v 6.604 z" />
      <path
         id="path4526"
         style="font-size:50.79999924px;fill:#ffa700;fill-opacity:1;stroke-width:0.26458332"
         d="m 194.0454,78.221916 v -6.5532 h 30.734 q 2.6416,0 3.5052,-0.6096 0.9144,-0.6604 0.9144,-2.4384 v -2.2352 q 0,-1.6256 -0.8636,-2.4384 -0.8128,-0.8636 -3.2512,-0.8636 H 193.9946 V 43.576317 h 25.146 v 6.5532 h -18.0848 v 6.9596 h 24.4348 q 5.842,0 8.28039,2.082799 2.4892,2.032 2.4892,6.8072 v 3.0988 q 0,2.4384 -0.6096,4.2164 -0.5588,1.7272 -1.8796,2.8448 -1.26999,1.0668 -3.30199,1.5748 -2.032,0.508 -4.9784,0.508 z" />
    </g>
  </g>
</svg>
