<?xml version="1.0" encoding="UTF-8" standalone="no"?>
<svg
   xmlns:dc="http://purl.org/dc/elements/1.1/"
   xmlns:cc="http://creativecommons.org/ns#"
   xmlns:rdf="http://www.w3.org/1999/02/22-rdf-syntax-ns#"
   xmlns:svg="http://www.w3.org/2000/svg"
   xmlns="http://www.w3.org/2000/svg"
   xmlns:sodipodi="http://sodipodi.sourceforge.net/DTD/sodipodi-0.dtd"
   xmlns:inkscape="http://www.inkscape.org/namespaces/inkscape"
   width="3300"
   height="660"
   viewBox="0 0 873.12495 174.62499"
   version="1.1"
   id="svg8"
   sodipodi:docname="exit.svg"
   inkscape:version="1.0.1 (3bc2e813f5, 2020-09-07)">
  <defs
     id="defs2">
    <clipPath
       id="clipEmfPath1"
       clipPathUnits="userSpaceOnUse">
      <path
         inkscape:connector-curvature="0"
         id="path5723"
         d="M -89.199339,-108.0792 H 704.55478 V 1014.4725 H -89.199339" />
    </clipPath>
  </defs>
  <sodipodi:namedview
     id="base"
     pagecolor="#ffffff"
     bordercolor="#666666"
     borderopacity="1.0"
     inkscape:pageopacity="0.0"
     inkscape:pageshadow="2"
     inkscape:zoom="0.32"
     inkscape:cx="1539.8075"
     inkscape:cy="65.606776"
     inkscape:document-units="mm"
     inkscape:current-layer="layer1"
     showgrid="true"
     units="px"
     inkscape:window-width="1920"
     inkscape:window-height="1129"
     inkscape:window-x="1912"
     inkscape:window-y="-8"
     inkscape:window-maximized="1"
     inkscape:document-rotation="0"
     fit-margin-top="0"
     fit-margin-left="0"
     fit-margin-right="0"
     fit-margin-bottom="0">
    <inkscape:grid
       type="xygrid"
       id="grid4518"
       spacingx="2.1166666"
       spacingy="2.1166666"
       empspacing="4"
       originx="1.0791014e-07"
       originy="-2.1350096e-06" />
  </sodipodi:namedview>
  <metadata
     id="metadata5">
    <rdf:RDF>
      <cc:Work
         rdf:about="">
        <dc:format>image/svg+xml</dc:format>
        <dc:type
           rdf:resource="http://purl.org/dc/dcmitype/StillImage" />
        <dc:title />
      </cc:Work>
    </rdf:RDF>
  </metadata>
  <g
     inkscape:label="Ebene 1"
     inkscape:groupmode="layer"
     id="layer1"
     transform="translate(57.618498,-132.72428)">
    <g
       aria-label="exit"
       id="text884"
       style="font-size:180.622px;line-height:1.25;font-family:sans-serif;-inkscape-font-specification:sans-serif;display:inline;stroke-width:0.264583"
       inkscape:label="exit">
      <path
         d="m 212.95292,231.59658 v 4.51555 q 0,4.51555 0.72249,7.22488 0.72249,2.70933 2.52871,4.33493 1.98684,1.44497 5.05741,1.98684 3.2512,0.54187 7.94737,0.54187 h 31.78947 v 20.41028 H 229.2089 q -23.30024,0 -33.23445,-8.85048 -9.93421,-8.85047 -9.93421,-28.35765 v -22.57775 q 0,-10.6567 1.98684,-17.88158 2.16747,-7.4055 7.22488,-11.74043 5.23804,-4.51555 13.72728,-6.50239 8.48923,-1.98684 21.49401,-1.98684 h 47.32297 q 10.47607,0 17.33971,1.98684 7.04425,1.98684 11.01794,5.59928 4.1543,3.43182 5.7799,8.48924 1.6256,4.87679 1.6256,10.6567 v 32.15071 z m 73.69377,-29.98325 q 0,-4.87679 -2.5287,-6.50239 -2.34809,-1.6256 -8.48924,-1.6256 H 230.8345 q -5.05742,0 -8.48924,0.54187 -3.43181,0.36124 -5.59928,1.98684 -1.98684,1.6256 -2.88995,4.69617 -0.90311,3.07057 -0.90311,8.30861 v 5.23804 h 73.69377 z"
         style="font-style:normal;font-variant:normal;font-weight:normal;font-stretch:normal;font-size:180.622px;font-family:Neuropolitical;-inkscape-font-specification:Neuropolitical;text-align:center;text-anchor:middle;fill:#ffa500;fill-opacity:1;stroke-width:0.264583"
         id="path892" />
      <path
         d="m 416.15205,270.61093 -33.05382,-35.40191 -33.59569,35.40191 h -32.87321 l 50.75478,-50.9354 -47.32296,-46.96172 h 32.33134 l 31.78947,33.05383 32.51196,-33.05383 h 32.51196 l -48.94856,47.86483 49.49042,50.03229 z"
         style="font-style:normal;font-variant:normal;font-weight:normal;font-stretch:normal;font-size:180.622px;font-family:Neuropolitical;-inkscape-font-specification:Neuropolitical;text-align:center;text-anchor:middle;fill:#ffa500;fill-opacity:1;stroke-width:0.264583"
         id="path894" />
      <path
         d="m 461.84924,270.61093 v -95.36841 h 27.45454 v 95.36841 z m 9.21172,-103.4964 q -5.05742,0 -7.22488,-1.98684 -1.98684,-1.98685 -1.98684,-6.32177 v -10.47608 q 0,-4.33493 1.98684,-6.14115 2.16746,-1.98684 7.22488,-1.98684 h 8.85048 q 5.23803,0 7.22488,1.98684 2.16746,1.80622 2.16746,6.14115 v 10.47608 q 0,4.33492 -2.16746,6.32177 -1.98685,1.98684 -7.22488,1.98684 z"
         style="font-style:normal;font-variant:normal;font-weight:normal;font-stretch:normal;font-size:180.622px;font-family:Neuropolitical;-inkscape-font-specification:Neuropolitical;text-align:center;text-anchor:middle;fill:#ffa500;fill-opacity:1;stroke-width:0.264583"
         id="path896" />
      <path
         d="m 516.21619,270.61093 v -76.04186 h -13.72727 v -21.85526 h 13.72727 v -27.63516 h 27.45454 v 27.63516 h 30.88636 v 21.85526 h -30.88636 v 76.04186 z"
         style="font-style:normal;font-variant:normal;font-weight:normal;font-stretch:normal;font-size:180.622px;font-family:Neuropolitical;-inkscape-font-specification:Neuropolitical;text-align:center;text-anchor:middle;fill:#ffa500;fill-opacity:1;stroke-width:0.264583"
         id="path898" />
    </g>
  </g>
</svg>
