<?xml version="1.0" encoding="UTF-8" standalone="no"?>
<!-- Generator: Adobe Illustrator 16.0.0, SVG Export Plug-In . SVG Version: 6.00 Build 0)  -->

<svg
   xmlns:dc="http://purl.org/dc/elements/1.1/"
   xmlns:cc="http://creativecommons.org/ns#"
   xmlns:rdf="http://www.w3.org/1999/02/22-rdf-syntax-ns#"
   xmlns:svg="http://www.w3.org/2000/svg"
   xmlns="http://www.w3.org/2000/svg"
   xmlns:sodipodi="http://sodipodi.sourceforge.net/DTD/sodipodi-0.dtd"
   xmlns:inkscape="http://www.inkscape.org/namespaces/inkscape"
   version="1.1"
   id="Capa_1"
   x="0px"
   y="0px"
   width="512px"
   height="512px"
   viewBox="0 0 348.333 348.334"
   style="enable-background:new 0 0 348.333 348.334;"
   xml:space="preserve"
   sodipodi:docname="cross.svg"
   inkscape:version="0.92.3 (2405546, 2018-03-11)"><metadata
   id="metadata41"><rdf:RDF><cc:Work
       rdf:about=""><dc:format>image/svg+xml</dc:format><dc:type
         rdf:resource="http://purl.org/dc/dcmitype/StillImage" /></cc:Work></rdf:RDF></metadata><defs
   id="defs39" /><sodipodi:namedview
   pagecolor="#ffffff"
   bordercolor="#666666"
   borderopacity="1"
   objecttolerance="10"
   gridtolerance="10"
   guidetolerance="10"
   inkscape:pageopacity="0"
   inkscape:pageshadow="2"
   inkscape:window-width="724"
   inkscape:window-height="480"
   id="namedview37"
   showgrid="false"
   inkscape:zoom="0.4609375"
   inkscape:cx="256"
   inkscape:cy="256"
   inkscape:window-x="2501"
   inkscape:window-y="171"
   inkscape:window-maximized="0"
   inkscape:current-layer="Capa_1" />
<g
   id="g4"
   transform="matrix(0.83898178,0,0,0.83898178,28.04398,28.044121)">
	<path
   d="M 336.559,68.611 231.016,174.165 336.559,279.714 c 15.699,15.705 15.699,41.145 0,56.85 -7.844,7.844 -18.128,11.769 -28.407,11.769 -10.296,0 -20.581,-3.919 -28.419,-11.769 L 174.167,231.003 68.609,336.563 c -7.843,7.844 -18.128,11.769 -28.416,11.769 -10.285,0 -20.563,-3.919 -28.413,-11.769 -15.699,-15.698 -15.699,-41.139 0,-56.85 L 117.32,174.164 11.774,68.611 C -3.925,52.912 -3.925,27.466 11.774,11.767 27.47,-3.92 52.901,-3.92 68.603,11.767 L 174.166,117.321 279.721,11.767 c 15.705,-15.687 41.139,-15.687 56.832,0 15.705,15.699 15.705,41.145 0.006,56.844 z"
   id="path2"
   inkscape:connector-curvature="0"
   style="fill:#bf1f1f" />
</g>
<g
   id="g6">
</g>
<g
   id="g8">
</g>
<g
   id="g10">
</g>
<g
   id="g12">
</g>
<g
   id="g14">
</g>
<g
   id="g16">
</g>
<g
   id="g18">
</g>
<g
   id="g20">
</g>
<g
   id="g22">
</g>
<g
   id="g24">
</g>
<g
   id="g26">
</g>
<g
   id="g28">
</g>
<g
   id="g30">
</g>
<g
   id="g32">
</g>
<g
   id="g34">
</g>
</svg>