<?xml version="1.0" encoding="UTF-8" standalone="no"?>
<!-- Created with Inkscape (http://www.inkscape.org/) -->

<svg
   xmlns:dc="http://purl.org/dc/elements/1.1/"
   xmlns:cc="http://creativecommons.org/ns#"
   xmlns:rdf="http://www.w3.org/1999/02/22-rdf-syntax-ns#"
   xmlns:svg="http://www.w3.org/2000/svg"
   xmlns="http://www.w3.org/2000/svg"
   xmlns:sodipodi="http://sodipodi.sourceforge.net/DTD/sodipodi-0.dtd"
   xmlns:inkscape="http://www.inkscape.org/namespaces/inkscape"
   width="630"
   height="305.00003"
   viewBox="0 0 166.6875 80.697925"
   version="1.1"
   id="svg8"
   inkscape:version="0.92.4 (5da689c313, 2019-01-14)"
   sodipodi:docname="ecal_concept_notebooks.svg">
  <defs
     id="defs2" />
  <sodipodi:namedview
     id="base"
     pagecolor="#ffffff"
     bordercolor="#666666"
     borderopacity="1.0"
     inkscape:pageopacity="0.0"
     inkscape:pageshadow="2"
     inkscape:zoom="2"
     inkscape:cx="178.50606"
     inkscape:cy="208.50343"
     inkscape:document-units="mm"
     inkscape:current-layer="layer1"
     showgrid="true"
     units="px"
     inkscape:window-width="1849"
     inkscape:window-height="1128"
     inkscape:window-x="1273"
     inkscape:window-y="0"
     inkscape:window-maximized="0"
     inkscape:snap-object-midpoints="false"
     inkscape:snap-grids="true"
     inkscape:snap-intersection-paths="false"
     inkscape:object-nodes="false"
     inkscape:snap-center="false"
     inkscape:snap-bbox="true"
     inkscape:bbox-nodes="true"
     fit-margin-top="0"
     fit-margin-left="0"
     fit-margin-right="0"
     fit-margin-bottom="0">
    <inkscape:grid
       type="xygrid"
       id="grid815"
       originx="0"
       originy="-41.01041" />
  </sodipodi:namedview>
  <metadata
     id="metadata5">
    <rdf:RDF>
      <cc:Work
         rdf:about="">
        <dc:format>image/svg+xml</dc:format>
        <dc:type
           rdf:resource="http://purl.org/dc/dcmitype/StillImage" />
        <dc:title />
      </cc:Work>
    </rdf:RDF>
  </metadata>
  <g
     inkscape:label="Ebene 1"
     inkscape:groupmode="layer"
     id="layer1"
     transform="translate(0,-175.29165)">
    <rect
       style="opacity:1;fill:#f5f5f5;fill-opacity:1;stroke:#000000;stroke-width:2.64583325;stroke-linecap:round;stroke-linejoin:round;stroke-miterlimit:4;stroke-dasharray:none;stroke-opacity:1;paint-order:normal"
       id="rect817"
       width="71.4375"
       height="47.625"
       x="3.9687474"
       y="176.61456" />
    <path
       inkscape:connector-curvature="0"
       style="opacity:1;fill:#000000;fill-opacity:1;stroke:none;stroke-width:2.64583325;stroke-linecap:round;stroke-linejoin:round;stroke-miterlimit:4;stroke-dasharray:none;stroke-opacity:1;paint-order:normal"
       d="M 1.984375,226.8854 C 0.88503124,226.8854 0,227.77043 0,228.86977 c 0,1.09934 0.88503124,1.98438 1.984375,1.98438 h 75.406249 c 1.099344,0 1.984375,-0.88504 1.984375,-1.98438 0,-1.09934 -0.885031,-1.98437 -1.984375,-1.98437 h -26.00203 c 0.126254,0.14046 0.205155,0.32456 0.205155,0.52916 0,0.43974 -0.354012,0.79375 -0.79375,0.79375 H 28.575 c -0.439738,0 -0.79375,-0.35401 -0.79375,-0.79375 0,-0.2046 0.0789,-0.3887 0.205155,-0.52916 z"
       id="rect819" />
    <circle
       style="opacity:1;fill:#ffffff;fill-opacity:1;stroke:none;stroke-width:2.64583325;stroke-linecap:round;stroke-linejoin:round;stroke-miterlimit:4;stroke-dasharray:none;stroke-opacity:1;paint-order:normal"
       id="path831"
       cx="39.6875"
       cy="176.61456"
       r="0.79374963" />
    <path
       id="path13"
       d="m 26.498947,190.94392 10.77953,-1.46808 0.0048,10.39757 -10.774209,0.0613 z m 10.774395,10.12761 0.0083,10.40676 -10.774248,-1.4813 -5.83e-4,-8.99507 z m 1.306707,-11.78766 14.292664,-2.08597 v 12.5434 l -14.292664,0.11351 z m 14.296002,11.88545 -0.0033,12.48691 -14.292662,-2.01722 -0.02001,-10.49294 z"
       inkscape:connector-curvature="0"
       style="fill:#e1e1e1;fill-opacity:1;stroke-width:0.30205441" />
    <rect
       style="opacity:1;fill:#f5f5f5;fill-opacity:1;stroke:#000000;stroke-width:2.64583325;stroke-linecap:round;stroke-linejoin:round;stroke-miterlimit:4;stroke-dasharray:none;stroke-opacity:1;paint-order:normal"
       id="rect817-2"
       width="71.4375"
       height="47.625"
       x="91.28125"
       y="201.74998" />
    <path
       inkscape:connector-curvature="0"
       id="path2"
       d="m 127.00021,211.0104 c -8.03703,0 -14.55249,6.51505 -14.55249,14.55208 0,8.03658 6.51523,14.55208 14.55249,14.55208 8.03703,0 14.55208,-6.5155 14.55208,-14.55208 0,-8.03703 -6.51493,-14.55208 -14.55208,-14.55208 z m 4.99961,4.04017 c 0.31312,0.008 0.62879,0.0921 0.9192,0.25967 0.92932,0.5368 1.24736,1.72416 0.71055,2.65349 -0.53612,0.92932 -1.72375,1.24713 -2.65307,0.71055 -0.92864,-0.53623 -1.24739,-1.72379 -0.71138,-2.65266 0.36913,-0.63891 1.04584,-0.9888 1.7347,-0.97105 z m -4.99961,2.07194 a 8.4635153,8.4635153 0 0 1 2.25486,0.30654 c 0.12663,0.7807 0.58974,1.49997 1.32862,1.92634 0.73739,0.42511 1.59076,0.46785 2.32952,0.18873 1.4365,1.41279 2.37181,3.33399 2.50789,5.47414 l -2.76838,0.0411 c -0.2553,-2.89898 -2.68777,-5.17217 -5.65251,-5.17217 a 5.6525252,5.6525252 0 0 0 -2.3905,0.52805 l -1.35018,-2.41954 a 8.4096067,8.4096067 0 0 1 3.74068,-0.87316 z m -4.68228,1.41779 1.42028,2.37889 c -1.45918,1.02711 -2.4129,2.72333 -2.4129,4.64329 0,1.92008 0.95372,3.61634 2.4129,4.64288 l -1.42028,2.37972 c -1.70046,-1.1363 -2.96561,-2.87265 -3.49056,-4.90669 0.61339,-0.50045 1.00589,-1.26238 1.00589,-2.11591 0,-0.85398 -0.3925,-1.61598 -1.00589,-2.11632 0.52563,-2.03359 1.79079,-3.76956 3.49056,-4.90586 z m -5.21282,5.07925 c 1.07304,0 1.94293,0.86944 1.94293,1.94293 0,1.07293 -0.86989,1.94293 -1.94293,1.94293 -1.0735,0 -1.94335,-0.87 -1.94335,-1.94293 0,-1.07349 0.86985,-1.94293 1.94335,-1.94293 z m 15.54678,2.44609 2.76921,0.0406 c -0.13631,2.14015 -1.07128,4.06135 -2.50789,5.47414 -0.73865,-0.27912 -1.59145,-0.23718 -2.32952,0.18873 -0.73865,0.42705 -1.20199,1.14564 -1.32862,1.92634 a 8.4384416,8.4384416 0 0 1 -2.25486,0.30737 8.4010591,8.4010591 0 0 1 -3.74027,-0.87399 l 1.34977,-2.41912 a 5.6530951,5.6530951 0 0 0 2.3905,0.52763 c 2.96485,0 5.39695,-2.27198 5.65168,-5.17175 z m -0.75577,6.12413 c 0.68879,-0.0178 1.36562,0.33261 1.73428,0.97105 0.5367,0.92944 0.21783,2.11684 -0.71138,2.65308 -0.92932,0.53669 -2.11684,0.21835 -2.65307,-0.71097 -0.53681,-0.92876 -0.21783,-2.11627 0.71138,-2.65308 0.2902,-0.16753 0.6057,-0.252 0.91879,-0.26008 z"
       style="fill:#e1e1e1;fill-opacity:1;stroke-width:0.11397138" />
    <path
       style="opacity:1;fill:#000000;fill-opacity:1;stroke:none;stroke-width:2.64583325;stroke-linecap:round;stroke-linejoin:round;stroke-miterlimit:4;stroke-dasharray:none;stroke-opacity:1;paint-order:normal"
       d="m 89.296876,252.02082 c -1.099344,0 -1.984375,0.88503 -1.984375,1.98437 0,1.09934 0.885031,1.98438 1.984375,1.98438 h 75.406254 c 1.09934,0 1.98437,-0.88504 1.98437,-1.98438 0,-1.09934 -0.88503,-1.98437 -1.98437,-1.98437 H 138.7011 c 0.12625,0.14046 0.20515,0.32456 0.20515,0.52916 0,0.43974 -0.35401,0.79375 -0.79375,0.79375 h -22.225 c -0.43974,0 -0.79375,-0.35401 -0.79375,-0.79375 0,-0.2046 0.0789,-0.3887 0.20516,-0.52916 z"
       id="rect819-6"
       inkscape:connector-curvature="0" />
    <circle
       style="opacity:1;fill:#ffffff;fill-opacity:1;stroke:none;stroke-width:2.64583325;stroke-linecap:round;stroke-linejoin:round;stroke-miterlimit:4;stroke-dasharray:none;stroke-opacity:1;paint-order:normal"
       id="path831-2"
       cx="127"
       cy="201.74998"
       r="0.79374963" />
    <rect
       style="opacity:1;fill:#f2dcb2;fill-opacity:1;stroke:#ffa700;stroke-width:1.32291663;stroke-linecap:round;stroke-linejoin:round;stroke-miterlimit:4;stroke-dasharray:none;stroke-opacity:1;paint-order:normal"
       id="rect869"
       width="29.104166"
       height="9.2604122"
       x="7.9375024"
       y="181.90623"
       ry="3.9687452" />
    <g
       aria-label="Proc 1"
       style="font-style:normal;font-variant:normal;font-weight:normal;font-stretch:normal;font-size:10.58333302px;line-height:1.25;font-family:Neuropolitical;-inkscape-font-specification:Neuropolitical;letter-spacing:0px;word-spacing:0px;fill:#000000;fill-opacity:1;stroke:none;stroke-width:0.26458332"
       id="text867">
      <path
         d="m 11.774311,187.42015 v 1.10066 h -0.857956 v -3.84951 h 3.081867 q 0.412044,0 0.688622,0.0677 0.276578,0.0621 0.445911,0.21448 0.169334,0.14676 0.237067,0.38383 0.07338,0.23706 0.07338,0.57573 v 0.33302 q 0,0.34431 -0.06773,0.57009 -0.06773,0.22578 -0.237066,0.36125 -0.163689,0.13546 -0.440267,0.19191 -0.276578,0.0508 -0.699911,0.0508 z m 2.810933,-1.4732 q 0,-0.31045 -0.135467,-0.42334 -0.129822,-0.11289 -0.474133,-0.11289 h -2.201333 v 1.31516 h 2.212622 q 0.338667,0 0.468489,-0.1016 0.129822,-0.10724 0.129822,-0.41204 z"
         style="font-size:5.64444447px;stroke-width:0.26458332"
         id="path892"
         inkscape:connector-curvature="0" />
      <path
         d="m 15.976512,188.52081 v -1.77235 q 0,-0.34431 0.07902,-0.58702 0.07902,-0.24272 0.248355,-0.39512 0.174978,-0.15804 0.445911,-0.23142 0.270934,-0.0734 0.6604,-0.0734 h 0.547512 v 0.68298 h -0.524934 q -0.174978,0 -0.293511,0.0282 -0.118533,0.0282 -0.191911,0.096 -0.06773,0.0677 -0.1016,0.18627 -0.02822,0.11853 -0.02822,0.29915 v 1.76671 z"
         style="font-size:5.64444447px;stroke-width:0.26458332"
         id="path894"
         inkscape:connector-curvature="0" />
      <path
         d="m 19.808119,188.52081 q -0.423333,0 -0.705555,-0.0677 -0.282222,-0.0734 -0.451556,-0.22578 -0.169333,-0.15804 -0.242711,-0.4064 -0.06773,-0.254 -0.06773,-0.62089 V 186.788 q 0,-0.36689 0.06773,-0.62089 0.07338,-0.254 0.242711,-0.4064 0.169334,-0.15804 0.451556,-0.22578 0.282222,-0.0734 0.705555,-0.0734 h 1.021645 q 0.428978,0 0.7112,0.0734 0.282222,0.0677 0.451555,0.22578 0.169334,0.15804 0.237067,0.41204 0.07338,0.254 0.07338,0.62089 v 0.4064 q 0,0.36689 -0.07338,0.62089 -0.06773,0.24836 -0.237067,0.4064 -0.169333,0.1524 -0.451555,0.22578 -0.282222,0.0677 -0.7112,0.0677 z m 1.653823,-1.70462 q 0,-0.19191 -0.03387,-0.31609 -0.02822,-0.12418 -0.112889,-0.19191 -0.07902,-0.0734 -0.225778,-0.0959 -0.146755,-0.0282 -0.372533,-0.0282 h -0.795867 q -0.225778,0 -0.372533,0.0282 -0.141111,0.0226 -0.225778,0.0959 -0.07902,0.0677 -0.112889,0.19191 -0.02822,0.12418 -0.02822,0.31609 v 0.36125 q 0,0.19191 0.02822,0.31608 0.03387,0.11854 0.112889,0.19192 0.08467,0.0677 0.225778,0.0959 0.146755,0.0282 0.372533,0.0282 h 0.795867 q 0.225778,0 0.372533,-0.0282 0.146756,-0.0282 0.225778,-0.0959 0.08467,-0.0734 0.112889,-0.19192 0.03387,-0.12417 0.03387,-0.31608 z"
         style="font-size:5.64444447px;stroke-width:0.26458332"
         id="path896"
         inkscape:connector-curvature="0" />
      <path
         d="m 24.383206,188.52081 q -0.423333,0 -0.705556,-0.0677 -0.282222,-0.0734 -0.451555,-0.22578 -0.169334,-0.15804 -0.242711,-0.4064 -0.06773,-0.254 -0.06773,-0.62089 V 186.788 q 0,-0.36689 0.06773,-0.62089 0.07338,-0.254 0.242711,-0.4064 0.169333,-0.15804 0.451555,-0.22578 0.282223,-0.0734 0.705556,-0.0734 h 2.212622 v 0.72249 h -2.1844 q -0.197555,0 -0.327378,0.0282 -0.124177,0.0282 -0.197555,0.1016 -0.07338,0.0677 -0.1016,0.19191 -0.02822,0.12417 -0.02822,0.31044 v 0.36125 q 0,0.18062 0.02822,0.3048 0.02822,0.11853 0.1016,0.19191 0.07338,0.0734 0.197555,0.10724 0.129823,0.0282 0.327378,0.0282 h 2.190045 v 0.7112 z"
         style="font-size:5.64444447px;stroke-width:0.26458332"
         id="path898"
         inkscape:connector-curvature="0" />
      <path
         d="m 29.448212,188.52081 v -3.84951 h 0.857955 v 3.84951 z"
         style="font-size:5.64444447px;stroke-width:0.26458332"
         id="path900"
         inkscape:connector-curvature="0" />
    </g>
    <path
       style="fill:none;stroke:#ffa700;stroke-width:1.32291663;stroke-linecap:butt;stroke-linejoin:miter;stroke-miterlimit:4;stroke-dasharray:none;stroke-opacity:1"
       d="M 38.364583,186.40415 H 111.125 v 33.86666"
       id="path913"
       inkscape:connector-curvature="0"
       sodipodi:nodetypes="ccc" />
    <path
       style="fill:none;stroke:#ffa700;stroke-width:1.32291663;stroke-linecap:butt;stroke-linejoin:miter;stroke-miterlimit:4;stroke-dasharray:none;stroke-opacity:1"
       d="m 59.53125,185.87498 -10e-7,23.8125 H 41.010417"
       id="path915"
       inkscape:connector-curvature="0"
       sodipodi:nodetypes="ccc" />
    <path
       style="fill:none;stroke:#ffa700;stroke-width:1.32291663;stroke-linecap:butt;stroke-linejoin:miter;stroke-miterlimit:4;stroke-dasharray:none;stroke-opacity:1"
       d="m 38.1,214.97915 h 65.0875 v 5.29166"
       id="path917"
       inkscape:connector-curvature="0"
       sodipodi:nodetypes="ccc" />
    <path
       style="fill:none;stroke:#ffa700;stroke-width:1.32291663;stroke-linecap:butt;stroke-linejoin:miter;stroke-miterlimit:4;stroke-dasharray:none;stroke-opacity:1"
       d="m 109.80208,234.8229 v 3.96875 H 22.489583 v -18.52084"
       id="path919"
       inkscape:connector-curvature="0"
       sodipodi:nodetypes="cccc" />
    <path
       style="fill:#ffa700;fill-opacity:1;stroke:none;stroke-width:0.26458332;stroke-linecap:butt;stroke-linejoin:miter;stroke-miterlimit:4;stroke-dasharray:none;stroke-opacity:1"
       d="m 111.125,222.91665 -2.64584,-3.96875 h 5.29167 z"
       id="path921"
       inkscape:connector-curvature="0" />
    <path
       style="fill:#ffa700;fill-opacity:1;stroke:none;stroke-width:0.26458332;stroke-linecap:butt;stroke-linejoin:miter;stroke-miterlimit:4;stroke-dasharray:none;stroke-opacity:1"
       d="m 103.1875,222.91665 -2.64584,-3.96875 h 5.29167 z"
       id="path921-9"
       inkscape:connector-curvature="0" />
    <path
       style="fill:#ffa700;fill-opacity:1;stroke:none;stroke-width:0.26458332;stroke-linecap:butt;stroke-linejoin:miter;stroke-miterlimit:4;stroke-dasharray:none;stroke-opacity:1"
       d="m 22.489583,217.62498 2.64584,3.96875 h -5.29167 z"
       id="path921-9-2"
       inkscape:connector-curvature="0" />
    <rect
       style="opacity:1;fill:#f2dcb2;fill-opacity:1;stroke:#ffa700;stroke-width:1.32291663;stroke-linecap:round;stroke-linejoin:round;stroke-miterlimit:4;stroke-dasharray:none;stroke-opacity:1;paint-order:normal"
       id="rect869-7"
       width="29.104166"
       height="9.2604122"
       x="7.9375"
       y="207.04164"
       ry="3.9687452" />
    <g
       aria-label="Proc 2"
       style="font-style:normal;font-variant:normal;font-weight:normal;font-stretch:normal;font-size:10.58333302px;line-height:1.25;font-family:Neuropolitical;-inkscape-font-specification:Neuropolitical;letter-spacing:0px;word-spacing:0px;fill:#000000;fill-opacity:1;stroke:none;stroke-width:0.26458332"
       id="text867-8">
      <path
         d="m 11.774308,212.55555 v 1.10067 h -0.857956 v -3.84951 h 3.081867 q 0.412045,0 0.688622,0.0677 0.276578,0.0621 0.445911,0.21449 0.169334,0.14676 0.237067,0.38382 0.07338,0.23707 0.07338,0.57574 v 0.33302 q 0,0.34431 -0.06773,0.57009 -0.06773,0.22578 -0.237067,0.36124 -0.163689,0.13547 -0.440267,0.19191 -0.276578,0.0508 -0.699911,0.0508 z m 2.810933,-1.4732 q 0,-0.31044 -0.135466,-0.42333 -0.129823,-0.11289 -0.474134,-0.11289 h -2.201333 v 1.31516 h 2.212622 q 0.338667,0 0.468489,-0.1016 0.129822,-0.10725 0.129822,-0.41205 z"
         style="font-size:5.64444447px;stroke-width:0.26458332"
         id="path881"
         inkscape:connector-curvature="0" />
      <path
         d="m 15.976509,213.65622 v -1.77236 q 0,-0.34431 0.07902,-0.58702 0.07902,-0.24271 0.248356,-0.39511 0.174977,-0.15804 0.445911,-0.23142 0.270933,-0.0734 0.6604,-0.0734 h 0.547511 v 0.68298 h -0.524934 q -0.174977,0 -0.293511,0.0282 -0.118533,0.0282 -0.191911,0.096 -0.06773,0.0677 -0.1016,0.18626 -0.02822,0.11854 -0.02822,0.29916 v 1.76671 z"
         style="font-size:5.64444447px;stroke-width:0.26458332"
         id="path883"
         inkscape:connector-curvature="0" />
      <path
         d="m 19.808116,213.65622 q -0.423333,0 -0.705555,-0.0677 -0.282222,-0.0734 -0.451556,-0.22578 -0.169333,-0.15805 -0.242711,-0.4064 -0.06773,-0.254 -0.06773,-0.62089 v -0.41204 q 0,-0.36689 0.06773,-0.62089 0.07338,-0.254 0.242711,-0.4064 0.169334,-0.15805 0.451556,-0.22578 0.282222,-0.0734 0.705555,-0.0734 h 1.021645 q 0.428978,0 0.7112,0.0734 0.282222,0.0677 0.451555,0.22578 0.169334,0.15804 0.237067,0.41204 0.07338,0.254 0.07338,0.62089 v 0.4064 q 0,0.36689 -0.07338,0.62089 -0.06773,0.24835 -0.237067,0.4064 -0.169333,0.1524 -0.451555,0.22578 -0.282222,0.0677 -0.7112,0.0677 z m 1.653823,-1.70462 q 0,-0.19191 -0.03387,-0.31609 -0.02822,-0.12418 -0.112889,-0.19191 -0.07902,-0.0734 -0.225778,-0.096 -0.146755,-0.0282 -0.372533,-0.0282 h -0.795867 q -0.225777,0 -0.372533,0.0282 -0.141111,0.0226 -0.225778,0.096 -0.07902,0.0677 -0.112889,0.19191 -0.02822,0.12418 -0.02822,0.31609 v 0.36124 q 0,0.19191 0.02822,0.31609 0.03387,0.11853 0.112889,0.19191 0.08467,0.0677 0.225778,0.096 0.146756,0.0282 0.372533,0.0282 h 0.795867 q 0.225778,0 0.372533,-0.0282 0.146756,-0.0282 0.225778,-0.096 0.08467,-0.0734 0.112889,-0.19191 0.03387,-0.12418 0.03387,-0.31609 z"
         style="font-size:5.64444447px;stroke-width:0.26458332"
         id="path885"
         inkscape:connector-curvature="0" />
      <path
         d="m 24.383203,213.65622 q -0.423333,0 -0.705556,-0.0677 -0.282222,-0.0734 -0.451555,-0.22578 -0.169333,-0.15805 -0.242711,-0.4064 -0.06773,-0.254 -0.06773,-0.62089 v -0.41204 q 0,-0.36689 0.06773,-0.62089 0.07338,-0.254 0.242711,-0.4064 0.169333,-0.15805 0.451555,-0.22578 0.282223,-0.0734 0.705556,-0.0734 h 2.212622 v 0.72249 h -2.1844 q -0.197555,0 -0.327378,0.0282 -0.124177,0.0282 -0.197555,0.1016 -0.07338,0.0677 -0.1016,0.19191 -0.02822,0.12418 -0.02822,0.31045 v 0.36124 q 0,0.18062 0.02822,0.3048 0.02822,0.11854 0.1016,0.19191 0.07338,0.0734 0.197555,0.10725 0.129823,0.0282 0.327378,0.0282 h 2.190045 v 0.7112 z"
         style="font-size:5.64444447px;stroke-width:0.26458332"
         id="path887"
         inkscape:connector-curvature="0" />
      <path
         d="m 29.391764,213.65622 v -1.22484 q 0,-0.27094 0.0508,-0.46849 0.0508,-0.2032 0.186267,-0.32738 0.135467,-0.12982 0.366889,-0.19191 0.231422,-0.0621 0.598311,-0.0621 h 2.223911 q 0.225778,0 0.299156,-0.0734 0.07902,-0.079 0.07902,-0.29351 v -0.096 q 0,-0.22577 -0.07338,-0.3048 -0.07338,-0.079 -0.282222,-0.079 h -1.411111 v -0.72813 h 1.467555 q 0.564445,0 0.824089,0.24835 0.265289,0.24836 0.265289,0.84103 v 0.19191 q 0,0.27093 -0.05644,0.45155 -0.0508,0.18063 -0.180622,0.29351 -0.129823,0.10725 -0.344312,0.1524 -0.214488,0.0452 -0.530577,0.0452 h -2.240845 q -0.265289,0 -0.361244,0.0903 -0.09596,0.0903 -0.09596,0.34431 v 0.46285 h 3.81 v 0.72813 z"
         style="font-size:5.64444447px;stroke-width:0.26458332"
         id="path889"
         inkscape:connector-curvature="0" />
    </g>
    <rect
       style="opacity:1;fill:#f2dcb2;fill-opacity:1;stroke:#ffa700;stroke-width:1.32291663;stroke-linecap:round;stroke-linejoin:round;stroke-miterlimit:4;stroke-dasharray:none;stroke-opacity:1;paint-order:normal"
       id="rect869-6"
       width="29.104166"
       height="9.2604122"
       x="95.25"
       y="224.23956"
       ry="3.9687452" />
    <g
       aria-label="Proc 3"
       style="font-style:normal;font-variant:normal;font-weight:normal;font-stretch:normal;font-size:10.58333302px;line-height:1.25;font-family:Neuropolitical;-inkscape-font-specification:Neuropolitical;letter-spacing:0px;word-spacing:0px;fill:#000000;fill-opacity:1;stroke:none;stroke-width:0.26458332"
       id="text867-2">
      <path
         d="m 99.086806,229.75347 v 1.10067 H 98.22885 v -3.84951 h 3.08187 q 0.41204,0 0.68862,0.0677 0.27658,0.0621 0.44591,0.21449 0.16933,0.14676 0.23707,0.38382 0.0734,0.23707 0.0734,0.57574 v 0.33302 q 0,0.34431 -0.0677,0.57009 -0.0677,0.22578 -0.23707,0.36124 -0.16368,0.13547 -0.44026,0.19191 -0.27658,0.0508 -0.69991,0.0508 z m 2.810934,-1.4732 q 0,-0.31044 -0.13547,-0.42333 -0.12982,-0.11289 -0.47413,-0.11289 h -2.201334 v 1.31516 h 2.212624 q 0.33866,0 0.46849,-0.1016 0.12982,-0.10725 0.12982,-0.41205 z"
         style="font-size:5.64444447px;stroke-width:0.26458332"
         id="path870"
         inkscape:connector-curvature="0" />
      <path
         d="m 103.28901,230.85414 v -1.77235 q 0,-0.34432 0.079,-0.58703 0.079,-0.24271 0.24835,-0.39511 0.17498,-0.15804 0.44592,-0.23142 0.27093,-0.0734 0.6604,-0.0734 h 0.54751 v 0.68298 h -0.52494 q -0.17497,0 -0.29351,0.0282 -0.11853,0.0282 -0.19191,0.096 -0.0677,0.0677 -0.1016,0.18626 -0.0282,0.11854 -0.0282,0.29916 v 1.76671 z"
         style="font-size:5.64444447px;stroke-width:0.26458332"
         id="path872"
         inkscape:connector-curvature="0" />
      <path
         d="m 107.12061,230.85414 q -0.42333,0 -0.70555,-0.0677 -0.28222,-0.0734 -0.45156,-0.22578 -0.16933,-0.15804 -0.24271,-0.4064 -0.0677,-0.254 -0.0677,-0.62089 v -0.41204 q 0,-0.36689 0.0677,-0.62089 0.0734,-0.254 0.24271,-0.4064 0.16934,-0.15805 0.45156,-0.22578 0.28222,-0.0734 0.70555,-0.0734 h 1.02165 q 0.42898,0 0.7112,0.0734 0.28222,0.0677 0.45155,0.22578 0.16934,0.15804 0.23707,0.41204 0.0734,0.254 0.0734,0.62089 v 0.4064 q 0,0.36689 -0.0734,0.62089 -0.0677,0.24836 -0.23707,0.4064 -0.16933,0.1524 -0.45155,0.22578 -0.28222,0.0677 -0.7112,0.0677 z m 1.65383,-1.70462 q 0,-0.19191 -0.0339,-0.31609 -0.0282,-0.12418 -0.11289,-0.19191 -0.079,-0.0734 -0.22578,-0.096 -0.14675,-0.0282 -0.37253,-0.0282 h -0.79587 q -0.22577,0 -0.37253,0.0282 -0.14111,0.0226 -0.22578,0.096 -0.079,0.0677 -0.11289,0.19191 -0.0282,0.12418 -0.0282,0.31609 v 0.36124 q 0,0.19191 0.0282,0.31609 0.0339,0.11854 0.11289,0.19191 0.0847,0.0677 0.22578,0.096 0.14676,0.0282 0.37253,0.0282 h 0.79587 q 0.22578,0 0.37253,-0.0282 0.14676,-0.0282 0.22578,-0.096 0.0847,-0.0734 0.11289,-0.19191 0.0339,-0.12418 0.0339,-0.31609 z"
         style="font-size:5.64444447px;stroke-width:0.26458332"
         id="path874"
         inkscape:connector-curvature="0" />
      <path
         d="m 111.6957,230.85414 q -0.42333,0 -0.70555,-0.0677 -0.28223,-0.0734 -0.45156,-0.22578 -0.16933,-0.15804 -0.24271,-0.4064 -0.0677,-0.254 -0.0677,-0.62089 v -0.41204 q 0,-0.36689 0.0677,-0.62089 0.0734,-0.254 0.24271,-0.4064 0.16933,-0.15805 0.45156,-0.22578 0.28222,-0.0734 0.70555,-0.0734 h 2.21262 v 0.72249 h -2.1844 q -0.19755,0 -0.32737,0.0282 -0.12418,0.0282 -0.19756,0.1016 -0.0734,0.0677 -0.1016,0.19191 -0.0282,0.12418 -0.0282,0.31045 v 0.36124 q 0,0.18063 0.0282,0.3048 0.0282,0.11854 0.1016,0.19191 0.0734,0.0734 0.19756,0.10725 0.12982,0.0282 0.32737,0.0282 h 2.19005 v 0.7112 z"
         style="font-size:5.64444447px;stroke-width:0.26458332"
         id="path876"
         inkscape:connector-curvature="0" />
      <path
         d="m 118.71933,227.71583 v -0.7112 h 1.23613 q 0.34431,0 0.58702,0.0508 0.24272,0.0508 0.38947,0.15804 0.1524,0.10725 0.22013,0.28223 0.0677,0.16933 0.0677,0.41204 v 0.28787 q 0,0.33866 -0.12418,0.48542 -0.11853,0.14676 -0.29916,0.19756 0.1016,0.0282 0.18627,0.079 0.0903,0.0452 0.1524,0.14111 0.0677,0.0903 0.1016,0.23142 0.0339,0.14111 0.0339,0.34996 v 0.31044 q 0,0.23142 -0.0677,0.39511 -0.0621,0.16369 -0.21448,0.27094 -0.14676,0.1016 -0.38383,0.1524 -0.23706,0.0452 -0.57573,0.0452 h -3.34716 v -0.7112 h 3.33023 q 0.24271,0 0.34995,-0.0564 0.10725,-0.0621 0.10725,-0.24271 v -0.22578 q 0,-0.23707 -0.096,-0.31045 -0.096,-0.079 -0.33302,-0.079 h -3.33587 v -0.64911 h 3.31329 q 0.22578,0 0.31045,-0.0677 0.0847,-0.0734 0.0847,-0.26529 v -0.23707 q 0,-0.17498 -0.1016,-0.23142 -0.1016,-0.0621 -0.37818,-0.0621 z"
         style="font-size:5.64444447px;stroke-width:0.26458332"
         id="path878"
         inkscape:connector-curvature="0" />
    </g>
    <path
       style="fill:#ffa700;fill-opacity:1;stroke:none;stroke-width:0.26458332;stroke-linecap:butt;stroke-linejoin:miter;stroke-miterlimit:4;stroke-dasharray:none;stroke-opacity:1"
       d="m 38.1,209.68748 3.96875,-2.64584 v 5.29167 z"
       id="path921-9-2-5"
       inkscape:connector-curvature="0" />
    <g
       aria-label="Topic A"
       style="font-style:normal;font-variant:normal;font-weight:normal;font-stretch:normal;font-size:10.58333302px;line-height:1.25;font-family:Neuropolitical;-inkscape-font-specification:Neuropolitical;letter-spacing:0px;word-spacing:0px;fill:#000000;fill-opacity:1;stroke:none;stroke-width:0.26458332"
       id="text1021">
      <path
         d="m 42.141085,184.63231 v -2.33257 h -1.210733 v -0.55456 h 3.069166 v 0.55456 h -1.210733 v 2.33257 z"
         style="font-size:4.23333311px;fill:#805400;fill-opacity:1;stroke-width:0.26458332"
         id="path903"
         inkscape:connector-curvature="0" />
      <path
         d="m 45.271503,184.63231 q -0.3175,0 -0.529167,-0.0508 -0.211667,-0.055 -0.338667,-0.16933 -0.127,-0.11854 -0.182033,-0.3048 -0.0508,-0.1905 -0.0508,-0.46567 v -0.30903 q 0,-0.27517 0.0508,-0.46567 0.05503,-0.1905 0.182033,-0.3048 0.127,-0.11853 0.338667,-0.16933 0.211667,-0.055 0.529167,-0.055 h 0.766233 q 0.321733,0 0.5334,0.055 0.211666,0.0508 0.338666,0.16933 0.127,0.11853 0.1778,0.30903 0.05503,0.1905 0.05503,0.46567 v 0.3048 q 0,0.27517 -0.05503,0.46567 -0.0508,0.18626 -0.1778,0.3048 -0.127,0.1143 -0.338666,0.16933 -0.211667,0.0508 -0.5334,0.0508 z m 1.240366,-1.27847 q 0,-0.14393 -0.0254,-0.23706 -0.02117,-0.0931 -0.08467,-0.14394 -0.05927,-0.055 -0.169333,-0.072 -0.110067,-0.0212 -0.2794,-0.0212 h -0.5969 q -0.169333,0 -0.2794,0.0212 -0.105833,0.0169 -0.169333,0.072 -0.05927,0.0508 -0.08467,0.14394 -0.02117,0.0931 -0.02117,0.23706 v 0.27094 q 0,0.14393 0.02117,0.23706 0.0254,0.0889 0.08467,0.14394 0.0635,0.0508 0.169333,0.072 0.110067,0.0212 0.2794,0.0212 h 0.5969 q 0.169333,0 0.2794,-0.0212 0.110067,-0.0212 0.169333,-0.072 0.0635,-0.055 0.08467,-0.14394 0.0254,-0.0931 0.0254,-0.23706 z"
         style="font-size:4.23333311px;fill:#805400;fill-opacity:1;stroke-width:0.26458332"
         id="path905"
         inkscape:connector-curvature="0" />
      <path
         d="m 49.515617,182.33784 q 0.321734,0 0.5334,0.055 0.211667,0.0508 0.338667,0.16933 0.127,0.1143 0.1778,0.3048 0.05503,0.1905 0.05503,0.46567 v 0.30903 q 0,0.27517 -0.05503,0.46567 -0.0508,0.18626 -0.1778,0.3048 -0.127,0.1143 -0.338667,0.16933 -0.211666,0.0508 -0.5334,0.0508 h -1.278466 v 0.6858 h -0.630767 v -1.98543 q 0,-0.27517 0.0508,-0.46567 0.05503,-0.1905 0.182034,-0.3048 0.127,-0.11853 0.338666,-0.16933 0.211667,-0.055 0.5334,-0.055 z m 0.474134,1.01177 q 0,-0.1524 -0.0254,-0.24553 -0.02117,-0.0931 -0.08467,-0.14394 -0.0635,-0.0508 -0.173567,-0.0677 -0.105833,-0.0169 -0.270933,-0.0169 h -0.702733 q -0.148167,0 -0.245533,0.0212 -0.09737,0.0212 -0.1524,0.0762 -0.05503,0.0508 -0.0762,0.14394 -0.02117,0.0889 -0.02117,0.2286 v 0.7493 h 1.202266 q 0.1651,0 0.270934,-0.0127 0.105833,-0.0169 0.169333,-0.0677 0.0635,-0.0508 0.08467,-0.14393 0.0254,-0.0931 0.0254,-0.24977 z"
         style="font-size:4.23333311px;fill:#805400;fill-opacity:1;stroke-width:0.26458332"
         id="path907"
         inkscape:connector-curvature="0" />
      <path
         d="m 51.095973,184.63231 v -2.2352 h 0.643467 v 2.2352 z m 0.2159,-2.4257 q -0.118533,0 -0.169333,-0.0466 -0.04657,-0.0466 -0.04657,-0.14816 v -0.24554 q 0,-0.1016 0.04657,-0.14393 0.0508,-0.0466 0.169333,-0.0466 h 0.207434 q 0.122766,0 0.169333,0.0466 0.0508,0.0423 0.0508,0.14393 v 0.24554 q 0,0.1016 -0.0508,0.14816 -0.04657,0.0466 -0.169333,0.0466 z"
         style="font-size:4.23333311px;fill:#805400;fill-opacity:1;stroke-width:0.26458332"
         id="path909"
         inkscape:connector-curvature="0" />
      <path
         d="m 53.316489,184.63231 q -0.3175,0 -0.529166,-0.0508 -0.211667,-0.055 -0.338667,-0.16933 -0.127,-0.11854 -0.182033,-0.3048 -0.0508,-0.1905 -0.0508,-0.46567 v -0.30903 q 0,-0.27517 0.0508,-0.46567 0.05503,-0.1905 0.182033,-0.3048 0.127,-0.11853 0.338667,-0.16933 0.211666,-0.055 0.529166,-0.055 h 1.659467 v 0.54187 h -1.6383 q -0.148167,0 -0.245533,0.0212 -0.09313,0.0212 -0.148167,0.0762 -0.05503,0.0508 -0.0762,0.14393 -0.02117,0.0931 -0.02117,0.23283 v 0.27094 q 0,0.13546 0.02117,0.2286 0.02117,0.0889 0.0762,0.14393 0.05503,0.055 0.148167,0.0804 0.09737,0.0212 0.245533,0.0212 h 1.642533 v 0.5334 z"
         style="font-size:4.23333311px;fill:#805400;fill-opacity:1;stroke-width:0.26458332"
         id="path911"
         inkscape:connector-curvature="0" />
      <path
         d="M 60.048943,183.96768 H 58.05081 l -0.410633,0.66463 h -0.740834 l 1.6764,-2.667 q 0.0762,-0.12277 0.182034,-0.2032 0.105833,-0.0804 0.304799,-0.0804 0.194734,0 0.300567,0.0804 0.105833,0.0804 0.182033,0.2032 l 1.667934,2.667 h -0.745067 z m -1.697566,-0.4953 h 1.396999 l -0.6985,-1.13877 z"
         style="font-size:4.23333311px;fill:#805400;fill-opacity:1;stroke-width:0.26458332"
         id="path914"
         inkscape:connector-curvature="0" />
    </g>
    <g
       aria-label="Topic B"
       style="font-style:normal;font-variant:normal;font-weight:normal;font-stretch:normal;font-size:10.58333302px;line-height:1.25;font-family:Neuropolitical;-inkscape-font-specification:Neuropolitical;letter-spacing:0px;word-spacing:0px;fill:#000000;fill-opacity:1;stroke:none;stroke-width:0.26458332"
       id="text1021-4">
      <path
         d="m 42.008795,219.22658 v -2.33257 h -1.210733 v -0.55457 h 3.069166 v 0.55457 h -1.210733 v 2.33257 z"
         style="font-size:4.23333311px;fill:#805400;fill-opacity:1;stroke-width:0.26458332"
         id="path844"
         inkscape:connector-curvature="0" />
      <path
         d="m 45.139213,219.22658 q -0.3175,0 -0.529167,-0.0508 -0.211667,-0.055 -0.338667,-0.16934 -0.127,-0.11853 -0.182033,-0.3048 -0.0508,-0.1905 -0.0508,-0.46566 v -0.30904 q 0,-0.27516 0.0508,-0.46566 0.05503,-0.1905 0.182033,-0.3048 0.127,-0.11854 0.338667,-0.16934 0.211667,-0.055 0.529167,-0.055 h 0.766233 q 0.321733,0 0.5334,0.055 0.211667,0.0508 0.338667,0.16934 0.127,0.11853 0.1778,0.30903 0.05503,0.1905 0.05503,0.46567 v 0.3048 q 0,0.27516 -0.05503,0.46566 -0.0508,0.18627 -0.1778,0.3048 -0.127,0.1143 -0.338667,0.16934 -0.211667,0.0508 -0.5334,0.0508 z m 1.240366,-1.27847 q 0,-0.14393 -0.0254,-0.23707 -0.02117,-0.0931 -0.08467,-0.14393 -0.05927,-0.055 -0.169334,-0.072 -0.110066,-0.0212 -0.2794,-0.0212 h -0.5969 q -0.169333,0 -0.2794,0.0212 -0.105833,0.0169 -0.169333,0.072 -0.05927,0.0508 -0.08467,0.14393 -0.02117,0.0931 -0.02117,0.23707 v 0.27093 q 0,0.14394 0.02117,0.23707 0.0254,0.0889 0.08467,0.14393 0.0635,0.0508 0.169333,0.072 0.110067,0.0212 0.2794,0.0212 h 0.5969 q 0.169334,0 0.2794,-0.0212 0.110067,-0.0212 0.169334,-0.072 0.0635,-0.055 0.08467,-0.14393 0.0254,-0.0931 0.0254,-0.23707 z"
         style="font-size:4.23333311px;fill:#805400;fill-opacity:1;stroke-width:0.26458332"
         id="path846"
         inkscape:connector-curvature="0" />
      <path
         d="m 49.383328,216.93211 q 0.321733,0 0.5334,0.055 0.211666,0.0508 0.338666,0.16934 0.127,0.1143 0.1778,0.3048 0.05503,0.1905 0.05503,0.46566 v 0.30904 q 0,0.27516 -0.05503,0.46566 -0.0508,0.18627 -0.1778,0.3048 -0.127,0.1143 -0.338666,0.16934 -0.211667,0.0508 -0.5334,0.0508 h -1.278467 v 0.6858 h -0.630767 v -1.98544 q 0,-0.27516 0.0508,-0.46566 0.05503,-0.1905 0.182034,-0.3048 0.127,-0.11854 0.338666,-0.16934 0.211667,-0.055 0.5334,-0.055 z m 0.474133,1.01177 q 0,-0.1524 -0.0254,-0.24554 -0.02117,-0.0931 -0.08467,-0.14393 -0.0635,-0.0508 -0.173566,-0.0677 -0.105834,-0.0169 -0.270934,-0.0169 h -0.702733 q -0.148167,0 -0.245533,0.0212 -0.09737,0.0212 -0.1524,0.0762 -0.05503,0.0508 -0.0762,0.14393 -0.02117,0.0889 -0.02117,0.2286 v 0.7493 h 1.202267 q 0.1651,0 0.270933,-0.0127 0.105833,-0.0169 0.169333,-0.0677 0.0635,-0.0508 0.08467,-0.14393 0.0254,-0.0931 0.0254,-0.24977 z"
         style="font-size:4.23333311px;fill:#805400;fill-opacity:1;stroke-width:0.26458332"
         id="path848"
         inkscape:connector-curvature="0" />
      <path
         d="m 50.963683,219.22658 v -2.2352 h 0.643467 v 2.2352 z m 0.2159,-2.4257 q -0.118533,0 -0.169333,-0.0466 -0.04657,-0.0466 -0.04657,-0.14817 v -0.24553 q 0,-0.1016 0.04657,-0.14393 0.0508,-0.0466 0.169333,-0.0466 h 0.207434 q 0.122766,0 0.169333,0.0466 0.0508,0.0423 0.0508,0.14393 v 0.24553 q 0,0.1016 -0.0508,0.14817 -0.04657,0.0466 -0.169333,0.0466 z"
         style="font-size:4.23333311px;fill:#805400;fill-opacity:1;stroke-width:0.26458332"
         id="path850"
         inkscape:connector-curvature="0" />
      <path
         d="m 53.184199,219.22658 q -0.3175,0 -0.529166,-0.0508 -0.211667,-0.055 -0.338667,-0.16934 -0.127,-0.11853 -0.182033,-0.3048 -0.0508,-0.1905 -0.0508,-0.46566 v -0.30904 q 0,-0.27516 0.0508,-0.46566 0.05503,-0.1905 0.182033,-0.3048 0.127,-0.11854 0.338667,-0.16934 0.211666,-0.055 0.529166,-0.055 h 1.659467 v 0.54187 h -1.6383 q -0.148167,0 -0.245533,0.0212 -0.09313,0.0212 -0.148167,0.0762 -0.05503,0.0508 -0.0762,0.14394 -0.02117,0.0931 -0.02117,0.23283 v 0.27093 q 0,0.13547 0.02117,0.2286 0.02117,0.0889 0.0762,0.14394 0.05503,0.055 0.148167,0.0804 0.09737,0.0212 0.245533,0.0212 h 1.642533 v 0.5334 z"
         style="font-size:4.23333311px;fill:#805400;fill-opacity:1;stroke-width:0.26458332"
         id="path852"
         inkscape:connector-curvature="0" />
      <path
         d="m 56.97872,216.33944 h 2.434167 q 0.245533,0 0.4191,0.0339 0.173566,0.0339 0.2794,0.1143 0.110066,0.0762 0.160866,0.2032 0.0508,0.12277 0.0508,0.3048 v 0.23707 q 0,0.254 -0.0889,0.36406 -0.0889,0.11007 -0.224366,0.14817 0.0762,0.0169 0.1397,0.055 0.06773,0.0339 0.1143,0.1016 0.04657,0.0677 0.07197,0.1778 0.0254,0.10584 0.0254,0.2667 v 0.254 q 0,0.17357 -0.0508,0.2921 -0.04657,0.11854 -0.156633,0.19474 -0.105833,0.072 -0.2794,0.10583 -0.173567,0.0339 -0.4191,0.0339 h -2.4765 z m 0.643467,1.65524 v 0.70696 h 1.799166 q 0.182034,0 0.258234,-0.0466 0.08043,-0.0508 0.08043,-0.18627 v -0.1778 q 0,-0.1778 -0.07197,-0.23707 -0.06773,-0.0593 -0.245533,-0.0593 z m 0,-1.1303 v 0.66463 h 1.8034 q 0.169333,0 0.232833,-0.055 0.0635,-0.055 0.0635,-0.19897 v -0.18203 q 0,-0.13124 -0.08043,-0.1778 -0.0762,-0.0508 -0.2794,-0.0508 z"
         style="font-size:4.23333311px;fill:#805400;fill-opacity:1;stroke-width:0.26458332"
         id="path854"
         inkscape:connector-curvature="0" />
    </g>
    <g
       aria-label="Topic C"
       style="font-style:normal;font-variant:normal;font-weight:normal;font-stretch:normal;font-size:10.58333302px;line-height:1.25;font-family:Neuropolitical;-inkscape-font-specification:Neuropolitical;letter-spacing:0px;word-spacing:0px;fill:#000000;fill-opacity:1;stroke:none;stroke-width:0.26458332"
       id="text1021-4-7">
      <path
         d="m 95.32234,243.70055 v -2.33257 h -1.210733 v -0.55457 h 3.069167 v 0.55457 H 95.97004 v 2.33257 z"
         style="font-size:4.23333311px;fill:#805400;fill-opacity:1;stroke-width:0.26458332"
         id="path857"
         inkscape:connector-curvature="0" />
      <path
         d="m 98.452758,243.70055 q -0.3175,0 -0.529167,-0.0508 -0.211666,-0.055 -0.338666,-0.16934 -0.127,-0.11853 -0.182034,-0.3048 -0.0508,-0.1905 -0.0508,-0.46566 v -0.30904 q 0,-0.27516 0.0508,-0.46566 0.05503,-0.1905 0.182034,-0.3048 0.127,-0.11854 0.338666,-0.16934 0.211667,-0.055 0.529167,-0.055 h 0.766233 q 0.321733,0 0.5334,0.055 0.211667,0.0508 0.338669,0.16934 0.127,0.11853 0.1778,0.30903 0.055,0.1905 0.055,0.46567 v 0.3048 q 0,0.27516 -0.055,0.46566 -0.0508,0.18627 -0.1778,0.3048 -0.127002,0.1143 -0.338669,0.16934 -0.211667,0.0508 -0.5334,0.0508 z m 1.240366,-1.27847 q 0,-0.14393 -0.0254,-0.23707 -0.02117,-0.0931 -0.08467,-0.14393 -0.05927,-0.055 -0.169333,-0.072 -0.110067,-0.0212 -0.2794,-0.0212 h -0.5969 q -0.169334,0 -0.2794,0.0212 -0.105834,0.0169 -0.169334,0.072 -0.05927,0.0508 -0.08467,0.14393 -0.02117,0.0931 -0.02117,0.23707 v 0.27093 q 0,0.14394 0.02117,0.23707 0.0254,0.0889 0.08467,0.14393 0.0635,0.0508 0.169334,0.072 0.110066,0.0212 0.2794,0.0212 h 0.5969 q 0.169333,0 0.2794,-0.0212 0.110066,-0.0212 0.169333,-0.072 0.0635,-0.055 0.08467,-0.14393 0.0254,-0.0931 0.0254,-0.23707 z"
         style="font-size:4.23333311px;fill:#805400;fill-opacity:1;stroke-width:0.26458332"
         id="path859"
         inkscape:connector-curvature="0" />
      <path
         d="m 102.69687,241.40608 q 0.32174,0 0.5334,0.055 0.21167,0.0508 0.33867,0.16934 0.127,0.1143 0.1778,0.3048 0.055,0.1905 0.055,0.46566 v 0.30904 q 0,0.27516 -0.055,0.46566 -0.0508,0.18627 -0.1778,0.3048 -0.127,0.1143 -0.33867,0.16934 -0.21166,0.0508 -0.5334,0.0508 h -1.27846 v 0.6858 h -0.63077 v -1.98544 q 0,-0.27516 0.0508,-0.46566 0.055,-0.1905 0.18203,-0.3048 0.127,-0.11854 0.33867,-0.16934 0.21167,-0.055 0.5334,-0.055 z m 0.47414,1.01177 q 0,-0.1524 -0.0254,-0.24554 -0.0212,-0.0931 -0.0847,-0.14393 -0.0635,-0.0508 -0.17357,-0.0677 -0.10583,-0.0169 -0.27093,-0.0169 h -0.70273 q -0.14817,0 -0.24554,0.0212 -0.0974,0.0212 -0.1524,0.0762 -0.055,0.0508 -0.0762,0.14393 -0.0212,0.0889 -0.0212,0.2286 v 0.7493 h 1.20226 q 0.1651,0 0.27094,-0.0127 0.10583,-0.0169 0.16933,-0.0677 0.0635,-0.0508 0.0847,-0.14393 0.0254,-0.0931 0.0254,-0.24977 z"
         style="font-size:4.23333311px;fill:#805400;fill-opacity:1;stroke-width:0.26458332"
         id="path861"
         inkscape:connector-curvature="0" />
      <path
         d="m 104.27723,243.70055 v -2.2352 h 0.64347 v 2.2352 z m 0.2159,-2.4257 q -0.11853,0 -0.16933,-0.0466 -0.0466,-0.0466 -0.0466,-0.14817 v -0.24553 q 0,-0.1016 0.0466,-0.14393 0.0508,-0.0466 0.16933,-0.0466 h 0.20743 q 0.12277,0 0.16934,0.0466 0.0508,0.0423 0.0508,0.14393 v 0.24553 q 0,0.1016 -0.0508,0.14817 -0.0466,0.0466 -0.16934,0.0466 z"
         style="font-size:4.23333311px;fill:#805400;fill-opacity:1;stroke-width:0.26458332"
         id="path863"
         inkscape:connector-curvature="0" />
      <path
         d="m 106.49774,243.70055 q -0.3175,0 -0.52916,-0.0508 -0.21167,-0.055 -0.33867,-0.16934 -0.127,-0.11853 -0.18203,-0.3048 -0.0508,-0.1905 -0.0508,-0.46566 v -0.30904 q 0,-0.27516 0.0508,-0.46566 0.055,-0.1905 0.18203,-0.3048 0.127,-0.11854 0.33867,-0.16934 0.21166,-0.055 0.52916,-0.055 h 1.65947 v 0.54187 h -1.6383 q -0.14817,0 -0.24553,0.0212 -0.0931,0.0212 -0.14817,0.0762 -0.055,0.0508 -0.0762,0.14394 -0.0212,0.0931 -0.0212,0.23283 v 0.27093 q 0,0.13547 0.0212,0.2286 0.0212,0.0889 0.0762,0.14394 0.055,0.055 0.14817,0.0804 0.0974,0.0212 0.24553,0.0212 h 1.64253 v 0.5334 z"
         style="font-size:4.23333311px;fill:#805400;fill-opacity:1;stroke-width:0.26458332"
         id="path865"
         inkscape:connector-curvature="0" />
      <path
         d="m 111.376,243.70055 q -0.3175,0 -0.52917,-0.0508 -0.21166,-0.055 -0.33866,-0.16934 -0.127,-0.11853 -0.18204,-0.3048 -0.0508,-0.1905 -0.0508,-0.46566 v -0.90594 q 0,-0.27093 0.0508,-0.46143 0.055,-0.1905 0.18204,-0.3048 0.127,-0.11853 0.33866,-0.16933 0.21167,-0.055 0.52917,-0.055 h 2.00237 v 0.55457 h -1.97274 q -0.14816,0 -0.24553,0.0254 -0.0931,0.0212 -0.14817,0.0762 -0.055,0.055 -0.0762,0.14817 -0.0212,0.0889 -0.0212,0.22013 v 0.84667 q 0,0.13546 0.0212,0.22436 0.0212,0.0889 0.0762,0.14394 0.055,0.055 0.1524,0.0762 0.0974,0.0212 0.24554,0.0212 h 1.9685 v 0.55034 z"
         style="font-size:4.23333311px;fill:#805400;fill-opacity:1;stroke-width:0.26458332"
         id="path867"
         inkscape:connector-curvature="0" />
    </g>
  </g>
</svg>
