<?xml version="1.0" encoding="UTF-8" standalone="no"?>
<!-- Generator: Adobe Illustrator 16.0.0, SVG Export Plug-In . SVG Version: 6.00 Build 0)  -->

<svg
   xmlns:dc="http://purl.org/dc/elements/1.1/"
   xmlns:cc="http://creativecommons.org/ns#"
   xmlns:rdf="http://www.w3.org/1999/02/22-rdf-syntax-ns#"
   xmlns:svg="http://www.w3.org/2000/svg"
   xmlns="http://www.w3.org/2000/svg"
   xmlns:sodipodi="http://sodipodi.sourceforge.net/DTD/sodipodi-0.dtd"
   xmlns:inkscape="http://www.inkscape.org/namespaces/inkscape"
   version="1.1"
   id="Capa_1"
   x="0px"
   y="0px"
   width="478.125px"
   height="478.125px"
   viewBox="0 0 478.125 478.125"
   style="enable-background:new 0 0 478.125 478.125;"
   xml:space="preserve"
   sodipodi:docname="import.svg"
   inkscape:version="0.92.4 (5da689c313, 2019-01-14)"><metadata
   id="metadata49"><rdf:RDF><cc:Work
       rdf:about=""><dc:format>image/svg+xml</dc:format><dc:type
         rdf:resource="http://purl.org/dc/dcmitype/StillImage" /></cc:Work></rdf:RDF></metadata><defs
   id="defs47" /><sodipodi:namedview
   pagecolor="#ffffff"
   bordercolor="#666666"
   borderopacity="1"
   objecttolerance="10"
   gridtolerance="10"
   guidetolerance="10"
   inkscape:pageopacity="0"
   inkscape:pageshadow="2"
   inkscape:window-width="1920"
   inkscape:window-height="1001"
   id="namedview45"
   showgrid="false"
   inkscape:zoom="0.49359477"
   inkscape:cx="-102.31065"
   inkscape:cy="239.0625"
   inkscape:window-x="-9"
   inkscape:window-y="-9"
   inkscape:window-maximized="1"
   inkscape:current-layer="Capa_1" />
<g
   id="g12"
   style="fill:#1b1abb;fill-opacity:1">
	<g
   id="g10"
   style="fill:#1b1abb;fill-opacity:1">
		<rect
   x="114.75"
   y="66.938"
   width="133.875"
   height="19.125"
   id="rect2"
   style="fill:#1b1abb;fill-opacity:1" />
		<rect
   x="114.75"
   y="143.438"
   width="133.875"
   height="19.125"
   id="rect4"
   style="fill:#1b1abb;fill-opacity:1" />
		<path
   d="M420.75,204.638v-61.2L306,9.562H95.625c-21.038,0-38.25,17.212-38.25,38.25v156.825L0,296.438v172.125h478.125V325.125    v-28.688L420.75,204.638z M57.375,296.438H22.95l34.425-53.55V296.438z M306,38.25l89.888,105.188h-70.763    c-9.562,0-19.125-9.562-19.125-19.125V38.25z M325.125,334.688c0,21.037-17.213,38.25-38.25,38.25H191.25    c-21.038,0-38.25-17.213-38.25-38.25v-19.125h172.125V334.688z M401.625,296.438H76.5V47.812c0-11.475,7.65-19.125,19.125-19.125    h191.25v95.625c0,21.038,17.213,38.25,38.25,38.25h76.5V296.438z M420.75,296.438v-53.55l34.425,53.55H420.75z"
   id="path6"
   style="fill:#1b1abb;fill-opacity:1" />
		<rect
   x="114.75"
   y="219.938"
   width="248.625"
   height="19.125"
   id="rect8"
   style="fill:#1b1abb;fill-opacity:1" />
	</g>
</g>
<g
   id="g14">
</g>
<g
   id="g16">
</g>
<g
   id="g18">
</g>
<g
   id="g20">
</g>
<g
   id="g22">
</g>
<g
   id="g24">
</g>
<g
   id="g26">
</g>
<g
   id="g28">
</g>
<g
   id="g30">
</g>
<g
   id="g32">
</g>
<g
   id="g34">
</g>
<g
   id="g36">
</g>
<g
   id="g38">
</g>
<g
   id="g40">
</g>
<g
   id="g42">
</g>
</svg>