<?xml version="1.0" encoding="UTF-8" standalone="no"?>
<svg
   xmlns:dc="http://purl.org/dc/elements/1.1/"
   xmlns:cc="http://creativecommons.org/ns#"
   xmlns:rdf="http://www.w3.org/1999/02/22-rdf-syntax-ns#"
   xmlns:svg="http://www.w3.org/2000/svg"
   xmlns="http://www.w3.org/2000/svg"
   xmlns:sodipodi="http://sodipodi.sourceforge.net/DTD/sodipodi-0.dtd"
   xmlns:inkscape="http://www.inkscape.org/namespaces/inkscape"
   width="540.02936mm"
   height="120mm"
   viewBox="0 0 540.02938 120"
   version="1.1"
   id="svg8"
   inkscape:version="1.0.1 (3bc2e813f5, 2020-09-07)"
   sodipodi:docname="logo_before_text.svg">
  <defs
     id="defs2" />
  <sodipodi:namedview
     id="base"
     pagecolor="#ffffff"
     bordercolor="#666666"
     borderopacity="1.0"
     inkscape:pageopacity="0.0"
     inkscape:pageshadow="2"
     inkscape:zoom="0.49497475"
     inkscape:cx="983.40789"
     inkscape:cy="136.87856"
     inkscape:document-units="mm"
     inkscape:current-layer="layer1"
     inkscape:document-rotation="0"
     showgrid="true"
     fit-margin-top="0"
     fit-margin-left="0"
     fit-margin-right="0"
     fit-margin-bottom="0"
     inkscape:window-width="1254"
     inkscape:window-height="967"
     inkscape:window-x="1552"
     inkscape:window-y="78"
     inkscape:window-maximized="0"
     inkscape:snap-page="false">
    <inkscape:grid
       type="xygrid"
       id="grid917"
       units="cm"
       spacingx="9.9999997"
       spacingy="9.9999997"
       empspacing="8"
       originx="-1.9560625e-07"
       originy="2.9458236e-07" />
  </sodipodi:namedview>
  <metadata
     id="metadata5">
    <rdf:RDF>
      <cc:Work
         rdf:about="">
        <dc:format>image/svg+xml</dc:format>
        <dc:type
           rdf:resource="http://purl.org/dc/dcmitype/StillImage" />
        <dc:title></dc:title>
      </cc:Work>
    </rdf:RDF>
  </metadata>
  <g
     inkscape:label="Ebene 1"
     inkscape:groupmode="layer"
     id="layer1"
     transform="translate(89.185173,-99.999999)">
    <g
       id="g92"
       transform="matrix(0.75,0,0,0.75,-111.68429,93.880632)">
      <ellipse
         style="fill:none;fill-opacity:1;stroke:#ffa500;stroke-width:4.41565;stroke-linejoin:miter;stroke-dasharray:none;stroke-opacity:1;paint-order:normal"
         id="path65-9"
         cx="87.920593"
         cy="21.924437"
         rx="11.557458"
         ry="11.557456" />
      <ellipse
         style="fill:none;fill-opacity:1;stroke:#ffa500;stroke-width:4.41565;stroke-linejoin:miter;stroke-dasharray:none;stroke-opacity:1;paint-order:normal"
         id="path65-9-8"
         cx="132.11072"
         cy="77.153671"
         rx="11.557458"
         ry="11.557456" />
      <ellipse
         style="fill:none;fill-opacity:1;stroke:#ffa500;stroke-width:4.41565;stroke-linejoin:miter;stroke-dasharray:none;stroke-opacity:1;paint-order:normal"
         id="path65-9-8-6"
         cx="132.07709"
         cy="154.39388"
         rx="11.557458"
         ry="11.557456" />
      <ellipse
         style="fill:none;fill-opacity:1;stroke:#ffa500;stroke-width:4.41565;stroke-linejoin:miter;stroke-dasharray:none;stroke-opacity:1;paint-order:normal"
         id="path65"
         cx="43.792336"
         cy="55.070019"
         rx="11.585688"
         ry="11.585686" />
      <circle
         style="fill:#ffa500;fill-opacity:1;stroke:none;stroke-width:0;stroke-linejoin:miter;stroke-dasharray:none;stroke-opacity:1;paint-order:normal"
         id="path3625"
         cx="43.797718"
         cy="55.075428"
         r="6.0715175" />
      <ellipse
         style="fill:none;fill-opacity:1;stroke:#ffa500;stroke-width:4.41565;stroke-linejoin:miter;stroke-dasharray:none;stroke-opacity:1;paint-order:normal"
         id="path65-97"
         cx="176.23358"
         cy="55.04179"
         rx="11.557458"
         ry="11.557456" />
      <circle
         style="fill:#ffa500;fill-opacity:1;stroke:none;stroke-width:0;stroke-linejoin:miter;stroke-dasharray:none;stroke-opacity:1;paint-order:normal"
         id="path3625-3"
         cx="176.2672"
         cy="55.075428"
         r="6.0715175" />
      <ellipse
         style="fill:none;fill-opacity:1;stroke:#ffa500;stroke-width:4.41565;stroke-linejoin:miter;stroke-dasharray:none;stroke-opacity:1;paint-order:normal"
         id="path65-97-8"
         cx="87.920593"
         cy="99.198296"
         rx="11.557458"
         ry="11.557456" />
      <circle
         style="fill:#ffa500;fill-opacity:1;stroke:none;stroke-width:0;stroke-linejoin:miter;stroke-dasharray:none;stroke-opacity:1;paint-order:normal"
         id="path3625-3-7"
         cx="87.954216"
         cy="99.231918"
         r="6.0715175" />
      <ellipse
         style="fill:none;fill-opacity:1;stroke:#ffa500;stroke-width:4.41565;stroke-linejoin:miter;stroke-dasharray:none;stroke-opacity:1;paint-order:normal"
         id="path65-97-8-3"
         cx="176.23358"
         cy="132.31563"
         rx="11.557458"
         ry="11.557456" />
      <circle
         style="fill:#ffa500;fill-opacity:1;stroke:none;stroke-width:0;stroke-linejoin:miter;stroke-dasharray:none;stroke-opacity:1;paint-order:normal"
         id="path3625-3-7-7"
         cx="176.2672"
         cy="132.34924"
         r="6.0715175" />
      <path
         style="fill:#000000;fill-opacity:1;stroke:#ffa500;stroke-width:4.41565;stroke-linejoin:miter;stroke-dasharray:none;stroke-opacity:1;paint-order:normal"
         d="M 53.038538,48.042417 78.49974,28.848595"
         id="path7177"
         sodipodi:nodetypes="cc" />
      <path
         style="fill:#000000;fill-opacity:1;stroke:#ffa500;stroke-width:4.41565;stroke-linejoin:miter;stroke-dasharray:none;stroke-opacity:1;paint-order:normal"
         d="m 54.99709,58.618604 65.02399,17.235283"
         id="path7179"
         sodipodi:nodetypes="cc" />
      <path
         style="fill:#000000;fill-opacity:1;stroke:#ffa500;stroke-width:4.416;stroke-linejoin:miter;stroke-miterlimit:4;stroke-dasharray:none;stroke-opacity:1;paint-order:normal"
         d="M 99.260413,23.756347 165.45954,50.000978"
         id="path7181"
         sodipodi:nodetypes="cc" />
      <path
         style="fill:#000000;fill-opacity:1;stroke:#ffa500;stroke-width:4.41565;stroke-linejoin:miter;stroke-dasharray:none;stroke-opacity:1;paint-order:normal"
         d="M 165.85125,59.79374 142.74031,71.936776"
         id="path7183"
         sodipodi:nodetypes="cc" />
      <path
         style="fill:#000000;fill-opacity:1;stroke:#ffa500;stroke-width:4.41565;stroke-linejoin:miter;stroke-dasharray:none;stroke-opacity:1;paint-order:normal"
         d="M 98.47699,93.872584 121.58793,82.121261"
         id="path7185"
         sodipodi:nodetypes="cc" />
      <path
         style="fill:#000000;fill-opacity:1;stroke:#ffa500;stroke-width:4.41565;stroke-linejoin:miter;stroke-dasharray:none;stroke-opacity:1;paint-order:normal"
         d="M 168.59322,123.64261 139.21491,85.64666"
         id="path7189" />
      <path
         style="fill:none;fill-opacity:1;stroke:#ffa500;stroke-width:4.41565;stroke-linecap:round;stroke-linejoin:round;stroke-dasharray:none;stroke-opacity:1;paint-order:normal"
         d="m 94.915983,108.722 28.986607,37.21252"
         id="path7217"
         sodipodi:nodetypes="cc" />
      <path
         style="display:inline;fill:none;fill-opacity:1;stroke:#ffa500;stroke-width:4.41565;stroke-linecap:round;stroke-linejoin:round;stroke-dasharray:none;stroke-opacity:1;paint-order:normal"
         d="m 143.48812,149.45991 21.93581,-10.57619"
         id="path7219"
         sodipodi:nodetypes="cc" />
    </g>
    <g
       aria-label="eCAL"
       id="text921"
       style="font-size:114.778px;line-height:1.25;font-family:sans-serif;-inkscape-font-specification:sans-serif;fill:#ffa500;fill-opacity:1;stroke-width:0.842456"
       transform="translate(10.000005)">
      <path
         d="m 77.916744,175.20821 v 2.86945 q 0,2.86945 0.459112,4.59112 0.459112,1.72167 1.606892,2.75467 1.262558,0.91823 3.213784,1.26256 2.066004,0.34434 5.050232,0.34434 h 20.200926 v 12.96991 H 88.246764 q -14.806362,0 -21.119152,-5.62412 -6.31279,-5.62412 -6.31279,-18.02015 v -14.34725 q 0,-6.7719 1.262558,-11.36302 1.377336,-4.7059 4.59112,-7.46057 3.328562,-2.86945 8.723128,-4.13201 5.394566,-1.26256 13.658582,-1.26256 h 30.07184 q 6.65712,0 11.01868,1.26256 4.47635,1.26256 7.00146,3.55812 2.6399,2.18078 3.6729,5.39457 1.033,3.099 1.033,6.7719 v 20.43048 z m 46.829426,-19.05315 q 0,-3.099 -1.60689,-4.132 -1.49212,-1.03301 -5.39457,-1.03301 H 89.279766 q -3.213784,0 -5.394566,0.34434 -2.180782,0.22955 -3.558118,1.26256 -1.262558,1.033 -1.836448,2.98422 -0.57389,1.95123 -0.57389,5.27979 v 3.32856 h 46.829426 z"
         style="font-style:normal;font-variant:normal;font-weight:normal;font-stretch:normal;font-size:114.778px;font-family:Neuropolitical;-inkscape-font-specification:Neuropolitical;fill:#ffa500;fill-opacity:1;stroke-width:0.842456"
         id="path853" />
      <path
         d="m 183.51229,200.00026 q -8.60835,0 -14.34725,-1.37734 -5.7389,-1.49211 -9.18224,-4.59112 -3.44334,-3.21378 -4.93546,-8.26401 -1.37733,-5.16501 -1.37733,-12.62558 v -24.56249 q 0,-7.3458 1.37733,-12.51081 1.49212,-5.16501 4.93546,-8.26401 3.44334,-3.21379 9.18224,-4.59112 5.7389,-1.49212 14.34725,-1.49212 h 54.28999 v 15.03592 h -53.48655 q -4.01723,0 -6.65712,0.68867 -2.52512,0.57389 -4.01723,2.066 -1.49211,1.49212 -2.066,4.01723 -0.57389,2.41034 -0.57389,5.96846 v 22.9556 q 0,3.6729 0.57389,6.08323 0.57389,2.41034 2.066,3.90246 1.49211,1.49211 4.13201,2.066 2.63989,0.57389 6.65712,0.57389 h 53.37177 v 14.92114 z"
         style="font-style:normal;font-variant:normal;font-weight:normal;font-stretch:normal;font-size:114.778px;font-family:Neuropolitical;-inkscape-font-specification:Neuropolitical;fill:#ffa500;fill-opacity:1;stroke-width:0.842456"
         id="path855" />
      <path
         d="m 328.59149,181.98011 h -54.17522 l -11.13347,18.02015 h -20.08615 l 45.45209,-72.31014 q 2.06601,-3.32856 4.93546,-5.50934 2.86945,-2.18079 8.26401,-2.18079 5.27979,0 8.14924,2.18079 2.86945,2.18078 4.93545,5.50934 l 45.22254,72.31014 h -20.20093 z m -46.02598,-13.42902 h 37.87674 l -18.93837,-30.87528 z"
         style="font-style:normal;font-variant:normal;font-weight:normal;font-stretch:normal;font-size:114.778px;font-family:Neuropolitical;-inkscape-font-specification:Neuropolitical;fill:#ffa500;fill-opacity:1;stroke-width:0.842456"
         id="path857" />
      <path
         d="m 392.86697,200.00026 q -8.60835,0 -14.34725,-1.37734 -5.7389,-1.49211 -9.18224,-4.59112 -3.44334,-3.21378 -4.93545,-8.26401 -1.37734,-5.16501 -1.37734,-12.62558 v -51.42055 h 17.33148 v 50.73188 q 0,3.44334 0.57389,5.85368 0.68867,2.29556 2.29556,3.90245 1.60689,1.49211 4.24679,2.18078 2.75467,0.68867 6.88668,0.68867 h 46.48509 v 14.92114 z"
         style="font-style:normal;font-variant:normal;font-weight:normal;font-stretch:normal;font-size:114.778px;font-family:Neuropolitical;-inkscape-font-specification:Neuropolitical;fill:#ffa500;fill-opacity:1;stroke-width:0.842456"
         id="path859" />
    </g>
  </g>
</svg>
