<?xml version="1.0" encoding="iso-8859-1"?>
<!-- Generator: Adobe Illustrator 18.1.1, SVG Export Plug-In . SVG Version: 6.00 Build 0)  -->
<svg xmlns="http://www.w3.org/2000/svg" xmlns:xlink="http://www.w3.org/1999/xlink" version="1.1" id="Capa_1" x="0px" y="0px" viewBox="0 0 19 19" style="enable-background:new 0 0 19 19;" xml:space="preserve" width="512px" height="512px">
<g>
	<path d="M16.75,14.5h-7c-1.103,0-2,0.897-2,2s0.897,2,2,2h7c1.103,0,2-0.897,2-2S17.853,14.5,16.75,14.5z"/>
	<path d="M16.75,7.5h-7c-1.103,0-2,0.897-2,2s0.897,2,2,2h7c1.103,0,2-0.897,2-2S17.853,7.5,16.75,7.5z"/>
	<path d="M16.75,0.5h-7c-1.103,0-2,0.897-2,2s0.897,2,2,2h7c1.103,0,2-0.897,2-2S17.853,0.5,16.75,0.5z"/>
	<circle cx="2.75" cy="16.5" r="2.5"/>
	<circle cx="2.75" cy="9.5" r="2.5"/>
	<circle cx="2.75" cy="2.5" r="2.5"/>
</g>
<g>
</g>
<g>
</g>
<g>
</g>
<g>
</g>
<g>
</g>
<g>
</g>
<g>
</g>
<g>
</g>
<g>
</g>
<g>
</g>
<g>
</g>
<g>
</g>
<g>
</g>
<g>
</g>
<g>
</g>
</svg>
