<?xml version="1.0" encoding="UTF-8" standalone="no"?>
<svg
   xmlns:dc="http://purl.org/dc/elements/1.1/"
   xmlns:cc="http://creativecommons.org/ns#"
   xmlns:rdf="http://www.w3.org/1999/02/22-rdf-syntax-ns#"
   xmlns:svg="http://www.w3.org/2000/svg"
   xmlns="http://www.w3.org/2000/svg"
   version="1.1"
   id="Capa_1"
   x="0px"
   y="0px"
   viewBox="0 0 36 36"
   style="enable-background:new 0 0 36 36 ;"
   xml:space="preserve"
   width="512px"
   height="512px"><metadata
     id="metadata43"><rdf:RDF><cc:Work
         rdf:about=""><dc:format>image/svg+xml</dc:format><dc:type
           rdf:resource="http://purl.org/dc/dcmitype/StillImage" /><dc:title></dc:title></cc:Work></rdf:RDF></metadata><defs
     id="defs41" /><g
     transform="matrix(2.9985822,0,0,2.9985822,0.54733253,-0.56281433)"
     id="g6"><g
       id="g4"
       style="opacity:1;fill:#060060;fill-opacity:1"
       transform="matrix(0.77966535,0,0,0.77966535,1.3222282,1.3222022)"><path
         d="m 6.873,6.193 5.128,0 0,-5.127 C 11.993,-0.069 11.33,-0.342 10.528,0.461 L 9.374,1.619 C 8.359,0.824 7.117,0.389 5.808,0.389 4.258,0.389 2.799,0.993 1.704,2.09 0.605,3.182 0.001,4.643 0.001,6.193 c 0,1.553 0.604,3.012 1.701,4.107 1.097,1.097 2.555,1.702 4.106,1.702 1.55,0 3.009,-0.605 4.106,-1.703 0.296,-0.297 0.558,-0.621 0.78,-0.965 0.347,-0.541 0.19,-1.26 -0.35,-1.605 C 9.805,7.383 9.086,7.54 8.74,8.079 8.607,8.286 8.448,8.479 8.272,8.659 7.613,9.317 6.738,9.679 5.808,9.679 4.878,9.679 4.003,9.318 3.344,8.659 2.687,8.001 2.324,7.126 2.324,6.194 c 0,-0.93 0.362,-1.805 1.02,-2.461 0.659,-0.658 1.534,-1.021 2.464,-1.021 0.688,0 1.346,0.201 1.909,0.572 L 6.269,4.735 C 5.466,5.537 5.739,6.193 6.873,6.193 Z"
         id="path2"
         style="fill:#060060;fill-opacity:1" /></g></g><g
     id="g8" /><g
     id="g10" /><g
     id="g12" /><g
     id="g14" /><g
     id="g16" /><g
     id="g18" /><g
     id="g20" /><g
     id="g22" /><g
     id="g24" /><g
     id="g26" /><g
     id="g28" /><g
     id="g30" /><g
     id="g32" /><g
     id="g34" /><g
     id="g36" /></svg>