<?xml version="1.0" encoding="UTF-8" standalone="no"?>
<svg
   xmlns:dc="http://purl.org/dc/elements/1.1/"
   xmlns:cc="http://creativecommons.org/ns#"
   xmlns:rdf="http://www.w3.org/1999/02/22-rdf-syntax-ns#"
   xmlns:svg="http://www.w3.org/2000/svg"
   xmlns="http://www.w3.org/2000/svg"
   xmlns:sodipodi="http://sodipodi.sourceforge.net/DTD/sodipodi-0.dtd"
   xmlns:inkscape="http://www.inkscape.org/namespaces/inkscape"
   width="3300"
   height="660"
   viewBox="0 0 873.12495 174.62499"
   version="1.1"
   id="svg8"
   sodipodi:docname="play.svg"
   inkscape:version="1.0.1 (3bc2e813f5, 2020-09-07)">
  <defs
     id="defs2">
    <clipPath
       id="clipEmfPath1"
       clipPathUnits="userSpaceOnUse">
      <path
         inkscape:connector-curvature="0"
         id="path5723"
         d="M -89.199339,-108.0792 H 704.55478 V 1014.4725 H -89.199339" />
    </clipPath>
  </defs>
  <sodipodi:namedview
     id="base"
     pagecolor="#ffffff"
     bordercolor="#666666"
     borderopacity="1.0"
     inkscape:pageopacity="0.0"
     inkscape:pageshadow="2"
     inkscape:zoom="0.32"
     inkscape:cx="1539.8075"
     inkscape:cy="65.606776"
     inkscape:document-units="mm"
     inkscape:current-layer="layer1"
     showgrid="true"
     units="px"
     inkscape:window-width="1920"
     inkscape:window-height="1129"
     inkscape:window-x="1912"
     inkscape:window-y="-8"
     inkscape:window-maximized="1"
     inkscape:document-rotation="0"
     fit-margin-top="0"
     fit-margin-left="0"
     fit-margin-right="0"
     fit-margin-bottom="0">
    <inkscape:grid
       type="xygrid"
       id="grid4518"
       spacingx="2.1166666"
       spacingy="2.1166666"
       empspacing="4"
       originx="1.0791014e-07"
       originy="-2.1350096e-06" />
  </sodipodi:namedview>
  <metadata
     id="metadata5">
    <rdf:RDF>
      <cc:Work
         rdf:about="">
        <dc:format>image/svg+xml</dc:format>
        <dc:type
           rdf:resource="http://purl.org/dc/dcmitype/StillImage" />
        <dc:title />
      </cc:Work>
    </rdf:RDF>
  </metadata>
  <g
     inkscape:label="Ebene 1"
     inkscape:groupmode="layer"
     id="layer1"
     transform="translate(57.618498,-132.72428)">
    <g
       aria-label="play"
       id="text896"
       style="font-size:180.622px;line-height:1.25;font-family:sans-serif;-inkscape-font-specification:sans-serif;display:inline;stroke-width:0.264583"
       inkscape:label="play">
      <path
         d="m 219.90658,172.71381 q 13.72727,0 22.75837,2.34809 9.0311,2.16746 14.44976,7.22488 5.41866,4.87679 7.58613,13.00478 2.34808,8.12799 2.34808,19.86842 v 13.1854 q 0,11.74043 -2.34808,19.86842 -2.16747,7.94737 -7.58613,13.00479 -5.41866,4.87679 -14.44976,7.22488 -9.0311,2.16746 -22.75837,2.16746 h -54.54784 v 29.26076 h -26.91268 v -84.71171 q 0,-11.74043 2.16747,-19.86842 2.34808,-8.12799 7.76674,-13.00478 5.41866,-5.05742 14.44976,-7.22488 9.0311,-2.34809 22.75837,-2.34809 z m 20.22967,43.16866 q 0,-6.50239 -1.08374,-10.47608 -0.90311,-3.97368 -3.61244,-6.14115 -2.70933,-2.16746 -7.4055,-2.88995 -4.51555,-0.72249 -11.55981,-0.72249 h -29.98325 q -6.32177,0 -10.47607,0.90311 -4.15431,0.90311 -6.50239,3.2512 -2.34809,2.16746 -3.2512,6.14115 -0.90311,3.79306 -0.90311,9.75359 v 31.97009 h 51.29665 q 7.04425,0 11.5598,-0.54187 4.51555,-0.72249 7.22488,-2.88995 2.70933,-2.16746 3.61244,-6.14115 1.08374,-3.97368 1.08374,-10.6567 z"
         style="font-style:normal;font-variant:normal;font-weight:normal;font-stretch:normal;font-size:180.622px;font-family:Neuropolitical;-inkscape-font-specification:Neuropolitical;text-align:center;text-anchor:middle;fill:#ffa500;fill-opacity:1;stroke-width:0.264583"
         id="path867" />
      <path
         d="M 287.45905,270.61093 V 141.10496 h 27.45454 v 129.50597 z"
         style="font-style:normal;font-variant:normal;font-weight:normal;font-stretch:normal;font-size:180.622px;font-family:Neuropolitical;-inkscape-font-specification:Neuropolitical;text-align:center;text-anchor:middle;fill:#ffa500;fill-opacity:1;stroke-width:0.264583"
         id="path869" />
      <path
         d="m 369.64179,270.61093 q -10.6567,0 -17.52034,-1.80622 -6.86363,-1.80622 -11.01794,-5.05741 -3.97368,-3.43182 -5.59928,-8.12799 -1.6256,-4.8768 -1.6256,-10.83732 v -9.21173 q 0,-6.14114 1.44498,-10.83732 1.6256,-4.87679 5.41866,-8.12798 3.79306,-3.43182 10.29545,-5.05742 6.68302,-1.80622 16.79785,-1.80622 h 72.42942 v -2.16746 q 0,-9.39235 -3.79307,-12.46292 -3.79306,-3.2512 -12.82416,-3.2512 h -26.73205 v -19.14593 h 26.73205 q 11.74043,0 19.86842,2.16746 8.30861,2.16747 13.54665,6.68302 5.23804,4.33493 7.58613,11.19856 2.5287,6.68302 2.5287,16.07536 v 23.8421 q 0,10.6567 -2.16746,17.88158 -1.98684,7.22488 -7.22488,11.74043 -5.05742,4.51555 -13.72727,6.50239 -8.48924,1.80622 -21.49402,1.80622 z m 70.6232,-44.25239 h -69.53947 q -4.69617,0 -7.4055,2.16747 -2.70933,1.98684 -2.70933,7.76674 v 6.68302 q 0,5.23803 2.88995,7.22488 2.88995,1.98684 8.12799,1.98684 h 50.57416 q 4.69617,0 8.12799,-0.72249 3.43181,-0.72249 5.59928,-2.52871 2.16746,-1.98684 3.25119,-5.41866 1.08374,-3.43182 1.08374,-8.85048 z"
         style="font-style:normal;font-variant:normal;font-weight:normal;font-stretch:normal;font-size:180.622px;font-family:Neuropolitical;-inkscape-font-specification:Neuropolitical;text-align:center;text-anchor:middle;fill:#ffa500;fill-opacity:1;stroke-width:0.264583"
         id="path871" />
      <path
         d="m 512.1524,223.64921 q 0,8.12799 3.43182,11.37919 3.61244,3.07057 11.92105,3.07057 h 60.14712 v -65.38516 h 26.19019 v 96.0909 q 0,16.4366 -8.12799,23.66148 -8.12799,7.4055 -26.55143,7.4055 h -39.19497 v -22.03588 h 36.84688 q 5.59929,0 8.12799,-2.16746 2.70933,-2.16747 2.70933,-8.30861 v -7.94737 h -61.77272 q -11.01794,0 -18.78469,-1.98684 -7.58612,-2.16747 -12.46291,-6.5024 -4.69618,-4.33492 -6.86364,-10.83732 -2.16746,-6.50239 -2.16746,-15.35287 v -52.01913 h 26.55143 z"
         style="font-style:normal;font-variant:normal;font-weight:normal;font-stretch:normal;font-size:180.622px;font-family:Neuropolitical;-inkscape-font-specification:Neuropolitical;text-align:center;text-anchor:middle;fill:#ffa500;fill-opacity:1;stroke-width:0.264583"
         id="path873" />
    </g>
  </g>
</svg>
