<?xml version="1.0" encoding="UTF-8" standalone="no"?>
<svg
   xmlns:dc="http://purl.org/dc/elements/1.1/"
   xmlns:cc="http://creativecommons.org/ns#"
   xmlns:rdf="http://www.w3.org/1999/02/22-rdf-syntax-ns#"
   xmlns:svg="http://www.w3.org/2000/svg"
   xmlns="http://www.w3.org/2000/svg"
   xmlns:sodipodi="http://sodipodi.sourceforge.net/DTD/sodipodi-0.dtd"
   xmlns:inkscape="http://www.inkscape.org/namespaces/inkscape"
   width="3300"
   height="660"
   viewBox="0 0 873.12495 174.62499"
   version="1.1"
   id="svg8"
   sodipodi:docname="sys.svg"
   inkscape:version="1.0.1 (3bc2e813f5, 2020-09-07)">
  <defs
     id="defs2">
    <clipPath
       id="clipEmfPath1"
       clipPathUnits="userSpaceOnUse">
      <path
         inkscape:connector-curvature="0"
         id="path5723"
         d="M -89.199339,-108.0792 H 704.55478 V 1014.4725 H -89.199339" />
    </clipPath>
  </defs>
  <sodipodi:namedview
     id="base"
     pagecolor="#ffffff"
     bordercolor="#666666"
     borderopacity="1.0"
     inkscape:pageopacity="0.0"
     inkscape:pageshadow="2"
     inkscape:zoom="0.32"
     inkscape:cx="1539.8075"
     inkscape:cy="65.606776"
     inkscape:document-units="mm"
     inkscape:current-layer="layer1"
     showgrid="true"
     units="px"
     inkscape:window-width="1920"
     inkscape:window-height="1129"
     inkscape:window-x="1912"
     inkscape:window-y="-8"
     inkscape:window-maximized="1"
     inkscape:document-rotation="0"
     fit-margin-top="0"
     fit-margin-left="0"
     fit-margin-right="0"
     fit-margin-bottom="0">
    <inkscape:grid
       type="xygrid"
       id="grid4518"
       spacingx="2.1166666"
       spacingy="2.1166666"
       empspacing="4"
       originx="1.0791014e-07"
       originy="-2.1350096e-06" />
  </sodipodi:namedview>
  <metadata
     id="metadata5">
    <rdf:RDF>
      <cc:Work
         rdf:about="">
        <dc:format>image/svg+xml</dc:format>
        <dc:type
           rdf:resource="http://purl.org/dc/dcmitype/StillImage" />
        <dc:title />
      </cc:Work>
    </rdf:RDF>
  </metadata>
  <g
     inkscape:label="Ebene 1"
     inkscape:groupmode="layer"
     id="layer1"
     transform="translate(57.618498,-132.72428)">
    <g
       aria-label="sys"
       id="text900"
       style="font-size:180.622px;line-height:1.25;font-family:sans-serif;-inkscape-font-specification:sans-serif;display:inline;stroke-width:0.264583"
       inkscape:label="sys">
      <path
         d="m 295.31609,244.60136 q 0,7.22488 -1.26436,12.2823 -1.26435,4.87679 -5.05741,7.94737 -3.61244,3.07057 -10.11484,4.51555 -6.32177,1.26435 -16.61722,1.26435 h -84.16985 v -21.13277 h 80.73803 q 5.41866,0 7.58613,-1.80622 2.16746,-1.80622 2.16746,-6.86364 v -3.25119 q 0,-5.41866 -2.16746,-6.68302 -1.98684,-1.44497 -6.86364,-1.44497 h -54.90908 q -8.30862,0 -13.54665,-1.6256 -5.05742,-1.6256 -7.94737,-4.8768 -2.88995,-3.25119 -3.97369,-7.94736 -0.90311,-4.8768 -0.90311,-11.37919 v -7.4055 q 0,-6.32177 1.26436,-10.83732 1.44497,-4.51555 4.51555,-7.22488 3.07057,-2.88995 8.30861,-4.15431 5.23804,-1.26435 13.18541,-1.26435 h 37.20813 v 20.41029 h -30.70574 q -3.97369,0 -5.77991,1.44497 -1.62559,1.44498 -1.62559,5.23804 v 4.51555 q 0,4.15431 1.62559,5.59928 1.6256,1.44498 5.23804,1.44498 h 53.10287 q 9.39234,0 15.35287,1.6256 5.96052,1.44497 9.39234,4.87679 3.43182,3.2512 4.69617,8.66985 1.26436,5.23804 1.26436,13.00479 z"
         style="font-style:normal;font-variant:normal;font-weight:normal;font-stretch:normal;font-size:180.622px;font-family:Neuropolitical;-inkscape-font-specification:Neuropolitical;text-align:center;text-anchor:middle;fill:#ffa500;fill-opacity:1;stroke-width:0.264583"
         id="path860" />
      <path
         d="m 337.94274,223.64921 q 0,8.12799 3.43182,11.37919 3.61244,3.07057 11.92105,3.07057 h 60.14713 v -65.38516 h 26.19019 v 96.0909 q 0,16.4366 -8.12799,23.66148 -8.12799,7.4055 -26.55144,7.4055 h -39.19497 v -22.03588 h 36.84689 q 5.59928,0 8.12799,-2.16746 2.70933,-2.16747 2.70933,-8.30861 v -7.94737 h -61.77272 q -11.01795,0 -18.78469,-1.98684 -7.58612,-2.16747 -12.46292,-6.5024 -4.69617,-4.33492 -6.86363,-10.83732 -2.16747,-6.50239 -2.16747,-15.35287 v -52.01913 h 26.55143 z"
         style="font-style:normal;font-variant:normal;font-weight:normal;font-stretch:normal;font-size:180.622px;font-family:Neuropolitical;-inkscape-font-specification:Neuropolitical;text-align:center;text-anchor:middle;fill:#ffa500;fill-opacity:1;stroke-width:0.264583"
         id="path862" />
      <path
         d="m 576.183,244.60136 q 0,7.22488 -1.26435,12.2823 -1.26436,4.87679 -5.05742,7.94737 -3.61244,3.07057 -10.11483,4.51555 -6.32177,1.26435 -16.61723,1.26435 h -84.16985 v -21.13277 h 80.73804 q 5.41866,0 7.58612,-1.80622 2.16746,-1.80622 2.16746,-6.86364 v -3.25119 q 0,-5.41866 -2.16746,-6.68302 -1.98684,-1.44497 -6.86364,-1.44497 h -54.90908 q -8.30861,0 -13.54665,-1.6256 -5.05742,-1.6256 -7.94737,-4.8768 -2.88995,-3.25119 -3.97368,-7.94736 -0.90311,-4.8768 -0.90311,-11.37919 v -7.4055 q 0,-6.32177 1.26435,-10.83732 1.44498,-4.51555 4.51555,-7.22488 3.07057,-2.88995 8.30861,-4.15431 5.23804,-1.26435 13.18541,-1.26435 H 523.622 v 20.41029 h -30.70574 q -3.97368,0 -5.7799,1.44497 -1.6256,1.44498 -1.6256,5.23804 v 4.51555 q 0,4.15431 1.6256,5.59928 1.62559,1.44498 5.23803,1.44498 h 53.10287 q 9.39234,0 15.35287,1.6256 5.96053,1.44497 9.39234,4.87679 3.43182,3.2512 4.69618,8.66985 1.26435,5.23804 1.26435,13.00479 z"
         style="font-style:normal;font-variant:normal;font-weight:normal;font-stretch:normal;font-size:180.622px;font-family:Neuropolitical;-inkscape-font-specification:Neuropolitical;text-align:center;text-anchor:middle;fill:#ffa500;fill-opacity:1;stroke-width:0.264583"
         id="path864" />
    </g>
  </g>
</svg>
