<?xml version="1.0" encoding="UTF-8" standalone="no"?>
<!-- Generator: Adobe Illustrator 19.0.0, SVG Export Plug-In . SVG Version: 6.00 Build 0)  -->

<svg
   xmlns:dc="http://purl.org/dc/elements/1.1/"
   xmlns:cc="http://creativecommons.org/ns#"
   xmlns:rdf="http://www.w3.org/1999/02/22-rdf-syntax-ns#"
   xmlns:svg="http://www.w3.org/2000/svg"
   xmlns="http://www.w3.org/2000/svg"
   xmlns:sodipodi="http://sodipodi.sourceforge.net/DTD/sodipodi-0.dtd"
   xmlns:inkscape="http://www.inkscape.org/namespaces/inkscape"
   version="1.1"
   id="Capa_1"
   x="0px"
   y="0px"
   viewBox="0 0 36 36"
   style="enable-background:new 0 0 36 36;"
   xml:space="preserve"
   width="512px"
   height="512px"
   sodipodi:docname="stop_selected.svg"
   inkscape:version="0.92.2 (5c3e80d, 2017-08-06)"><metadata
     id="metadata39"><rdf:RDF><cc:Work
         rdf:about=""><dc:format>image/svg+xml</dc:format><dc:type
           rdf:resource="http://purl.org/dc/dcmitype/StillImage" /></cc:Work></rdf:RDF></metadata><defs
     id="defs37" /><sodipodi:namedview
     pagecolor="#ffffff"
     bordercolor="#666666"
     borderopacity="1"
     objecttolerance="10"
     gridtolerance="10"
     guidetolerance="10"
     inkscape:pageopacity="0"
     inkscape:pageshadow="2"
     inkscape:window-width="1473"
     inkscape:window-height="837"
     id="namedview35"
     showgrid="false"
     inkscape:zoom="0.921875"
     inkscape:cx="248.36969"
     inkscape:cy="302.84953"
     inkscape:window-x="49"
     inkscape:window-y="88"
     inkscape:window-maximized="0"
     inkscape:current-layer="Capa_1" /><path
     d="M 19.749999,0.83898304 H 1.4533899 c -0.2970509,0 -0.53813561,0.24054656 -0.53813561,0.53813556 V 19.673728 c 0,0.297589 0.24108471,0.538136 0.53813561,0.538136 H 19.749999 c 0.297051,0 0.538136,-0.240547 0.538136,-0.538136 V 1.3771186 c 0,-0.297589 -0.241085,-0.53813556 -0.538136,-0.53813556 z"
     id="path2"
     style="fill:#660000;fill-opacity:1;stroke-width:0.53813559"
     inkscape:connector-curvature="0" /><g
     id="g4" /><g
     id="g6" /><g
     id="g8" /><g
     id="g10" /><g
     id="g12" /><g
     id="g14" /><g
     id="g16" /><g
     id="g18" /><g
     id="g20" /><g
     id="g22" /><g
     id="g24" /><g
     id="g26" /><g
     id="g28" /><g
     id="g30" /><g
     id="g32" /><path
     id="path906"
     d="M 31.677152,14.160013 H 18.931088 c -2.008414,0 -3.641729,1.482782 -3.641729,3.30609 0,1.823307 1.633315,3.306088 3.641729,3.306088 h 12.746064 c 2.008416,0 3.641734,-1.482781 3.641734,-3.306088 0,-1.823308 -1.633318,-3.30609 -3.641734,-3.30609 z"
     inkscape:connector-curvature="0"
     style="fill:#0000ff;stroke:#ffffff;stroke-width:1.29864693;stroke-miterlimit:4;stroke-dasharray:none;stroke-opacity:1" /><circle
     id="circle912"
     cy="17.466103"
     cx="11.174115"
     style="fill:#0000ff;stroke:#ffffff;stroke-width:1.02594745;stroke-miterlimit:4;stroke-dasharray:none;stroke-opacity:1"
     r="3.4265361" /><g
     id="g916"
     transform="matrix(0.93933984,0,0,0.93933984,15.9748,15.864408)" /><g
     id="g918"
     transform="matrix(0.93933984,0,0,0.93933984,15.9748,15.864408)" /><g
     id="g920"
     transform="matrix(0.93933984,0,0,0.93933984,15.9748,15.864408)" /><g
     id="g922"
     transform="matrix(0.93933984,0,0,0.93933984,15.9748,15.864408)" /><g
     id="g924"
     transform="matrix(0.93933984,0,0,0.93933984,15.9748,15.864408)" /><g
     id="g926"
     transform="matrix(0.93933984,0,0,0.93933984,15.9748,15.864408)" /><g
     id="g928"
     transform="matrix(0.93933984,0,0,0.93933984,15.9748,15.864408)" /><g
     id="g930"
     transform="matrix(0.93933984,0,0,0.93933984,15.9748,15.864408)" /><g
     id="g932"
     transform="matrix(0.93933984,0,0,0.93933984,15.9748,15.864408)" /><g
     id="g934"
     transform="matrix(0.93933984,0,0,0.93933984,15.9748,15.864408)" /><g
     id="g936"
     transform="matrix(0.93933984,0,0,0.93933984,15.9748,15.864408)" /><g
     id="g938"
     transform="matrix(0.93933984,0,0,0.93933984,15.9748,15.864408)" /><g
     id="g940"
     transform="matrix(0.93933984,0,0,0.93933984,15.9748,15.864408)" /><g
     id="g942"
     transform="matrix(0.93933984,0,0,0.93933984,15.9748,15.864408)" /><g
     id="g944"
     transform="matrix(0.93933984,0,0,0.93933984,15.9748,15.864408)" /><path
     id="path906-0"
     d="M 31.660491,21.558318 H 18.914426 c -2.008414,0 -3.641728,1.482782 -3.641728,3.30609 0,1.823307 1.633314,3.306088 3.641728,3.306088 h 12.746065 c 2.008415,0 3.641734,-1.482781 3.641734,-3.306088 0,-1.823308 -1.633319,-3.30609 -3.641734,-3.30609 z"
     inkscape:connector-curvature="0"
     style="fill:#7f7f80;stroke:#ffffff;stroke-width:1.29864693;stroke-miterlimit:4;stroke-dasharray:none;stroke-opacity:1;fill-opacity:1" /><circle
     id="circle912-8"
     cy="24.864407"
     cx="11.157453"
     style="fill:#7f7f80;stroke:#ffffff;stroke-width:1.02594745;stroke-miterlimit:4;stroke-dasharray:none;stroke-opacity:1;fill-opacity:1"
     r="3.4265361" /><path
     id="path906-3"
     d="M 31.664689,28.637091 H 18.918624 c -2.008414,0 -3.641728,1.482782 -3.641728,3.30609 0,1.823307 1.633314,3.306088 3.641728,3.306088 h 12.746065 c 2.008415,0 3.641734,-1.482781 3.641734,-3.306088 0,-1.823308 -1.633319,-3.30609 -3.641734,-3.30609 z"
     inkscape:connector-curvature="0"
     style="fill:#7f7f80;stroke:#ffffff;stroke-width:1.29864693;stroke-miterlimit:4;stroke-dasharray:none;stroke-opacity:1;fill-opacity:1" /><circle
     id="circle912-0"
     cy="31.94318"
     cx="11.161652"
     style="fill:#7f7f80;stroke:#ffffff;stroke-width:1.02594745;stroke-miterlimit:4;stroke-dasharray:none;stroke-opacity:1;fill-opacity:1"
     r="3.4265361" /></svg>