<?xml version="1.0" encoding="UTF-8" standalone="no"?>
<!-- Generator: Adobe Illustrator 19.0.0, SVG Export Plug-In . SVG Version: 6.00 Build 0)  -->

<svg
   xmlns:dc="http://purl.org/dc/elements/1.1/"
   xmlns:cc="http://creativecommons.org/ns#"
   xmlns:rdf="http://www.w3.org/1999/02/22-rdf-syntax-ns#"
   xmlns:svg="http://www.w3.org/2000/svg"
   xmlns="http://www.w3.org/2000/svg"
   xmlns:sodipodi="http://sodipodi.sourceforge.net/DTD/sodipodi-0.dtd"
   xmlns:inkscape="http://www.inkscape.org/namespaces/inkscape"
   version="1.1"
   id="Capa_1"
   x="0px"
   y="0px"
   viewBox="0 0 512 512"
   style="enable-background:new 0 0 512 512;"
   xml:space="preserve"
   sodipodi:docname="remove.svg"
   inkscape:version="0.92.2 (5c3e80d, 2017-08-06)"><metadata
     id="metadata57"><rdf:RDF><cc:Work
         rdf:about=""><dc:format>image/svg+xml</dc:format><dc:type
           rdf:resource="http://purl.org/dc/dcmitype/StillImage" /></cc:Work></rdf:RDF></metadata><defs
     id="defs55" /><sodipodi:namedview
     pagecolor="#ffffff"
     bordercolor="#666666"
     borderopacity="1"
     objecttolerance="10"
     gridtolerance="10"
     guidetolerance="10"
     inkscape:pageopacity="0"
     inkscape:pageshadow="2"
     inkscape:window-width="1920"
     inkscape:window-height="1138"
     id="namedview53"
     showgrid="false"
     inkscape:zoom="1.3037281"
     inkscape:cx="307.19036"
     inkscape:cy="374.79438"
     inkscape:window-x="-6"
     inkscape:window-y="-6"
     inkscape:window-maximized="1"
     inkscape:current-layer="Capa_1" /><path
     style="fill:#575759;fill-opacity:1"
     d="M301,0h-90c-24.901,0-45,20.099-45,45v30c0,8.399,6.599,15,15,15h150c8.401,0,15-6.601,15-15V45  C346,20.099,325.901,0,301,0z M316,60H196V45c0-8.401,6.599-15,15-15h90c8.401,0,15,6.599,15,15V60z"
     id="path2" /><path
     style="fill:#393939;fill-opacity:1"
     d="M346,45v30c0,8.399-6.599,15-15,15h-75V60h60V45c0-8.401-6.599-15-15-15h-45V0h45  C325.901,0,346,20.099,346,45z"
     id="path4" /><path
     style="fill:#646366;fill-opacity:1"
     d="M436,120H76c-8.699,0-15.601,7.5-15,16.199L88.599,470.9c1.8,23.101,21.301,41.1,44.7,41.1h245.402  c23.399,0,42.9-17.999,44.7-41.1L451,136.199C451.601,127.5,444.699,120,436,120z"
     id="path6" /><path
     style="fill:#323232;fill-opacity:1"
     d="M451,136.199L423.401,470.9c-1.8,23.101-21.301,41.1-44.7,41.1H256V120h180  C444.699,120,451.601,127.5,451,136.199z"
     id="path8" /><path
     style="fill:#737373;fill-opacity:1"
     d="M436,60H76c-24.901,0-45,20.099-45,45v30c0,8.401,6.599,15,15,15h420c8.401,0,15-6.599,15-15v-30  C481,80.099,460.901,60,436,60z"
     id="path10" /><path
     style="fill:#AEADB3;"
     d="M271,195v212c0,9.901-7.5,15-15,15s-15-5.099-15-15V195c0-9.901,7.5-15,15-15S271,185.099,271,195z"
     id="path12" /><path
     style="fill:#8B8892;"
     d="M331,407V195c0-19.773,30-19.854,30,0v212C361,426.773,331,426.854,331,407z"
     id="path14" /><path
     style="fill:#AEADB3;"
     d="M151,407V195c0-19.773,30-19.854,30,0v212C181,426.773,151,426.854,151,407z"
     id="path16" /><path
     style="fill:#8B8892;"
     d="M271,195v212c0,9.901-7.5,15-15,15V180C263.5,180,271,185.099,271,195z"
     id="path18" /><path
     style="fill:#555555;fill-opacity:1"
     d="M481,105v30c0,8.401-6.599,15-15,15H256V60h180C460.901,60,481,80.099,481,105z"
     id="path20" /><g
     id="g22" /><g
     id="g24" /><g
     id="g26" /><g
     id="g28" /><g
     id="g30" /><g
     id="g32" /><g
     id="g34" /><g
     id="g36" /><g
     id="g38" /><g
     id="g40" /><g
     id="g42" /><g
     id="g44" /><g
     id="g46" /><g
     id="g48" /><g
     id="g50" /></svg>