<?xml version="1.0" encoding="iso-8859-1"?>
<!-- Generator: Adobe Illustrator 19.0.0, SVG Export Plug-In . SVG Version: 6.00 Build 0)  -->
<svg version="1.1" id="Capa_1" xmlns="http://www.w3.org/2000/svg" xmlns:xlink="http://www.w3.org/1999/xlink" x="0px" y="0px"
	 viewBox="0 0 512 512" style="enable-background:new 0 0 512 512;" xml:space="preserve">
<polygon style="fill:#525263;" points="445.774,0.001 0.001,0.001 0.001,512 511.999,512 511.999,66.228 "/>
<path style="fill:#C0C2D0;" d="M426.186,0v169.43c0,9.111-7.377,16.488-16.488,16.488H148.066c-9.101,0-16.488-7.377-16.488-16.488
	V0H426.186z"/>
<path style="fill:#DADBE0;" d="M426.186,0v169.43c0,9.111-7.377,16.488-16.488,16.488H229.976L303.275,0H426.186z"/>
<path style="fill:#FFF4F5;" d="M407.738,251.71H102.833c-10.191,0-18.453,8.261-18.453,18.453V512h341.809V270.163
	C426.191,259.971,417.929,251.71,407.738,251.71z"/>
<rect x="84.376" y="444.781" style="fill:#EA1225;" width="341.806" height="67.218"/>
<g>
	<path style="fill:#35333F;" d="M393.296,305.312H121.565c-4.328,0-7.837-3.509-7.837-7.837s3.509-7.837,7.837-7.837h271.731
		c4.329,0,7.837,3.509,7.837,7.837S397.625,305.312,393.296,305.312z"/>
	<path style="fill:#35333F;" d="M393.296,356.797H121.565c-4.328,0-7.837-3.509-7.837-7.837c0-4.328,3.509-7.837,7.837-7.837
		h271.731c4.329,0,7.837,3.509,7.837,7.837C401.133,353.289,397.625,356.797,393.296,356.797z"/>
	<path style="fill:#35333F;" d="M393.296,408.284H121.565c-4.328,0-7.837-3.509-7.837-7.837c0-4.328,3.509-7.837,7.837-7.837
		h271.731c4.329,0,7.837,3.509,7.837,7.837C401.133,404.775,397.625,408.284,393.296,408.284z"/>
	<rect x="287.462" y="31.462" style="fill:#35333F;" width="88.67" height="122.556"/>
</g>
<g>
</g>
<g>
</g>
<g>
</g>
<g>
</g>
<g>
</g>
<g>
</g>
<g>
</g>
<g>
</g>
<g>
</g>
<g>
</g>
<g>
</g>
<g>
</g>
<g>
</g>
<g>
</g>
<g>
</g>
</svg>
