<?xml version="1.0" encoding="UTF-8" standalone="no"?>
<!-- Created with Inkscape (http://www.inkscape.org/) -->

<svg
   xmlns:dc="http://purl.org/dc/elements/1.1/"
   xmlns:cc="http://creativecommons.org/ns#"
   xmlns:rdf="http://www.w3.org/1999/02/22-rdf-syntax-ns#"
   xmlns:svg="http://www.w3.org/2000/svg"
   xmlns="http://www.w3.org/2000/svg"
   xmlns:sodipodi="http://sodipodi.sourceforge.net/DTD/sodipodi-0.dtd"
   xmlns:inkscape="http://www.inkscape.org/namespaces/inkscape"
   width="512"
   height="512"
   viewBox="0 0 135.46666 135.46666"
   version="1.1"
   id="svg8"
   sodipodi:docname="pencil.svg"
   inkscape:version="0.92.4 (5da689c313, 2019-01-14)">
  <defs
     id="defs2">
    <clipPath
       id="clipEmfPath1"
       clipPathUnits="userSpaceOnUse">
      <path
         inkscape:connector-curvature="0"
         id="path5723"
         d="M -89.199339,-108.0792 H 704.55478 V 1014.4725 H -89.199339" />
    </clipPath>
    <pattern
       y="0"
       x="0"
       height="6"
       width="6"
       patternUnits="userSpaceOnUse"
       id="EMFhbasepattern" />
  </defs>
  <sodipodi:namedview
     id="base"
     pagecolor="#ffffff"
     bordercolor="#666666"
     borderopacity="1.0"
     inkscape:pageopacity="0.0"
     inkscape:pageshadow="2"
     inkscape:zoom="0.45254834"
     inkscape:cx="-195.81094"
     inkscape:cy="748.6356"
     inkscape:document-units="mm"
     inkscape:current-layer="layer1"
     showgrid="true"
     units="px"
     inkscape:window-width="1920"
     inkscape:window-height="1137"
     inkscape:window-x="1912"
     inkscape:window-y="-8"
     inkscape:window-maximized="1"
     inkscape:snap-grids="true"
     inkscape:snap-intersection-paths="true">
    <inkscape:grid
       type="xygrid"
       id="grid4518"
       spacingx="2.1166666"
       spacingy="2.1166666"
       empspacing="4" />
  </sodipodi:namedview>
  <metadata
     id="metadata5">
    <rdf:RDF>
      <cc:Work
         rdf:about="">
        <dc:format>image/svg+xml</dc:format>
        <dc:type
           rdf:resource="http://purl.org/dc/dcmitype/StillImage" />
        <dc:title></dc:title>
      </cc:Work>
    </rdf:RDF>
  </metadata>
  <g
     inkscape:label="Ebene 1"
     inkscape:groupmode="layer"
     id="layer1"
     transform="translate(0,-161.53336)">
    <rect
       style="opacity:1;fill:#40596b;fill-opacity:1;stroke:#a0a0a0;stroke-width:0.26458332;stroke-linecap:round;stroke-linejoin:round;stroke-miterlimit:4;stroke-dasharray:none;stroke-opacity:1;paint-order:normal"
       id="rect1069"
       width="59.868366"
       height="23.94735"
       x="180.07655"
       y="48.366127"
       transform="rotate(45)"
       ry="5.986835" />
    <path
       style="fill:#40596b;fill-opacity:1;stroke:#000000;stroke-width:0.26458332px;stroke-linecap:butt;stroke-linejoin:miter;stroke-opacity:1"
       d="m 105.83333,153.06671 16.93333,-16.93334 42.33333,42.33334 -16.93333,16.93333 z"
       id="path959"
       inkscape:connector-curvature="0"
       sodipodi:nodetypes="ccccc" />
    <g
       id="g18"
       transform="matrix(0.26458333,0,0,0.26458333,-144.03705,156.24593)" />
    <g
       id="g20"
       transform="matrix(0.26458333,0,0,0.26458333,-144.03705,156.24593)" />
    <g
       id="g22"
       transform="matrix(0.26458333,0,0,0.26458333,-144.03705,156.24593)" />
    <g
       id="g24"
       transform="matrix(0.26458333,0,0,0.26458333,-144.03705,156.24593)" />
    <g
       id="g26"
       transform="matrix(0.26458333,0,0,0.26458333,-144.03705,156.24593)" />
    <g
       id="g28"
       transform="matrix(0.26458333,0,0,0.26458333,-144.03705,156.24593)" />
    <g
       id="g30"
       transform="matrix(0.26458333,0,0,0.26458333,-144.03705,156.24593)" />
    <g
       id="g32"
       transform="matrix(0.26458333,0,0,0.26458333,-144.03705,156.24593)" />
    <g
       id="g34"
       transform="matrix(0.26458333,0,0,0.26458333,-144.03705,156.24593)" />
    <g
       id="g36"
       transform="matrix(0.26458333,0,0,0.26458333,-144.03705,156.24593)" />
    <g
       id="g38"
       transform="matrix(0.26458333,0,0,0.26458333,-144.03705,156.24593)" />
    <g
       id="g40"
       transform="matrix(0.26458333,0,0,0.26458333,-144.03705,156.24593)" />
    <g
       id="g42"
       transform="matrix(0.26458333,0,0,0.26458333,-144.03705,156.24593)" />
    <g
       id="g44"
       transform="matrix(0.26458333,0,0,0.26458333,-144.03705,156.24593)" />
    <g
       id="g46"
       transform="matrix(0.26458333,0,0,0.26458333,-144.03705,156.24593)" />
    <path
       inkscape:connector-curvature="0"
       id="path898"
       d="M 237.06665,297.00002 203.19999,254.66669 V 136.13337 h 67.73333 v 118.53332 z"
       style="fill:none;stroke:#000000;stroke-width:0.26458332px;stroke-linecap:butt;stroke-linejoin:miter;stroke-opacity:1" />
    <path
       inkscape:connector-curvature="0"
       id="path900-3"
       d="m -177.8,356.26669 -33.86666,-42.33333 16.93334,-16.93333 16.93332,16.93333 16.93334,-16.93333 16.93333,16.93333 z"
       style="fill:none;stroke:#000000;stroke-width:0.26458332px;stroke-linecap:butt;stroke-linejoin:miter;stroke-opacity:1" />
    <path
       sodipodi:nodetypes="cccc"
       inkscape:connector-curvature="0"
       id="path902-3"
       d="M -211.66666,313.93336 V 212.33337 h 67.73333 v 101.59999"
       style="fill:none;stroke:#000000;stroke-width:0.26458332px;stroke-linecap:butt;stroke-linejoin:miter;stroke-opacity:1" />
    <rect
       ry="0"
       y="195.40002"
       x="-211.66667"
       height="16.933332"
       width="67.73333"
       id="rect904-1"
       style="opacity:1;fill:none;fill-opacity:1;stroke:#a0a0a0;stroke-width:0.26458332;stroke-linecap:round;stroke-linejoin:round;stroke-miterlimit:4;stroke-dasharray:none;stroke-opacity:1;paint-order:normal" />
    <path
       inkscape:connector-curvature="0"
       id="path943"
       d="M 12.699999,241.96669 55.03333,284.30003"
       style="fill:none;stroke:#000000;stroke-width:0.26458332px;stroke-linecap:butt;stroke-linejoin:miter;stroke-opacity:1" />
    <path
       inkscape:connector-curvature="0"
       id="path945"
       d="m 12.699999,241.96669 71.966664,-71.96666 42.333327,42.33333 -71.96666,71.96667"
       style="fill:#f1543f;stroke:#000000;stroke-width:0.26458332px;stroke-linecap:butt;stroke-linejoin:miter;stroke-opacity:1;fill-opacity:1" />
    <path
       style="fill:#ffc941;stroke:#000000;stroke-width:0.26458332px;stroke-linecap:butt;stroke-linejoin:miter;stroke-opacity:1;fill-opacity:1"
       d="M -1.5864969e-6,297.00003 12.7,241.96669 l 23.283332,-2.11666 -2.116665,23.28333 23.283331,-2.11667 -2.116665,23.28334 z"
       id="path900"
       inkscape:connector-curvature="0"
       sodipodi:nodetypes="ccccccc" />
    <g
       id="g1029"
       transform="translate(-695.40876,-757.7874)">
      <path
         inkscape:connector-curvature="0"
         style="fill:#ffd15c;fill-opacity:1;fill-rule:nonzero;stroke:none;stroke-width:0.26458332"
         d="m 528.74316,933.54422 -20.74318,4.14864 4.14864,-20.72201 6.34995,-31.7921 23.79116,-23.79116 42.01552,42.03669 -23.76999,23.76999 z"
         id="path994" />
      <path
         inkscape:connector-curvature="0"
         style="fill:#ff7058;fill-opacity:1;fill-rule:nonzero;stroke:none;stroke-width:0.26458332"
         d="m 543.39039,881.30528 52.81044,-52.81044 20.99717,21.01834 -52.81043,52.81044 -24.87065,3.85231 z"
         id="path996" />
      <path
         inkscape:connector-curvature="0"
         style="fill:#f1543f;fill-opacity:1;fill-rule:nonzero;stroke:none;stroke-width:0.26458332"
         d="m 564.38757,902.32362 52.81043,-52.81044 10.51976,10.49859 -67.1825,67.1825 z"
         id="path998" />
      <path
         inkscape:connector-curvature="0"
         style="fill:#f1543f;fill-opacity:1;fill-rule:nonzero;stroke:none;stroke-width:0.26458332"
         d="m 518.49857,885.17875 67.18251,-67.1825 10.51975,10.49859 -52.81044,52.81044 z"
         id="path1000" />
      <path
         inkscape:connector-curvature="0"
         style="fill:#334a5e;fill-opacity:1;fill-rule:nonzero;stroke:none;stroke-width:0.26458332"
         d="m 512.14862,916.97085 16.59454,16.57337 -20.74318,4.14864 z"
         id="path1002" />
      <path
         inkscape:connector-curvature="0"
         style="fill:#40596b;fill-opacity:1;fill-rule:nonzero;stroke:none;stroke-width:0.26458332"
         d="M 639.04184,840.94074 604.7521,806.651 c -2.20132,-2.20132 -5.52446,-2.20132 -7.72578,0 l -11.34524,11.34525 42.03668,42.01552 11.32408,-11.32408 c 2.22249,-2.22249 2.22249,-5.54563 0,-7.74695 z"
         id="path1004" />
      <path
         inkscape:connector-curvature="0"
         style="fill:#f2f2f2;fill-opacity:1;fill-rule:nonzero;stroke:none;stroke-width:0.26458332"
         d="m 631.78173,855.9478 -4.1063,4.1063 -42.01552,-42.03669 4.1063,-4.1063 z"
         id="path1006" />
    </g>
    <ellipse
       style="opacity:1;fill:none;fill-opacity:1;stroke:#a0a0a0;stroke-width:0.26458332;stroke-linecap:round;stroke-linejoin:round;stroke-miterlimit:4;stroke-dasharray:none;stroke-opacity:1;paint-order:normal"
       id="path1031"
       ry="25.602575"
       rx="25.499218"
       cy="297.00003"
       cx="0" />
    <path
       style="fill:#334a5e;fill-opacity:1;stroke:#000000;stroke-width:0.26458332px;stroke-linecap:butt;stroke-linejoin:miter;stroke-opacity:1"
       d="M -1.5864969e-6,297.00003 24.850824,291.26522 5.7556919,272.05869 Z"
       id="path1033"
       inkscape:connector-curvature="0"
       sodipodi:nodetypes="cccc" />
    <path
       style="fill:#ff7058;stroke:#000000;stroke-width:0.26458332px;stroke-linecap:butt;stroke-linejoin:miter;stroke-opacity:1;fill-opacity:1"
       d="m 35.98333,239.85003 59.266666,-59.26667 21.166664,21.16667 -59.266663,59.26666 -23.283331,2.11667 z"
       id="path1065"
       inkscape:connector-curvature="0" />
    <path
       style="fill:#f2f2f2;stroke:#000000;stroke-width:0.26458332px;stroke-linecap:butt;stroke-linejoin:miter;stroke-opacity:1;fill-opacity:1"
       d="m 126.99999,212.33336 -42.333327,-42.33333 -4.233333,4.23333 42.33333,42.33334 z"
       id="path1067"
       inkscape:connector-curvature="0" />
  </g>
</svg>
